<svg width="362" height="238" viewBox="0 0 362 238" fill="none" xmlns="http://www.w3.org/2000/svg">
<path d="M154.722 152.304C154.722 152.304 152.243 170.032 138.233 185.102C127.559 196.584 110.326 197.364 111.615 208.185H198.858L154.722 152.304Z" fill="white"/>
<path d="M198.857 208.185H111.618C110.327 197.363 127.557 196.583 138.232 185.101C144.85 177.978 148.901 170.265 151.326 164.105C153.122 159.547 154.028 155.843 154.434 153.867C154.645 152.86 154.724 152.301 154.724 152.301L167.386 168.335L170.947 172.846L196.949 205.773L198.857 208.185Z" fill="white"/>
<path d="M159.044 201.29H173.543V175.02H159.044V201.29Z" fill="#B9AFBE"/>
<path d="M113.746 206.078H194.507L155.846 157.127C154.175 163.534 149.902 175.646 139.777 186.537C135.075 191.594 129.32 194.605 124.241 197.261C118.159 200.443 114.36 202.606 113.746 206.078ZM198.858 210.292H111.615C110.549 210.292 109.649 209.495 109.523 208.434C108.6 200.686 115.249 197.208 122.288 193.527C127.065 191.027 132.48 188.195 136.689 183.668C150.048 169.297 152.611 152.181 152.635 152.01C152.753 151.175 153.359 150.491 154.172 150.27C154.989 150.052 155.854 150.337 156.375 150.997L200.511 206.879C201.013 207.513 201.106 208.377 200.754 209.104C200.402 209.831 199.666 210.292 198.858 210.292Z" fill="#371A45"/>
<path d="M358.93 108.896C357.169 112.495 353.053 114.797 346.732 114.835C338.702 114.877 338.527 115.973 338.58 116.214C338.591 116.246 338.601 116.262 338.601 116.262C338.601 116.262 339.977 118.406 341.836 121.936L341.852 121.974C341.931 122.115 342.01 122.264 342.09 122.416C342.094 122.432 342.1 122.443 342.11 122.459C347.695 133.213 357.068 155.637 347.569 170.623C335.93 188.969 282.571 197.99 264.008 202.853C248.78 206.846 220.56 208.606 196.949 205.772C191.765 205.149 186.807 204.307 182.254 203.215C167.432 199.671 160.251 181.208 156.911 167.444C155.478 161.533 154.756 156.491 154.434 153.867C154.287 152.634 154.229 151.933 154.229 151.933C154.229 151.933 193.477 118.528 248.47 114.998C257.479 114.418 266.906 114.644 276.654 115.947C293.387 118.185 304.053 122.527 304.053 122.527C306.655 115.018 297.929 103.126 303.309 92.3877C309.632 79.7635 348.069 76.4922 358.043 97.1041C360.215 101.594 360.478 105.745 358.93 108.896Z" fill="white"/>
<path d="M341.853 121.974C341.931 122.115 342.01 122.264 342.09 122.417C341.989 122.268 341.915 122.127 341.853 121.974Z" fill="white"/>
<path d="M340.403 115.167C340.381 115.133 340.372 115.117 340.372 115.117C340.374 115.117 340.384 115.133 340.403 115.167ZM337.28 114.354C334.03 109.835 330.408 105.645 330.408 105.645C330.408 105.645 330.605 105.603 331.015 105.603C332.294 105.603 335.655 106.009 341.615 109.344C344 110.679 347.742 111.796 351.294 111.796C351.719 111.796 352.141 111.78 352.559 111.747C352.136 111.907 351.698 112.045 351.25 112.16C350.416 112.42 349.5 112.498 348.609 112.633C347.669 112.668 346.828 112.738 345.733 112.739C344.696 112.752 343.645 112.799 342.579 112.873C341.496 112.969 340.439 113.059 339.178 113.387C338.844 113.484 338.504 113.589 338.066 113.806C337.973 113.847 337.808 113.953 337.687 114.031C337.619 114.077 337.564 114.111 337.488 114.171C337.417 114.229 337.347 114.29 337.28 114.354Z" fill="#B9AFBE"/>
<path d="M158.563 173.488C158.238 172.503 157.829 171.555 157.345 170.653L157.011 167.859C157.46 169.674 157.973 171.564 158.563 173.488Z" fill="#B9AFBE"/>
<path d="M246.428 202.203L235.21 202.062C237.789 199.134 238.761 196.156 238.772 196.121C238.867 196.22 241.798 199.282 246.428 202.203ZM195.978 201.571L183.994 201.421C182.279 201.081 180.783 200.695 179.276 200.058C177.59 199.339 175.96 198.422 174.455 197.287C172.955 196.148 171.533 194.858 170.219 193.437C167.562 190.61 165.353 187.293 163.259 183.865L163.253 183.855C163.125 183.644 162.895 183.518 162.652 183.518C162.572 183.518 162.49 183.532 162.412 183.561C162.393 183.567 162.374 183.574 162.356 183.583C160.881 180.37 159.663 177.035 158.657 173.787C158.627 173.686 158.595 173.587 158.563 173.488C157.973 171.564 157.46 169.674 157.011 167.859L156.291 161.795C159.66 162.382 163.12 162.762 166.587 162.926C167.869 162.986 169.157 163.016 170.449 163.016C173.525 163.016 176.625 162.845 179.703 162.501C181.263 162.322 182.84 162.098 184.395 161.836C207.169 157.954 227.036 144.893 239.554 126.333C241.313 126.046 243.026 125.783 244.699 125.541C240.14 136.601 234.136 146.236 227.029 153.959C222.399 155.245 217.814 157.689 213.664 161.835C211.578 163.917 209.663 166.206 207.927 168.618C200.51 172.324 192.486 174.332 184.077 174.332C175.982 174.332 167.53 172.472 158.913 168.472C163.086 179.001 169.75 189.027 180.267 191.54C185.329 192.751 190.896 193.659 196.71 194.295C196.205 196.942 195.958 199.406 195.978 201.571ZM282.652 196.322C291.056 182.845 280.427 164.291 272.751 153.783C272.918 153.685 273.091 153.636 273.27 153.636C273.774 153.636 274.318 154.032 274.914 154.905C284.47 168.885 294.671 175.483 304.304 177.732C303.501 184.459 302.151 189.633 301.605 191.552C300.236 191.932 298.862 192.303 297.488 192.667C292.571 193.968 287.622 195.165 282.652 196.322ZM318.078 186.39C319.334 184.267 320.175 181.291 320.631 177.765C334.26 174.807 344.6 165.355 346.71 161.787C348.258 159.169 349.07 156.171 349.468 153.106C349.492 153.613 349.507 154.119 349.511 154.624C349.591 158.461 349.018 162.254 347.689 165.722C347.523 166.155 347.312 166.566 347.128 166.991C346.941 167.414 346.752 167.836 346.506 168.228L345.824 169.43C345.571 169.806 345.298 170.163 345.039 170.533C344.796 170.91 344.492 171.254 344.182 171.596C343.871 171.937 343.59 172.298 343.257 172.625C342.568 173.264 341.932 173.945 341.171 174.529C338.248 176.965 334.873 178.992 331.364 180.779C327.849 182.563 324.177 184.11 320.446 185.52C319.66 185.815 318.87 186.105 318.078 186.39Z" fill="#B9AFBE"/>
<path d="M163.259 183.865C165.353 187.292 167.562 190.61 170.219 193.436C171.533 194.858 172.955 196.147 174.455 197.287C175.96 198.422 177.59 199.339 179.277 200.058C180.985 200.781 182.682 201.18 184.7 201.557L187.618 202.139L190.566 202.601C194.491 203.25 198.465 203.664 202.44 204.062C218.357 205.464 234.548 205.317 250.401 203.259C254.352 202.711 258.302 202.083 262.119 201.134L263.561 200.794L265.052 200.414L268.025 199.692L273.956 198.319C281.847 196.523 289.707 194.726 297.488 192.666C305.264 190.607 312.975 188.328 320.446 185.52C324.177 184.11 327.849 182.563 331.365 180.779C334.873 178.992 338.248 176.965 341.171 174.528C341.932 173.945 342.568 173.264 343.257 172.625C343.59 172.298 343.871 171.937 344.182 171.596C344.492 171.254 344.796 170.909 345.039 170.532C345.298 170.163 345.571 169.806 345.824 169.429L346.506 168.227C346.752 167.836 346.941 167.414 347.128 166.99C347.312 166.565 347.524 166.155 347.689 165.721C349.018 162.254 349.591 158.461 349.511 154.624C349.479 150.785 348.833 146.914 347.906 143.111C346.952 139.307 345.68 135.559 344.171 131.897C342.67 128.235 340.939 124.65 339.032 121.175C338.558 120.306 338.063 119.449 337.562 118.602L337.184 117.972L336.993 117.664L336.899 117.512L336.855 117.442C336.935 117.555 336.736 117.316 336.573 116.843C336.462 116.475 336.462 116.208 336.487 115.896C336.518 115.651 336.593 115.382 336.685 115.175C336.764 115.014 336.857 114.855 336.963 114.708C337.085 114.538 337.133 114.506 337.226 114.407C337.311 114.324 337.398 114.245 337.488 114.171C337.564 114.111 337.619 114.077 337.688 114.031C337.808 113.953 337.973 113.847 338.066 113.806C338.504 113.589 338.844 113.484 339.178 113.387C340.439 113.059 341.496 112.969 342.579 112.873C343.645 112.799 344.696 112.752 345.734 112.739C346.828 112.738 347.669 112.668 348.609 112.633C349.5 112.498 350.417 112.42 351.25 112.16C352.947 111.722 354.493 110.973 355.618 109.878C356.747 108.791 357.45 107.374 357.687 105.771C357.928 104.171 357.707 102.42 357.194 100.713C357.042 100.288 356.936 99.8545 356.757 99.4354L356.213 98.1766C356.022 97.7604 355.781 97.3719 355.568 96.9673L355.242 96.3649L354.858 95.7988C353.89 94.2475 352.617 92.9029 351.25 91.6703C348.477 89.2211 345.047 87.4865 341.428 86.3019C337.784 85.1566 333.939 84.5309 330.069 84.4189C329.422 84.3796 328.774 84.3883 328.125 84.397C327.805 84.4014 327.486 84.4058 327.166 84.4043C326.201 84.4625 325.231 84.4771 324.27 84.5891C322.341 84.7477 320.431 85.065 318.557 85.4855C316.678 85.8959 314.849 86.4736 313.107 87.1881C311.368 87.9041 309.708 88.7744 308.282 89.8483L307.267 90.6909C306.975 90.9994 306.658 91.2934 306.377 91.6062C306.138 91.938 305.841 92.2451 305.639 92.5871C305.448 92.9494 305.215 93.2245 305.045 93.6567C304.286 95.2487 303.859 96.9775 303.698 98.7762C303.382 102.394 304.204 106.198 305.137 110.101C305.598 112.065 306.102 114.069 306.415 116.226C306.71 118.359 306.879 120.753 306.041 123.22C305.669 124.316 304.481 124.902 303.386 124.529L303.3 124.499L303.255 124.481C301.838 123.924 300.252 123.394 298.718 122.91C297.171 122.416 295.601 121.974 294.029 121.545C290.878 120.704 287.69 119.978 284.483 119.36C281.274 118.745 278.042 118.22 274.795 117.863L269.925 117.329L265.034 117.013C258.508 116.7 251.961 116.807 245.443 117.344C238.928 117.913 232.452 118.924 226.056 120.309C213.272 123.105 200.781 127.385 188.99 133.124C177.191 138.871 165.989 145.63 154.682 152.467L154.66 152.48C154.325 152.682 153.89 152.576 153.688 152.242C153.52 151.966 153.564 151.623 153.771 151.396C156.073 148.884 158.605 146.684 161.237 144.596C162.547 143.544 163.906 142.558 165.263 141.569C166.644 140.617 168.019 139.652 169.436 138.756C175.068 135.102 181.021 131.963 187.114 129.156C199.299 123.552 212.016 119.021 225.16 116.19C231.726 114.768 238.381 113.729 245.082 113.144C251.788 112.591 258.527 112.48 265.25 112.803L270.287 113.129L275.306 113.679C278.652 114.047 281.972 114.587 285.277 115.22C288.582 115.856 291.865 116.604 295.122 117.473C296.749 117.918 298.372 118.375 299.984 118.889C301.612 119.406 303.175 119.922 304.846 120.577L302.059 121.839C302.551 120.446 302.512 118.666 302.242 116.823C301.976 114.974 301.5 113.045 301.035 111.073C300.109 107.138 299.122 102.909 299.498 98.4153C299.693 96.1873 300.246 93.9288 301.231 91.8638C301.436 91.353 301.81 90.8059 302.109 90.2834C302.43 89.761 302.83 89.3215 303.194 88.8428C303.586 88.4018 304.008 88.0016 304.418 87.5854C304.85 87.2085 305.296 86.852 305.736 86.4882C307.547 85.1261 309.505 84.1162 311.501 83.291C313.5 82.4717 315.546 81.8314 317.62 81.3759C319.691 80.9103 321.782 80.5668 323.886 80.3907C324.935 80.2714 325.99 80.2525 327.044 80.1899C327.371 80.1914 327.699 80.187 328.026 80.1826C328.752 80.1739 329.48 80.1637 330.208 80.2059C334.425 80.3311 338.639 81.0063 342.717 82.2884C346.771 83.6141 350.719 85.5859 354.03 88.5022C355.664 89.9677 357.194 91.599 358.38 93.482C359.59 95.3476 360.592 97.321 361.226 99.4893C361.874 101.643 362.213 103.996 361.855 106.403C361.517 108.798 360.348 111.2 358.547 112.908C356.757 114.64 354.52 115.666 352.321 116.238C351.214 116.566 350.105 116.674 348.998 116.83C347.916 116.882 346.739 116.955 345.809 116.954C344.826 116.965 343.853 117.01 342.902 117.076C341.972 117.151 341.007 117.263 340.31 117.447C340.156 117.491 340.014 117.544 339.998 117.552C339.974 117.559 340.041 117.536 340.052 117.52L340.093 117.485C340.137 117.454 340.179 117.418 340.217 117.378C340.268 117.325 340.258 117.328 340.352 117.214C340.423 117.121 340.485 117.016 340.528 116.908C340.6 116.76 340.662 116.553 340.675 116.37C340.703 116.12 340.691 115.919 340.604 115.609C340.454 115.2 340.3 115.009 340.41 115.177L340.467 115.267L340.573 115.437L340.78 115.775L341.185 116.446C341.713 117.341 342.229 118.236 342.724 119.141C344.709 122.76 346.503 126.472 348.071 130.297C349.644 134.115 350.983 138.049 351.997 142.093C352.984 146.143 353.686 150.307 353.726 154.567C353.813 158.813 353.187 163.169 351.611 167.264C351.416 167.775 351.169 168.268 350.948 168.77C350.726 169.272 350.498 169.771 350.21 170.241L349.391 171.675C349.082 172.139 348.746 172.592 348.421 173.048C348.107 173.52 347.746 173.935 347.378 174.345C347.01 174.753 346.661 175.188 346.273 175.57C345.485 176.311 344.727 177.104 343.883 177.758C340.582 180.502 336.966 182.653 333.272 184.538C329.572 186.415 325.774 188.013 321.936 189.462C314.258 192.349 306.428 194.659 298.564 196.743C290.698 198.824 282.78 200.632 274.894 202.428L268.999 203.793L266.077 204.503L264.627 204.872L263.117 205.231C259.079 206.232 255.023 206.872 250.963 207.437C242.838 208.494 234.687 209.064 226.528 209.263C218.368 209.466 210.19 209.317 202.035 208.568C197.956 208.198 193.884 207.703 189.834 206.976L186.802 206.417L183.783 205.733C181.833 205.34 179.592 204.706 177.616 203.747C173.587 201.874 170.328 198.816 167.792 195.461C165.241 192.08 163.381 188.324 161.987 184.463C161.854 184.097 162.045 183.692 162.412 183.561C162.732 183.445 163.083 183.576 163.253 183.855L163.259 183.865Z" fill="#371A45"/>
<path d="M174.157 234.417L248.218 211.583C251.645 210.719 254.054 207.648 254.078 204.113L128.317 203.173L128.319 235.571L161.476 235.923C165.75 235.968 170.012 235.462 174.157 234.417Z" fill="#008CFF"/>
<path d="M163.423 234.088C163.724 233.752 164.008 233.399 164.273 233.026C164.595 232.573 164.881 232.101 165.133 231.614C168.88 231.561 172.61 231.082 176.257 230.187L250.467 207.967C250.611 207.932 250.753 207.893 250.893 207.85C250.109 208.798 249.03 209.504 247.773 209.821L173.668 232.665C170.314 233.508 166.882 233.988 163.423 234.088Z" fill="#1364BE"/>
<path d="M130.138 233.771L161.495 234.104C165.606 234.154 169.691 233.663 173.668 232.665L247.773 209.821C249.786 209.313 251.34 207.81 251.963 205.916L130.136 205.005L130.138 233.771ZM174.157 234.417H174.164H174.157ZM162.004 237.745C161.821 237.745 161.639 237.744 161.457 237.742L126.5 237.371L126.498 201.341L255.909 202.307L255.898 204.127C255.868 208.472 252.916 212.251 248.712 213.335L174.602 236.181C170.484 237.22 166.249 237.745 162.004 237.745Z" fill="#371A45"/>
<path d="M172.079 226.688L253.683 204.205C253.736 204.192 253.728 204.112 253.672 204.112L128.317 202.543V227.954H160.935C164.685 227.954 168.423 227.529 172.079 226.688Z" fill="#008CFF"/>
<path d="M156.915 221.304L209.211 209.953C210.056 209.799 209.944 208.553 209.084 208.553L145.988 208.083V222.909L156.915 221.304Z" fill="#AFB2B1"/>
<path d="M208.825 208.175C208.805 208.179 208.786 208.184 208.767 208.188L208.825 208.175ZM209.068 210.372H209.084H209.068ZM147.807 209.917V220.803L156.591 219.514L199.046 210.298L147.807 209.917ZM156.917 221.304H156.923H156.917ZM144.169 225.015V206.251L209.097 206.734C210.4 206.734 211.479 207.722 211.599 209.032C211.717 210.342 210.83 211.507 209.537 211.743L157.18 223.104L144.169 225.015Z" fill="#371A45"/>
<path d="M253.638 205.931H253.661H253.638ZM130.136 226.136H160.935C164.529 226.136 168.128 225.728 171.632 224.925L241.137 205.774L130.136 204.386V226.136ZM172.077 226.689H172.085H172.077ZM160.935 229.774H126.498V200.702L255.305 202.313L255.526 203.956C255.627 204.876 255.04 205.726 254.153 205.962L172.486 228.463C168.703 229.333 164.817 229.774 160.935 229.774Z" fill="#371A45"/>
<path d="M304.951 120.624C306.4 121.212 307.657 121.864 308.932 122.603C310.2 123.326 311.413 124.132 312.602 124.971C314.977 126.654 317.166 128.593 319.224 130.646C321.293 132.686 323.156 134.937 324.825 137.302L326.033 139.105C326.407 139.725 326.763 140.357 327.111 140.987L327.636 141.93L328.098 142.909C328.409 143.557 328.696 144.215 328.985 144.866C329.052 145.019 328.984 145.198 328.831 145.265C328.703 145.322 328.557 145.283 328.473 145.179L328.461 145.165C326.676 142.964 324.912 140.827 322.901 138.916C320.933 136.978 318.876 135.156 316.699 133.487C314.539 131.8 312.285 130.25 310.013 128.74C309.433 128.382 308.87 127.999 308.298 127.626L306.57 126.538L303.149 124.435L303.054 124.377C302.062 123.766 301.752 122.466 302.362 121.474C302.909 120.583 304.013 120.242 304.951 120.624Z" fill="#371A45"/>
<path d="M329.838 105.038C331.095 105.598 332.174 106.346 333.203 107.145C334.24 107.938 335.151 108.848 336.062 109.769C336.961 110.701 337.823 111.673 338.626 112.706C339.413 113.752 340.169 114.844 340.767 116.06C341.212 116.964 340.84 118.057 339.937 118.502C339.114 118.907 338.131 118.633 337.628 117.897L337.615 117.876C336.279 115.926 334.926 113.869 333.558 111.78C332.884 110.728 332.166 109.701 331.548 108.58C330.918 107.467 330.312 106.326 329.838 105.038Z" fill="#371A45"/>
<path d="M233.334 82.2679C241.779 74.8419 281.3 71.8834 299.588 83.4103C316.386 93.9971 320.701 128.549 310.496 126.297C287.563 121.239 269.401 118.959 235.533 124.867C213.683 127.904 224.891 89.694 233.334 82.2679Z" fill="white"/>
<path d="M311.415 124.311C311.24 124.311 311.083 124.276 310.951 124.247C308.899 123.795 306.888 123.367 304.91 122.968C300.704 119.519 296.839 118.394 293.59 118.394C290.819 118.394 288.495 119.212 286.786 120.1C281.679 119.557 276.526 119.265 271.1 119.265C269.353 119.265 267.577 119.295 265.767 119.358L265.744 119.356C264.181 119.276 262.928 118.889 262.157 118.081C261.355 117.287 260.825 115.899 260.53 114.317C260.247 112.728 260.145 110.983 260.145 109.215C260.15 107.445 260.217 105.633 260.332 103.814L260.436 102.39C260.776 101.8 261.097 101.193 261.403 100.571C261.41 100.559 261.419 100.547 261.427 100.536C262.535 105.124 264.433 109.755 267.665 111.392C271.444 113.307 277.425 113.746 284.008 113.816C284.518 115.475 285.228 116.612 286.121 116.878C288.304 117.527 293.614 118.177 298.347 118.177C301.956 118.177 305.23 117.799 306.518 116.751C306.915 116.43 307.282 115.984 307.614 115.443C307.797 115.143 307.97 114.814 308.132 114.461C308.951 114.583 309.74 114.726 310.497 114.892C310.817 114.963 311.124 114.998 311.415 114.998C312.313 114.998 313.075 114.672 313.704 114.077C314.062 117.673 313.844 120.743 313.04 122.699C312.486 124.049 311.889 124.311 311.415 124.311ZM242.514 121.606C244.023 119.001 245.395 116.302 246.616 113.519C249.931 112.745 252.946 111.042 255.531 108.643C255.528 108.832 255.528 109.02 255.528 109.209C255.532 111.149 255.595 113.128 256.004 115.19C256.213 116.22 256.502 117.274 256.969 118.332C257.193 118.832 257.465 119.334 257.791 119.819C253.024 120.202 247.968 120.79 242.514 121.606Z" fill="#B9AFBE"/>
<path d="M233.334 82.2753H233.341H233.334ZM271.1 119.264C284.895 119.264 296.924 121.153 310.951 124.247C311.448 124.358 312.284 124.541 313.04 122.699C316.003 115.485 311.012 93.1081 298.465 85.2003C280.74 74.0285 242.189 77.294 234.727 83.8586C229.383 88.5575 221.855 109.21 226.215 118.726C227.752 122.08 230.697 123.409 235.207 122.792C249.254 120.343 260.681 119.264 271.1 119.264ZM311.4 128.515C310.959 128.515 310.507 128.464 310.043 128.363C285.433 122.935 268.062 121.338 235.895 126.95C235.871 126.954 235.847 126.958 235.823 126.961C227.686 128.092 224.024 124.062 222.384 120.481C217.402 109.61 225.015 86.785 231.943 80.692C241.465 72.3186 281.991 69.8345 300.713 81.6335C314.538 90.3475 320.92 114.608 316.939 124.301C315.826 127.011 313.81 128.515 311.4 128.515Z" fill="#371A45"/>
<path d="M286.062 93.0092C281.846 98.5274 282.279 115.733 286.123 116.876C289.966 118.02 303.542 119.17 306.516 116.753C309.492 114.334 310.812 105.022 307.957 100.141C305.074 95.2124 289.16 88.9505 286.062 93.0092Z" fill="white"/>
<path d="M284.008 113.816C282.929 110.3 282.75 104.44 283.62 99.581C283.62 99.5839 283.62 99.5869 283.621 99.5912C282.75 104.447 282.929 110.302 284.008 113.816Z" fill="#B9AFBE"/>
<path d="M298.347 118.177C293.614 118.177 288.304 117.527 286.121 116.878C285.228 116.611 284.518 115.475 284.008 113.816C284.519 115.473 285.228 116.61 286.123 116.876C288.304 117.525 293.617 118.176 298.351 118.176C301.96 118.176 305.23 117.797 306.517 116.753C306.914 116.43 307.282 115.984 307.614 115.443C307.282 115.984 306.915 116.43 306.518 116.751C305.23 117.799 301.956 118.177 298.347 118.177Z" fill="#8C7B94"/>
<path d="M298.351 118.176C293.617 118.176 288.304 117.526 286.123 116.876C285.228 116.61 284.519 115.474 284.008 113.816C282.929 110.302 282.75 104.447 283.621 99.5912C284.158 103.851 285.586 107.352 287.446 107.352C287.483 107.352 287.521 107.351 287.561 107.348C290.585 107.115 292.155 100.75 292.155 100.75C292.155 100.75 292.919 108.649 295.933 111.625C297.276 112.953 299.048 113.435 300.857 113.436C304.114 113.436 307.493 111.875 308.715 110.882C308.92 110.714 309.121 110.503 309.31 110.251C309.005 112.285 308.411 114.142 307.614 115.443C307.282 115.984 306.914 116.43 306.516 116.753C305.23 117.798 301.96 118.176 298.351 118.176Z" fill="#B9AFBE"/>
<path d="M286.062 93.009H286.069H286.062ZM289.831 93.1603C288.531 93.1603 287.577 93.4223 287.217 93.8923C284.324 97.6817 283.761 108.357 285.455 113.561C285.925 115.005 286.407 115.443 286.539 115.481C290.513 116.665 303.33 117.467 305.6 115.623C307.892 113.761 309.283 105.291 306.701 100.876C304.84 97.6948 296.05 93.5227 290.487 93.1807C290.26 93.1661 290.04 93.1603 289.831 93.1603ZM298.241 119.621C293.237 119.621 287.812 118.898 285.708 118.27C284.398 117.882 283.383 116.6 282.687 114.462C280.942 109.101 281.11 97.0938 284.905 92.1256C285.972 90.7286 287.914 90.1087 290.665 90.276C296.705 90.6471 306.649 95.0201 309.213 99.4062C312.473 104.98 310.959 115.018 307.435 117.882C305.844 119.174 302.173 119.621 298.241 119.621Z" fill="#371A45"/>
<path d="M292.725 98.6947C292.599 102.245 292.511 105.783 292.769 109.194C292.907 110.887 293.153 112.573 293.604 114.02C293.834 114.737 294.131 115.382 294.472 115.827C294.825 116.268 295.143 116.507 295.661 116.658L295.928 116.737C296.692 116.959 297.132 117.761 296.908 118.525C296.705 119.219 296.027 119.644 295.332 119.55C295.022 119.509 294.703 119.478 294.392 119.4C294.089 119.288 293.762 119.203 293.482 119.037C292.909 118.723 292.391 118.307 292.021 117.837C291.242 116.904 290.845 115.88 290.575 114.906C290.043 112.943 290.058 111.057 290.145 109.217C290.253 107.378 290.522 105.582 290.882 103.814C291.256 102.048 291.718 100.311 292.318 98.6117C292.357 98.5026 292.477 98.4444 292.586 98.4837C292.674 98.5142 292.73 98.5986 292.727 98.6888L292.725 98.6947Z" fill="#371A45"/>
<path d="M263.484 82.4035C262.654 85.9587 261.673 89.5211 261.218 92.9249C261.15 93.3513 261.129 93.7645 261.087 94.1822L260.966 95.5618L260.735 98.3238L260.332 103.814C260.217 105.633 260.15 107.445 260.145 109.215C260.145 110.983 260.247 112.728 260.53 114.317C260.825 115.899 261.355 117.287 262.157 118.082C262.928 118.889 264.181 119.276 265.744 119.356L265.819 119.361C266.982 119.419 267.876 120.408 267.817 121.571C267.761 122.686 266.842 123.553 265.744 123.571C264.661 123.587 263.513 123.517 262.346 123.168C261.185 122.83 260.006 122.2 259.069 121.319C258.123 120.445 257.44 119.382 256.969 118.332C256.502 117.274 256.213 116.22 256.004 115.19C255.595 113.128 255.532 111.149 255.528 109.209C255.522 107.268 255.663 105.371 255.812 103.488C255.96 101.607 256.168 99.7441 256.388 97.8901L256.726 95.1165L256.899 93.7282C256.985 93.2261 257.056 92.7153 257.167 92.2307C257.564 90.2661 258.195 88.4326 258.929 86.6601C259.674 84.8862 260.511 83.1923 261.556 81.5537C261.871 81.0574 262.531 80.9119 263.027 81.2277C263.418 81.478 263.591 81.9393 263.492 82.3671L263.484 82.4035Z" fill="#371A45"/>
<path d="M316.767 188.131C309.765 195.282 301.365 192.362 301.365 192.362C301.365 192.362 304.664 181.94 304.916 169.063C304.986 165.59 304.833 161.933 304.332 158.256C301.228 135.479 283.598 122.31 283.598 122.31C283.598 122.31 293.051 112.879 305.296 123.291C314.395 131.032 320.212 151.163 320.961 167.287C321.404 176.676 320.117 184.706 316.767 188.131Z" fill="white"/>
<path d="M305.566 192.952C303.062 192.952 301.365 192.362 301.365 192.362C301.365 192.362 304.664 181.94 304.916 169.063C306.311 172.412 308.126 175.762 309.77 175.762C309.92 175.762 310.07 175.733 310.217 175.675C312.698 174.68 312.214 166.069 312.435 163.415C312.441 163.348 312.463 163.316 312.499 163.316C312.917 163.316 315.235 167.664 315.861 174.348C315.954 175.342 316.176 175.761 316.485 175.761C317.543 175.761 319.611 170.832 320.961 167.287C321.017 168.479 321.046 169.649 321.046 170.79C321.044 178.641 319.692 185.141 316.767 188.13C312.912 192.067 308.634 192.952 305.566 192.952Z" fill="#B9AFBE"/>
<path d="M304.008 190.767C306.554 191.061 311.159 190.843 315.261 186.653C317.94 183.918 319.286 176.74 318.863 167.456C318.176 152.396 312.708 132.363 303.93 124.899C296.282 118.396 289.995 120.571 286.984 122.389C291.925 126.781 303.855 139.141 306.419 157.971C308.333 172.018 305.381 185.552 304.008 190.767ZM305.598 195.068C302.798 195.068 300.851 194.416 300.675 194.355L298.74 193.684L299.357 191.729C299.408 191.565 304.504 175.141 302.242 158.538C299.303 136.953 282.502 124.123 282.332 123.995L280.386 122.536L282.108 120.817C282.215 120.709 293.092 110.149 306.662 121.687C316.451 130.011 322.328 150.916 323.074 167.264C323.358 173.486 323.112 184.661 318.272 189.603C313.916 194.052 309.094 195.068 305.598 195.068Z" fill="#371A45"/>
<path d="M146.799 169.025L142.99 158.346C143.137 158.397 143.284 158.448 143.431 158.499C145.714 159.282 148.036 159.968 150.374 160.55C149.513 163.048 148.351 165.943 146.799 169.025Z" fill="#9ABCDE"/>
<path d="M155.716 194.027L148.717 174.402C150.543 171.24 151.973 168.19 153.09 165.423C154.827 166.89 156.272 168.661 157.345 170.653L159.065 185.118C158.515 188.179 157.465 191.363 155.716 194.027Z" fill="#FEFADE"/>
<path d="M160.968 201.133L158.238 201.1L155.716 194.027C157.466 191.363 158.515 188.179 159.065 185.118L160.968 201.133Z" fill="#C6BAAA"/>
<path d="M148.716 174.402L146.798 169.025C148.351 165.943 149.512 163.048 150.374 160.549C151.054 160.718 151.736 160.88 152.417 161.031C152.082 161.97 151.714 162.986 151.326 164.105L151.38 164.141C151.976 164.537 152.547 164.965 153.089 165.423C151.973 168.189 150.543 171.24 148.716 174.402Z" fill="#5E4349"/>
<path d="M157.345 170.653C156.272 168.661 154.827 166.89 153.089 165.423C153.653 164.027 154.134 162.705 154.548 161.475C154.904 161.543 155.259 161.61 155.616 161.676H155.619C155.633 161.679 155.649 161.682 155.665 161.684C156.004 163.457 156.415 165.4 156.911 167.444C156.944 167.583 156.978 167.721 157.011 167.859L157.345 170.653Z" fill="#C6BAAA"/>
<path d="M153.09 165.423C152.547 164.964 151.976 164.537 151.38 164.141L151.326 164.104C151.714 162.985 152.083 161.97 152.417 161.031C152.582 161.067 152.748 161.104 152.912 161.139C153.456 161.257 154.002 161.369 154.548 161.475C154.134 162.704 153.653 164.027 153.09 165.423Z" fill="#5E4349"/>
<path d="M157.011 167.859C156.978 167.721 156.944 167.583 156.911 167.444C156.415 165.4 156.004 163.457 155.665 161.685C155.873 161.722 156.081 161.759 156.291 161.795L157.011 167.859Z" fill="#C6BAAA"/>
<path d="M161.593 206.381L160.118 206.37L159.542 204.754L161.402 204.777L161.593 206.381Z" fill="#329EDE"/>
<path d="M162.327 212.567L161.419 210.017L162.025 210.023L162.327 212.567Z" fill="#BEBDA0"/>
<path d="M162.025 210.023L161.419 210.017L160.118 206.37L161.593 206.38L162.025 210.023Z" fill="#5E4349"/>
<path d="M161.402 204.777L159.542 204.754L158.238 201.099L160.968 201.133L161.402 204.777Z" fill="#5E4349"/>
<path d="M96.6091 117.267L13.5485 116.73C30.4794 101.386 80.1751 56.3621 102.922 35.9699C99.0073 41.6482 95.8087 47.8199 93.4265 54.3393C90.0998 63.4375 88.4583 72.8514 88.4627 82.2013C88.4641 85.2049 88.6344 88.2012 88.9734 91.1786C89.5614 97.2862 90.8536 104.466 93.6186 110.351C94.5019 112.69 95.5002 114.998 96.6091 117.267Z" fill="#9ABCDE"/>
<path d="M102.792 123.633C109.831 134.843 119.749 144.344 131.978 150.958C134.473 152.305 137.054 153.534 139.729 154.629C141.028 155.168 142.359 155.669 143.709 156.15C147.785 157.578 151.899 158.656 156.026 159.401C159.583 160.053 163.149 160.45 166.696 160.618C170.979 160.822 175.24 160.675 179.439 160.206C180.972 160.03 182.494 159.814 184.006 159.558C211.69 154.839 236.151 135.912 246.371 107.937C261.435 66.7289 239.888 21.5046 198.257 6.92024C190.237 4.116 182.05 2.64037 173.96 2.40753C173.016 2.37115 172.066 2.36244 171.117 2.37263C168.579 2.38428 166.054 2.51378 163.551 2.76262C157.761 3.33743 152.077 4.53799 146.603 6.30757C141.129 8.07277 135.852 10.4143 130.885 13.2811C129.305 14.1906 127.755 15.1525 126.236 16.1726C123.96 17.7006 121.758 19.3378 119.638 21.103C109.061 29.8562 100.611 41.4035 95.596 55.1322C86.9287 78.8365 90.3805 103.867 102.792 123.633Z" fill="white"/>
<path d="M102.989 123.509C110.147 134.908 120.21 144.329 132.089 150.753C134.605 152.112 137.206 153.345 139.816 154.414C141.013 154.909 142.311 155.405 143.788 155.931C147.794 157.333 151.925 158.425 156.068 159.173C159.539 159.809 163.119 160.216 166.708 160.385C170.906 160.584 175.181 160.446 179.415 159.975C180.928 159.8 182.461 159.583 183.968 159.33C212.504 154.464 236.332 134.741 246.152 107.857C253.387 88.0656 252.431 66.7188 243.461 47.7454C234.418 28.6222 218.336 14.2008 198.181 7.13857C190.316 4.38962 182.165 2.87616 173.955 2.63896C173.063 2.60548 172.111 2.59529 171.12 2.60402C168.598 2.61566 166.06 2.74666 163.573 2.99403C157.858 3.56158 152.173 4.75197 146.675 6.53026C141.229 8.28383 135.956 10.6238 131.002 13.4819C129.408 14.4002 127.848 15.3694 126.366 16.3662C124.053 17.9189 121.84 19.5721 119.786 21.2805C108.93 30.2666 100.641 41.9987 95.8144 55.2123C87.4628 78.0551 90.0778 102.948 102.989 123.509ZM170.45 160.939C169.19 160.939 167.934 160.909 166.686 160.851C163.077 160.68 159.477 160.27 155.985 159.631C151.819 158.877 147.663 157.78 143.632 156.37C142.148 155.84 140.842 155.343 139.64 154.845C137.014 153.768 134.398 152.53 131.868 151.163C119.917 144.7 109.796 135.224 102.596 123.757C89.6078 103.072 86.9767 78.0303 95.3778 55.0522C100.232 41.7615 108.57 29.9595 119.49 20.924C121.555 19.2054 123.781 17.542 126.105 15.9791C127.6 14.9779 129.168 14.0014 130.769 13.0788C135.752 10.2047 141.055 7.85162 146.532 6.08641C152.061 4.29939 157.78 3.10172 163.528 2.53127C166.028 2.28242 168.581 2.15147 171.116 2.13983C172.112 2.12819 173.073 2.1398 173.971 2.17473C182.226 2.41194 190.424 3.93556 198.334 6.70052C218.609 13.8035 234.785 28.3093 243.882 47.5475C252.906 66.6329 253.867 88.1078 246.59 108.017C236.712 135.057 212.745 154.894 184.045 159.788C182.53 160.043 180.989 160.261 179.467 160.436C176.468 160.771 173.448 160.939 170.45 160.939Z" fill="#371A45"/>
<path d="M158.051 157.115C157.455 157.115 156.857 157.108 156.261 157.096C152.283 156.368 148.319 155.316 144.485 153.975C143.184 153.51 142.026 153.072 140.954 152.636L140.623 151.706C146.468 152.988 152.382 153.63 158.253 153.63C171.325 153.63 184.184 150.441 195.585 144.024C210.985 135.355 221.687 121.922 226.518 105.747C227.461 106.872 228.478 107.908 229.562 108.839C226.17 119.058 220.47 128.183 212.615 135.839C198.697 149.407 178.91 157.115 158.051 157.115ZM188.455 156.302C198.781 152.454 208.148 146.646 215.839 139.149C223.907 131.285 229.846 121.983 233.509 111.598C236.016 112.979 238.653 113.769 241.337 113.95C231.173 135.171 211.673 150.837 188.455 156.302ZM243.477 52.9798C242.686 52.8721 241.891 52.8183 241.092 52.8183C241.054 52.8183 241.018 52.8198 240.98 52.8198C240.759 50.3255 240.42 47.8516 239.963 45.4053C240.526 46.4662 241.066 47.5416 241.583 48.6345C242.261 50.0694 242.892 51.5188 243.477 52.9798Z" fill="#B9AFBE"/>
<path d="M104.309 122.681C111.324 133.853 121.187 143.087 132.83 149.383C135.298 150.715 137.847 151.924 140.409 152.974C141.583 153.46 142.858 153.946 144.31 154.464C148.231 155.836 152.283 156.906 156.345 157.639C159.752 158.263 163.262 158.663 166.78 158.829C170.9 159.024 175.091 158.889 179.242 158.426C180.725 158.256 182.229 158.042 183.709 157.793C211.692 153.022 235.06 133.681 244.689 107.323C251.779 87.926 250.842 67.0041 242.053 48.412C233.189 29.6671 217.426 15.5324 197.666 8.60986C189.952 5.9133 181.96 4.42896 173.91 4.19757C173.029 4.16409 172.101 4.15102 171.137 4.16266C168.653 4.1743 166.165 4.30235 163.727 4.54393C158.122 5.10127 152.547 6.26839 147.154 8.01176C141.812 9.73331 136.64 12.0282 131.781 14.8324C130.218 15.7318 128.688 16.6835 127.233 17.66C124.966 19.1821 122.796 20.8047 120.783 22.4797C110.137 31.2897 102.009 42.7933 97.2785 55.7478C89.0928 78.1337 91.6554 102.531 104.309 122.681ZM170.449 162.498C169.166 162.498 167.885 162.467 166.612 162.406C162.934 162.233 159.264 161.816 155.705 161.164C151.461 160.397 147.225 159.279 143.117 157.84C141.601 157.3 140.27 156.792 139.045 156.286C136.372 155.19 133.707 153.927 131.127 152.534C118.941 145.943 108.619 136.279 101.276 124.585C88.029 103.49 85.3455 77.9518 93.914 54.5181C98.8632 40.9685 107.365 28.9366 118.496 19.7235C120.599 17.9728 122.867 16.2775 125.238 14.6855C126.76 13.6639 128.359 12.67 129.991 11.7299C135.068 8.80049 140.473 6.40225 146.054 4.60358C151.687 2.78163 157.515 1.56215 163.374 0.980042C165.923 0.726837 168.525 0.592957 171.108 0.581314C172.12 0.569672 173.106 0.582764 174.03 0.617691C182.432 0.860718 190.787 2.412 198.848 5.22934C219.521 12.4706 236.013 27.2631 245.29 46.8811C254.493 66.3463 255.474 88.249 248.052 108.551C237.984 136.116 213.558 156.337 184.307 161.325C182.762 161.584 181.195 161.807 179.645 161.984C176.584 162.326 173.507 162.498 170.449 162.498Z" fill="#371A45"/>
<path d="M104.748 122.405C111.717 133.501 121.513 142.672 133.077 148.927C135.528 150.249 138.062 151.45 140.605 152.493C141.774 152.976 143.041 153.46 144.485 153.975C148.376 155.337 152.403 156.399 156.438 157.128C159.823 157.748 163.31 158.145 166.805 158.31C170.896 158.505 175.059 158.37 179.184 157.91C180.656 157.741 182.152 157.528 183.623 157.281C211.421 152.541 234.635 133.329 244.201 107.144C251.244 87.8794 250.314 67.1001 241.583 48.6347C232.778 30.0164 217.122 15.9762 197.493 9.10027C189.832 6.42262 181.892 4.94704 173.895 4.71565C173.018 4.68217 172.099 4.67198 171.143 4.68217C168.672 4.69382 166.2 4.82042 163.778 5.06053C158.211 5.61497 152.671 6.77336 147.314 8.50655C142.005 10.2164 136.868 12.4968 132.04 15.2821C130.487 16.1756 128.968 17.1215 127.523 18.0907C125.27 19.6042 123.115 21.2151 121.115 22.8784C110.539 31.6317 102.466 43.0582 97.7661 55.9254C89.6357 78.1599 92.1823 102.391 104.75 122.405H104.748ZM170.449 163.016C169.157 163.016 167.869 162.986 166.587 162.926C162.886 162.751 159.193 162.329 155.612 161.674C151.342 160.903 147.08 159.778 142.945 158.33C141.417 157.786 140.08 157.275 138.846 156.766C136.158 155.663 133.476 154.392 130.88 152.991C118.615 146.358 108.226 136.631 100.837 124.861C87.5037 103.629 84.8028 77.9256 93.4266 54.3392C98.4078 40.7036 106.962 28.5946 118.166 19.3233C120.28 17.5625 122.563 15.8569 124.947 14.2547C126.481 13.2259 128.09 12.2261 129.732 11.2788C134.841 8.33191 140.279 5.91911 145.895 4.1088C151.562 2.27666 157.426 1.0499 163.323 0.46344C165.889 0.208771 168.506 0.0734406 171.107 0.0617981C172.124 0.0501556 173.118 0.0632477 174.049 0.0996246C182.5 0.342651 190.908 1.90413 199.02 4.73894C219.825 12.0282 236.424 26.9153 245.759 46.6599C255.023 66.2517 256.011 88.2956 248.54 108.73C238.407 136.468 213.828 156.817 184.395 161.836C182.841 162.098 181.263 162.322 179.703 162.501C176.625 162.844 173.526 163.016 170.449 163.016Z" fill="#371A45"/>
<path d="M115.735 139.294C164.484 168.684 226.95 141.621 227.111 85.5947C227.222 47.4777 189.502 18.2042 152.414 20.6999C125.42 22.516 99.7872 35.9421 90.8972 78.0551C90.8972 78.0551 89.8741 97.2787 95.8479 109.658C101.82 122.038 109.753 133.067 109.753 133.067L115.735 139.294Z" fill="#371A45"/>
<path d="M227.11 85.5961C226.948 141.621 164.481 168.681 115.735 139.296L114.523 138.033C166.642 143.878 216.308 110.163 217.537 53.5125C223.578 62.9119 227.141 73.8334 227.11 85.5961Z" fill="#220F2D"/>
<path d="M156.261 157.096C177.775 157.55 198.298 149.794 212.615 135.84C226.048 122.747 233.179 105.36 233.238 85.5569C233.291 67.4887 225.424 50.1322 211.085 36.6872C195.038 21.6387 172.852 13.5039 151.744 14.9242C140.062 15.71 129.695 18.4386 120.928 23.0342C110.446 31.7642 102.439 43.1325 97.7661 55.9255C89.6357 78.16 92.1823 102.391 104.75 122.405C111.717 133.501 121.513 142.672 133.077 148.927C135.528 150.249 138.062 151.45 140.605 152.493C141.774 152.977 143.041 153.46 144.485 153.975C148.319 155.317 152.284 156.369 156.261 157.096ZM157.997 161.734C157.323 161.734 156.651 161.727 155.975 161.711L155.616 161.676C151.342 160.903 147.08 159.778 142.945 158.33C141.417 157.786 140.08 157.275 138.846 156.766C136.158 155.663 133.476 154.392 130.88 152.991C118.615 146.358 108.226 136.631 100.837 124.861C87.5037 103.63 84.8028 77.9257 93.4265 54.3392C98.4078 40.7037 106.962 28.5947 118.166 19.3234L118.347 19.172L118.557 19.0614C127.948 14.0932 139.007 11.1508 151.432 10.314C173.801 8.8093 197.281 17.4083 214.246 33.3169C229.53 47.6495 237.915 66.2067 237.859 85.5715C237.796 106.642 230.182 125.168 215.839 139.149C201.051 153.563 180.065 161.734 157.997 161.734Z" fill="#371A45"/>
<path d="M117.187 137.472C141.309 151.894 170.453 152.869 193.319 139.997C213.259 128.773 224.734 108.943 224.802 85.5889C224.847 69.5842 217.877 54.2097 205.172 42.2971C190.946 28.957 171.278 21.7463 152.569 23.0051C120.526 25.1617 100.551 43.7814 93.1964 78.3491C93.1193 80.2584 92.5779 97.5655 97.9274 108.654C103.396 119.989 110.639 130.323 111.537 131.59L117.187 137.472ZM158.253 153.63C143.353 153.63 128.174 149.491 114.542 141.272L114.281 141.115L107.878 134.416C107.549 133.959 99.758 123.08 93.7668 110.663C87.6068 97.8944 88.5484 78.742 88.5906 77.9329L88.6371 77.5778C96.4386 40.6236 117.844 20.7102 152.259 18.3949C172.224 17.0503 193.188 24.7266 208.332 38.9268C221.982 51.7256 229.472 68.3022 229.422 85.602C229.35 110.667 217.017 131.96 195.585 144.024C184.184 150.441 171.325 153.63 158.253 153.63Z" fill="#371A45"/>
<path d="M262.407 79.8903C264.265 95.3813 256.551 109.515 245.174 111.456C233.797 113.399 223.067 102.413 221.209 86.922C221.196 86.826 221.187 86.7227 221.179 86.6237C219.45 71.2506 227.145 57.2832 238.442 55.355C247.232 53.8547 255.633 60.07 259.859 70.1141C261.102 73.0726 261.983 76.3672 262.407 79.8903Z" fill="white"/>
<path d="M242.557 109.367C239.494 109.367 236.456 108.295 233.66 106.208C228.65 102.468 225.009 95.8524 223.74 88.291C224.283 88.4889 224.865 88.6068 225.482 88.6068C226.067 88.6068 226.684 88.5006 227.328 88.2561C228.599 87.773 230.073 86.5229 231.537 84.9774C231.585 88.8396 232.385 92.5825 233.795 95.8772C233.851 96.0285 233.909 96.1813 233.967 96.3327C235.702 100.822 238.55 103.99 241.871 105.608C242.643 106.065 243.449 106.452 244.288 106.764C245.853 107.344 247.437 107.634 249.01 107.634C249.068 107.634 249.128 107.633 249.187 107.633C247.809 108.386 246.335 108.913 244.785 109.178C244.043 109.305 243.3 109.367 242.557 109.367Z" fill="#B9AFBE"/>
<path d="M241.06 57.4432C240.318 57.4432 239.576 57.5058 238.833 57.6324C228.67 59.367 221.793 72.3827 223.504 86.6454C224.492 94.8864 228.289 102.199 233.66 106.208C237.132 108.8 240.981 109.827 244.785 109.178C254.949 107.444 261.826 94.428 260.115 80.1638C259.127 71.9242 255.33 64.6102 249.959 60.6025C247.162 58.5157 244.125 57.4432 241.06 57.4432ZM242.527 113.991C238.478 113.991 234.509 112.607 230.897 109.91C224.435 105.089 220.07 96.8088 218.916 87.1955C216.916 70.5258 225.502 55.2211 238.056 53.0775C243.138 52.2102 248.21 53.5315 252.722 56.8989C259.182 61.7216 263.549 70.0004 264.702 79.6137C266.701 96.2834 258.115 111.59 245.562 113.732C244.55 113.905 243.535 113.991 242.527 113.991Z" fill="#371A45"/>
<path d="M265.163 91.0095C262.74 102.947 253.432 109.898 244.372 106.537C235.312 103.175 229.93 90.7709 232.353 78.8336C234.776 66.8963 244.084 59.9432 253.144 63.3062C262.205 66.6678 267.586 79.0708 265.163 91.0095Z" fill="white"/>
<path d="M248.508 62.6937C246.332 62.6937 244.177 63.2671 242.127 64.408C237.399 67.0376 233.924 72.3128 232.589 78.8818C230.194 90.6895 235.517 102.994 244.457 106.311C248.128 107.674 251.91 107.369 255.391 105.434C260.118 102.804 263.594 97.5291 264.927 90.9617C267.323 79.1539 261.999 66.8499 253.06 63.5319C251.552 62.9731 250.026 62.6937 248.508 62.6937ZM249.01 107.634C247.437 107.634 245.854 107.345 244.288 106.764C235.136 103.368 229.676 90.8161 232.116 78.7857C233.478 72.0785 237.041 66.684 241.891 63.986C245.5 61.9806 249.419 61.6663 253.229 63.0794C262.381 66.4759 267.841 79.0258 265.4 91.0562C264.04 97.7634 260.476 103.158 255.625 105.856C253.499 107.039 251.266 107.634 249.01 107.634Z" fill="#371A45"/>
<path d="M241.871 105.609C238.55 103.99 235.702 100.822 233.967 96.333C233.909 96.1816 233.851 96.0288 233.795 95.8775C235.594 100.076 238.385 103.547 241.871 105.609Z" fill="#8C7B94"/>
<path d="M247.152 106.843C246.769 106.843 246.389 106.824 246.011 106.787C245.491 106.661 244.973 106.502 244.456 106.311C238.168 103.977 233.67 97.1987 232.388 89.2735C232.243 87.4224 232.286 85.5539 232.507 83.7131C235.271 89.3725 239.963 92.4954 244.932 92.4954C247.645 92.4954 250.439 91.5655 253.05 89.6097C257.83 86.0327 260.887 79.8407 261.673 73.2645C261.947 73.8145 262.197 74.3981 262.43 74.9991C266.334 85.1013 263.129 98.066 255.266 103.957C252.657 105.913 249.863 106.843 247.152 106.843Z" fill="#B9AFBE"/>
<path d="M246.011 106.787C244.583 106.649 243.189 106.25 241.871 105.608C238.385 103.546 235.594 100.076 233.795 95.8772C233.029 93.7627 232.567 91.5319 232.388 89.2734C233.67 97.1986 238.168 103.977 244.456 106.311C244.973 106.502 245.491 106.661 246.011 106.787Z" fill="#371A45"/>
<path d="M248.022 63.5915C247.523 63.5915 247.025 63.6351 246.53 63.7239C239.267 65.022 234.232 75.6074 235.534 86.8403C236.338 93.7716 239.343 99.7861 243.573 102.931C245.941 104.69 248.517 105.383 251.022 104.936C258.286 103.638 263.321 93.0513 262.018 81.8198C261.215 74.8885 258.21 68.8726 253.979 65.7278C252.08 64.3162 250.046 63.5915 248.022 63.5915ZM249.5 109.692C246.494 109.692 243.531 108.657 240.817 106.639C235.582 102.748 231.893 95.5456 230.945 87.373C229.318 73.3329 235.805 60.9473 245.717 59.1749C249.51 58.4982 253.32 59.4819 256.736 62.0198C261.969 65.9111 265.659 73.1131 266.608 81.2872C268.235 95.3273 261.746 107.713 251.836 109.484C251.056 109.623 250.277 109.692 249.5 109.692Z" fill="#371A45"/>
<path d="M116.402 115.006C107.467 108.068 102.087 99.7904 101.015 87.7629C100.912 86.5769 100.851 85.3487 100.829 84.087C100.822 83.7959 100.823 83.5078 100.828 83.2182L100.831 83.2007C100.967 80.6395 101.274 77.2823 101.942 73.5205C103.948 62.1726 109.194 47.1516 122.781 39.2468C133.972 32.7346 145.275 30.789 154.321 30.789C165.807 30.789 173.659 33.925 173.051 34.8258C173.051 34.8258 138.13 39.3909 120.082 60.6053C120.062 60.6271 120.043 60.649 120.024 60.6722C116.23 65.1398 113.721 70.5329 112.721 76.2665C111.4 83.8483 111.612 89.256 111.985 94.0088C113.126 108.462 116.402 115.006 116.402 115.006Z" fill="#9B8DA2"/>
<path d="M199.542 81.4761C194.897 81.4761 190.325 78.132 188.458 72.9222C186.164 66.5177 188.829 59.7174 194.41 57.7354C195.452 57.3657 196.521 57.1896 197.586 57.1896C202.232 57.1896 206.804 60.5338 208.67 65.7435C210.964 72.148 208.3 78.9469 202.719 80.9289C201.677 81.3 200.608 81.4761 199.542 81.4761Z" fill="#9B8DA2"/>
<path d="M206.399 94.863C205.826 94.3595 205.337 93.7149 204.989 92.9538C203.818 90.3998 204.675 87.5126 206.903 86.5042C207.425 86.2684 207.975 86.1564 208.528 86.1564C209.205 86.1564 209.884 86.3237 210.516 86.6366C209.286 89.483 207.913 92.2232 206.399 94.863Z" fill="#9B8DA2"/>
<path d="M209.516 96.1042C208.412 96.1042 207.3 95.6575 206.399 94.8629C207.913 92.2231 209.286 89.4829 210.516 86.6365C211.571 87.1574 212.497 88.083 213.057 89.3068C214.227 91.8622 213.371 94.7494 211.143 95.7564C210.621 95.9922 210.069 96.1042 209.516 96.1042Z" fill="#918796"/>
<path d="M154.568 235.894L45.6787 235.136C41.5983 235.104 37.9742 232.528 36.6014 228.688L34.6507 223.21L2.78031 133.856C0.157395 126.504 5.63839 118.785 13.4414 118.838L119.05 119.519C119.638 119.525 120.216 119.571 120.785 119.664C124.781 120.313 128.179 123.087 129.57 126.984L163.783 222.925C166.049 229.27 161.315 235.941 154.568 235.894Z" fill="#008CFF"/>
<path d="M153.194 233.776L45.6946 233.028C44.4213 233.019 43.2004 232.689 42.125 232.104L39.0334 223.433C41.6258 223.538 44.6178 223.611 47.9008 223.611C70.5966 223.611 107.091 220.086 119.935 198.764C132.006 178.714 126.82 145.078 122.24 125.532L124.469 125.547C124.472 125.554 124.475 125.561 124.477 125.569L158.689 221.509C160.507 226.603 157.816 231.906 153.194 233.776Z" fill="#1364BE"/>
<path d="M39.0336 223.433C38.2997 223.404 37.5996 223.372 36.9327 223.339L4.76383 133.15C3.74852 130.304 4.16952 127.257 5.9193 124.791C7.65699 122.344 10.3685 120.944 13.3672 120.944C13.3874 120.944 13.4084 120.944 13.4289 120.944L119.037 121.626C119.836 121.631 120.62 121.741 121.37 121.946C121.654 123.077 121.946 124.278 122.24 125.532L13.2947 124.826C13.2807 124.826 13.266 124.826 13.2521 124.826C8.68206 124.826 5.47749 129.358 7.01931 133.668L39.0336 223.433ZM126.485 125.56L124.47 125.547C124.062 124.413 123.484 123.374 122.771 122.456C124.256 123.137 125.545 124.208 126.485 125.56Z" fill="#66BAFF"/>
<path d="M42.125 232.104C40.5135 231.226 39.2291 229.777 38.5878 227.979L36.9326 223.339C37.5996 223.372 38.2997 223.404 39.0335 223.433L42.125 232.104ZM124.47 125.547L122.24 125.532C121.946 124.278 121.654 123.077 121.37 121.947C121.852 122.079 122.32 122.249 122.771 122.456C123.484 123.374 124.062 124.413 124.47 125.547Z" fill="#71A2D8"/>
<path d="M154.586 233.786C154.604 233.786 154.623 233.786 154.641 233.786C157.135 233.786 159.391 232.621 160.836 230.586C162.292 228.535 162.643 226 161.799 223.63L127.584 127.693C126.299 124.089 122.863 121.651 119.037 121.626L13.4288 120.944C13.4083 120.944 13.3873 120.944 13.3671 120.944C10.3684 120.944 7.65688 122.344 5.91918 124.791C4.16941 127.257 3.7484 130.304 4.76372 133.15L38.5877 227.979C39.6569 230.976 42.5135 233.004 45.6947 233.027L154.586 233.786ZM154.638 238C154.612 238 154.584 238 154.556 238L45.6656 237.242C40.7191 237.207 36.2795 234.053 34.6179 229.395L0.793839 134.566C-0.690064 130.406 -0.0747869 125.954 2.48177 122.352C5.02145 118.774 8.98419 116.728 13.3656 116.728C13.3954 116.728 13.4256 116.728 13.4557 116.729L119.063 117.411C124.656 117.447 129.675 121.011 131.554 126.277L165.769 222.214C167.063 225.843 166.504 229.886 164.273 233.026C162.058 236.146 158.461 238 154.638 238Z" fill="#371A45"/>
<path d="M89.8975 175.483L86.0775 179.446C85.6977 179.836 85.4416 180.322 85.3222 180.838C85.2262 181.246 85.2218 181.679 85.3077 182.103L85.4794 182.934L86.4064 187.493C86.9012 189.906 84.4113 191.838 82.192 190.761L77.2428 188.356C76.3638 187.93 75.3321 187.962 74.4793 188.445L69.6901 191.154C67.5465 192.371 64.9417 190.598 65.2807 188.159L66.0418 182.71C66.1743 181.738 65.8236 180.765 65.1032 180.106L61.0431 176.392C59.3026 174.799 60.0332 171.958 62.2291 171.338C62.3266 171.312 62.4285 171.289 62.5303 171.27L67.9497 170.307C68.9101 170.134 69.7279 169.5 70.1325 168.611L71.9646 164.592L72.4129 163.604C73.4344 161.36 76.5836 161.261 77.7448 163.434L80.3337 168.291C80.7936 169.151 81.6507 169.732 82.6228 169.844L88.0901 170.462C90.5378 170.742 91.603 173.705 89.8975 175.483Z" fill="#FFDA22"/>
<path d="M85.3222 180.838C85.1388 180.731 84.9584 180.613 84.7779 180.496C84.4025 180.249 84.0168 179.983 83.816 179.584C83.5686 179.091 83.6559 178.478 83.9324 178.006C84.2118 177.529 84.6499 177.173 85.1155 176.874C85.8592 176.398 86.7891 175.915 86.904 175.035C86.9914 174.384 86.5519 173.756 85.9843 173.427C85.4168 173.098 84.7416 173.015 84.0896 172.97C83.5876 172.934 83.0826 172.916 82.5776 172.916C82.1542 172.916 81.7292 172.929 81.3057 172.954C80.9725 172.973 80.6349 173 80.3002 173C79.9902 173 79.6846 172.977 79.3863 172.903C78.0111 172.561 77.1103 171.235 76.6286 169.908C76.1426 168.578 75.9447 167.142 75.2971 165.884C75.1516 165.601 74.9711 165.315 74.7135 165.126C74.4618 164.949 74.1518 164.867 73.8491 164.802C73.2176 164.671 72.5918 164.607 71.9646 164.592L72.4128 163.604C72.9396 162.449 74.031 161.861 75.1239 161.861C76.1513 161.861 77.1816 162.38 77.7448 163.434L80.3337 168.291C80.7935 169.151 81.6506 169.732 82.6227 169.844L88.0901 170.463C89.7156 170.649 90.7313 172.018 90.7313 173.437C90.7313 174.154 90.4708 174.886 89.8975 175.483L86.0775 179.446C85.6976 179.836 85.4415 180.322 85.3222 180.838Z" fill="#FFF0A7"/>
<path d="M86.4064 187.493C86.9012 189.906 84.4127 191.838 82.192 190.761L77.2428 188.356C76.3638 187.93 75.3321 187.962 74.4793 188.445L69.6901 191.154C67.5465 192.371 64.9417 190.598 65.2807 188.159L66.0418 182.71C66.1743 181.738 65.8236 180.765 65.1032 180.106L61.0431 176.392C59.3026 174.799 60.0332 171.958 62.2291 171.338C62.267 171.446 62.3077 171.558 62.3674 171.683C62.7574 172.524 63.453 173.242 64.2111 173.761C65.6737 174.767 67.4447 175.384 68.5841 176.737C70.1907 178.65 70.0801 181.4 70.23 183.891C70.2606 184.326 70.3173 184.81 70.6447 185.102C70.9576 185.38 71.4262 185.4 71.8351 185.325C73.206 185.063 74.341 183.917 75.7366 183.875C77.6444 183.819 81.7424 188.061 83.2544 186.866C84.4593 185.913 82.55 182.686 85.4794 182.934L86.4064 187.493Z" fill="#FFAA00"/>
<path d="M75.1196 163.68H75.0832C74.8678 163.687 74.3367 163.767 74.0689 164.356L71.79 169.364C71.1366 170.8 69.8196 171.822 68.2669 172.098L62.849 173.06C62.2116 173.174 62.0021 173.668 61.9424 173.875C61.8828 174.083 61.794 174.611 62.2713 175.049L66.33 178.763C67.4942 179.828 68.0588 181.397 67.8419 182.96L67.0838 188.41C66.9935 189.052 67.3996 189.402 67.5771 189.523C67.7561 189.645 68.2319 189.891 68.7951 189.573L73.5828 186.86C74.9566 186.083 76.6228 186.031 78.0417 186.72L82.9895 189.126C83.573 189.41 84.0314 189.132 84.2017 188.999C84.372 188.867 84.7547 188.491 84.6252 187.857L83.525 182.465C83.2092 180.92 83.6735 179.319 84.7678 178.183L88.5849 174.22C89.0345 173.753 88.9137 173.23 88.841 173.027C88.7668 172.824 88.5281 172.344 87.8849 172.271L82.4176 171.651C80.8488 171.474 79.4707 170.537 78.7271 169.146L76.1382 164.291C75.8501 163.75 75.3539 163.68 75.1196 163.68ZM68.2247 193.366C67.2846 193.366 66.3489 193.087 65.5325 192.533C64.0132 191.499 63.2259 189.728 63.4806 187.908L64.2388 182.458C64.2912 182.083 64.1544 181.704 63.875 181.447L59.8149 177.733C58.46 176.492 57.9362 174.626 58.4484 172.861C58.9606 171.096 60.4042 169.8 62.2131 169.479L67.6295 168.515C68.0035 168.45 68.3222 168.204 68.4793 167.858L70.7582 162.849C71.5179 161.177 73.1317 160.101 74.9682 160.043C76.8164 159.98 78.4841 160.957 79.3485 162.578L81.9374 167.434C82.1164 167.769 82.4481 167.994 82.8265 168.037L88.2938 168.657C90.1201 168.863 91.6409 170.065 92.2637 171.794C92.8865 173.523 92.4805 175.42 91.2057 176.743L87.3887 180.706C87.1253 180.979 87.0132 181.365 87.0889 181.738L88.1905 187.129C88.5572 188.929 87.8834 190.747 86.4311 191.873C84.9803 193 83.0521 193.201 81.3989 192.397L76.4497 189.992C76.1091 189.826 75.7075 189.839 75.3757 190.027L70.5894 192.738C69.8487 193.158 69.0352 193.366 68.2247 193.366Z" fill="#371A45"/>
<path d="M320.778 136.166C320.19 136.166 319.637 135.808 319.417 135.225C319.132 134.475 319.509 133.635 320.261 133.35C320.899 133.108 336.008 127.462 347.168 131.173C347.932 131.426 348.344 132.25 348.091 133.012C347.838 133.776 347.013 134.186 346.252 133.935C336.081 130.556 321.44 136.016 321.293 136.071C321.123 136.135 320.949 136.166 320.778 136.166Z" fill="#371A45"/>
<path d="M266.163 145.657C266.163 145.657 300.642 182.492 278.071 201.541C259.095 217.557 238.772 196.121 238.772 196.121C238.772 196.121 236.485 203.2 229.517 206.296C220.966 210.097 210.88 203.2 210.88 203.2C210.88 203.2 207.175 213.126 199.599 210.167C191.499 207.005 197.324 178.155 213.664 161.835C232.567 142.951 260.486 159.401 260.486 159.401L266.163 145.657Z" fill="white"/>
<path d="M223.88 207.44C220.617 207.44 217.494 206.465 215.125 205.449H215.126C217.494 206.463 220.617 207.44 223.878 207.438C225.751 207.438 227.67 207.117 229.517 206.296C229.97 206.095 230.403 205.877 230.817 205.646H230.82C230.405 205.878 229.971 206.097 229.517 206.299C227.67 207.118 225.752 207.44 223.88 207.44ZM208.93 206.734H208.928C209.265 206.27 209.557 205.809 209.806 205.382H209.807C209.559 205.809 209.266 206.268 208.93 206.734Z" fill="#1364BE"/>
<path d="M203.687 210.578C205.99 210.086 207.735 208.38 208.928 206.734H208.93C207.737 208.382 205.992 210.087 203.687 210.578Z" fill="#371A45"/>
<path d="M230.82 205.646H230.817C232.001 204.982 233.029 204.205 233.916 203.387C233.03 204.205 232.003 204.982 230.82 205.646ZM215.126 205.449H215.125C212.558 204.348 210.881 203.201 210.881 203.201C210.881 203.201 210.525 204.154 209.807 205.382H209.806C210.523 204.154 210.88 203.199 210.88 203.199C210.88 203.199 212.558 204.348 215.126 205.449Z" fill="#371A45"/>
<path d="M262.727 207.482C260.506 207.482 258.355 207.161 256.312 206.625C258.355 207.161 260.506 207.482 262.725 207.482C267.048 207.482 271.629 206.26 276.175 203.016C271.63 206.26 267.048 207.482 262.727 207.482Z" fill="#677CBE"/>
<path d="M246.428 202.203C241.798 199.282 238.867 196.22 238.772 196.121C238.772 196.121 241.725 199.236 246.428 202.203Z" fill="#8C7B94"/>
<path d="M256.313 206.625C256.074 206.562 255.837 206.497 255.601 206.428C255.838 206.497 256.074 206.561 256.313 206.625Z" fill="#371A45"/>
<path d="M255.601 206.429C255.107 206.286 254.62 206.13 254.141 205.964C254.62 206.13 255.107 206.286 255.601 206.429Z" fill="#371A45"/>
<path d="M254.141 205.965C251.264 204.972 248.65 203.604 246.428 202.203C248.65 203.604 251.263 204.972 254.141 205.965Z" fill="#371A45"/>
<path d="M202.355 210.717C201.501 210.717 200.584 210.55 199.6 210.166C196.149 208.817 195.226 202.815 196.571 195.103C196.671 200.487 197.988 204.212 200.596 204.744C200.981 204.824 201.342 204.86 201.681 204.86C207.734 204.86 206.487 192.952 206.487 192.952C206.487 192.952 210.507 202.307 219.37 202.307C220.805 202.307 222.366 202.063 224.059 201.493C235.957 197.479 238.77 185.181 238.77 185.181C238.77 185.181 253.146 197.758 267.19 197.758C271.314 197.76 275.409 196.674 279.104 193.869C282.408 191.355 284.531 188.378 285.733 185.117C285.711 191.128 283.604 196.872 278.071 201.541C277.439 202.073 276.808 202.565 276.175 203.016C271.629 206.26 267.048 207.482 262.726 207.482C260.506 207.482 258.356 207.161 256.312 206.625C256.074 206.561 255.838 206.497 255.601 206.429C255.107 206.286 254.62 206.13 254.141 205.964C251.263 204.972 248.651 203.604 246.428 202.203C241.725 199.235 238.772 196.121 238.772 196.121C238.771 196.12 238.77 196.118 238.77 196.118C238.77 196.118 237.487 200.091 233.916 203.387C233.029 204.205 232.001 204.982 230.817 205.646C230.403 205.877 229.97 206.095 229.517 206.296C227.67 207.117 225.751 207.439 223.878 207.439C220.617 207.44 217.494 206.464 215.126 205.449C212.558 204.348 210.88 203.2 210.88 203.2C210.88 203.2 210.523 204.154 209.806 205.382C209.557 205.809 209.265 206.27 208.928 206.734C207.735 208.38 205.99 210.086 203.687 210.578C203.262 210.668 202.818 210.717 202.355 210.717Z" fill="#B9AFBE"/>
<path d="M266.676 145.176C268.568 146.546 270.232 148.11 271.808 149.769C273.389 151.422 274.846 153.187 276.214 155.024C278.922 158.713 281.345 162.648 283.276 166.867C283.786 167.907 284.193 169.003 284.65 170.07C285.039 171.173 285.485 172.247 285.81 173.377C286.561 175.594 287.089 177.91 287.459 180.261C287.828 182.615 287.904 185.047 287.721 187.477C287.499 189.915 286.863 192.33 285.918 194.622C285.356 195.727 284.852 196.869 284.12 197.87L283.607 198.643L283.349 199.029L283.054 199.384L281.863 200.791C281.485 201.282 281 201.653 280.57 202.083C280.121 202.494 279.693 202.938 279.223 203.313L277.806 204.423C277.337 204.797 276.809 205.104 276.313 205.446C274.286 206.759 272.071 207.843 269.718 208.561C267.366 209.274 264.897 209.607 262.452 209.581C257.539 209.527 252.825 208.045 248.64 205.886C246.539 204.802 244.539 203.558 242.648 202.177C241.7 201.488 240.782 200.761 239.884 200.007C238.977 199.234 238.142 198.49 237.243 197.571L240.778 196.769C240.612 197.251 240.476 197.572 240.31 197.949C240.15 198.311 239.984 198.666 239.803 199.011C239.453 199.71 239.053 200.375 238.631 201.028C237.781 202.329 236.786 203.547 235.648 204.639C234.511 205.727 233.237 206.692 231.848 207.479C231.134 207.837 230.453 208.232 229.661 208.488L228.506 208.906L227.317 209.178C224.117 209.879 220.915 209.472 217.978 208.686C216.513 208.262 215.087 207.75 213.716 207.129C213.034 206.813 212.358 206.485 211.695 206.129C211.02 205.756 210.408 205.417 209.689 204.94L212.855 203.937C212.555 204.697 212.274 205.26 211.936 205.892C211.605 206.504 211.241 207.101 210.838 207.682C210.028 208.837 209.071 209.947 207.849 210.88C206.636 211.804 205.113 212.548 203.452 212.747C202.632 212.861 201.795 212.843 201.002 212.714C200.19 212.596 199.477 212.379 198.718 212.078C197.844 211.691 197.038 211.123 196.466 210.448L196.036 209.94C195.901 209.77 195.806 209.591 195.693 209.415L195.37 208.881C195.274 208.702 195.204 208.523 195.121 208.344C194.485 206.907 194.171 205.483 194.027 204.109C193.72 201.35 193.92 198.709 194.273 196.12C195.024 190.951 196.549 186.016 198.515 181.278C200.503 176.551 202.939 172.005 205.928 167.805C207.418 165.705 209.036 163.687 210.794 161.782C212.52 159.88 214.554 158.076 216.714 156.548C221.048 153.431 226.259 151.59 231.493 150.946C234.118 150.618 236.758 150.603 239.369 150.757C241.975 150.946 244.573 151.258 247.102 151.856C249.631 152.453 252.091 153.298 254.422 154.408C256.742 155.552 258.952 156.895 260.842 158.796C261.125 159.08 261.123 159.54 260.839 159.822C260.658 160.001 260.406 160.066 260.173 160.017L260.129 160.005C255.222 158.905 250.704 157.355 246.054 156.259C243.739 155.704 241.406 155.202 239.046 155.017C236.691 154.796 234.325 154.846 232.008 155.129C227.379 155.707 222.901 157.288 219.131 160.001C215.355 162.638 212.163 166.346 209.368 170.24C206.577 174.16 204.277 178.449 202.406 182.9C200.553 187.354 199.124 192.019 198.445 196.716C198.123 199.054 197.963 201.426 198.213 203.622C198.321 204.725 198.586 205.756 198.956 206.596C199.338 207.444 199.827 207.968 200.332 208.184C202.099 208.898 203.771 208.709 205.296 207.526C206.059 206.948 206.76 206.158 207.376 205.278C207.683 204.835 207.968 204.367 208.23 203.885C208.483 203.421 208.749 202.862 208.905 202.463L208.911 202.45C209.339 201.357 210.57 200.819 211.663 201.247C211.805 201.303 211.946 201.379 212.07 201.461C212.521 201.763 213.138 202.114 213.694 202.418C214.27 202.728 214.86 203.013 215.454 203.288C216.647 203.83 217.874 204.265 219.109 204.624C221.579 205.286 224.133 205.579 226.454 205.052L227.322 204.86L228.148 204.553C228.704 204.388 229.245 204.065 229.788 203.803C230.847 203.198 231.831 202.456 232.724 201.602C233.618 200.747 234.415 199.774 235.104 198.722C235.443 198.192 235.772 197.652 236.051 197.092C236.197 196.815 236.329 196.532 236.453 196.252C236.573 195.986 236.701 195.656 236.767 195.472L236.773 195.456C237.161 194.346 238.376 193.762 239.485 194.152C239.801 194.263 240.082 194.448 240.302 194.672C240.971 195.354 241.805 196.11 242.607 196.788C243.425 197.476 244.266 198.141 245.132 198.771C246.86 200.033 248.68 201.164 250.564 202.134C254.324 204.079 258.415 205.324 262.497 205.365C264.533 205.387 266.557 205.113 268.5 204.525C270.44 203.932 272.289 203.029 274.021 201.909C274.446 201.613 274.896 201.362 275.302 201.033L276.533 200.069C276.937 199.746 277.284 199.374 277.665 199.029C278.023 198.666 278.448 198.358 278.749 197.951L279.73 196.791L279.976 196.501L280.182 196.187L280.597 195.557C281.203 194.748 281.59 193.819 282.055 192.933C282.809 191.079 283.337 189.125 283.524 187.089C283.663 185.053 283.633 182.973 283.278 180.9C282.6 176.751 281.124 172.667 279.2 168.792C277.31 164.895 275.092 161.123 272.736 157.415C270.384 153.704 267.94 150.015 265.65 146.137L265.64 146.119C265.439 145.779 265.553 145.341 265.893 145.14C266.145 144.992 266.452 145.015 266.676 145.176Z" fill="#371A45"/>
<path d="M206.68 191.76C207.414 193.778 208.186 195.68 209.109 197.373C209.56 198.227 210.103 198.984 210.586 199.73C211.081 200.479 211.629 201.113 212.11 201.859L212.236 202.057C212.783 202.904 212.539 204.035 211.692 204.582C211.047 204.997 210.24 204.954 209.65 204.54C208.63 203.822 207.811 202.849 207.223 201.795C206.634 200.74 206.255 199.602 206.018 198.473C205.781 197.339 205.679 196.203 205.692 195.081C205.723 193.954 205.839 192.85 206.161 191.76C206.203 191.616 206.354 191.534 206.497 191.576C206.583 191.601 206.645 191.665 206.674 191.742L206.68 191.76Z" fill="#371A45"/>
<path d="M239.466 184.637C239.998 185.521 240.383 186.492 240.669 187.483C240.935 188.476 241.133 189.494 241.223 190.513C241.313 191.532 241.363 192.559 241.256 193.569C241.146 194.59 240.976 195.555 240.535 196.573C240.13 197.505 239.047 197.932 238.115 197.527C237.418 197.224 237.003 196.542 237.009 195.826L237.01 195.67C237.017 194.82 237.185 193.892 237.349 193.013C237.512 192.121 237.749 191.236 237.947 190.338C238.152 189.439 238.333 188.535 238.505 187.608C238.685 186.681 238.806 185.747 238.959 184.749L238.96 184.737C238.983 184.587 239.123 184.485 239.273 184.507C239.356 184.52 239.426 184.57 239.466 184.637Z" fill="#371A45"/>
<path d="M269.399 208.271C269.084 208.271 268.763 208.188 268.471 208.015C267.608 207.501 267.324 206.385 267.838 205.522C279.135 186.534 251.071 157.234 250.785 156.94C250.085 156.219 250.103 155.068 250.825 154.368C251.545 153.669 252.696 153.687 253.396 154.407C254.639 155.686 283.681 186.006 270.965 207.382C270.625 207.954 270.019 208.271 269.399 208.271Z" fill="#371A45"/>
</svg>
