<svg width="251" height="342" viewBox="0 0 251 342" fill="none" xmlns="http://www.w3.org/2000/svg">
<path d="M98.0276 342C46.0422 342 3.89893 336.662 3.89893 330.078C3.89893 326.572 15.8456 323.421 34.8622 321.24C35.5399 323.345 37.0431 325.578 40.072 327.449C46.4781 331.405 58.8344 332.991 69.3968 332.991C77.5779 332.991 84.6818 332.039 87.1119 330.502C90.4202 328.407 93.4304 323.794 95.2693 320.524C97.1094 323.794 100.12 328.409 103.428 330.502C105.858 332.04 112.961 332.992 121.142 332.992C131.702 332.991 144.058 331.405 150.46 327.449C153.766 325.409 155.255 322.937 155.838 320.67C177.942 322.851 192.155 326.254 192.155 330.078C192.155 336.662 150.013 342 98.0276 342Z" fill="#72BA5E"/>
<path d="M99.6421 183.108C97.2433 182.989 95.2278 184.889 95.234 187.29C95.3167 215.246 96.4278 230.602 104.174 233.743C112.274 237.026 156.861 235.93 156.861 235.93C156.861 235.93 174.311 236.144 178.198 222.442C178.362 221.862 178.418 221.249 178.323 220.652C176.307 207.967 166.403 204.36 158.039 202.434C151.011 200.806 129.285 202.897 121.828 203.688C120.266 203.853 118.748 203.133 117.892 201.815C115.461 198.069 110.431 190.391 107.675 186.663C105.718 184.012 102.372 183.243 99.6421 183.108Z" fill="white"/>
<path d="M160.958 163.671V254.214C160.958 263.166 153.703 270.421 144.758 270.421H44.8208C35.8693 270.421 28.6139 263.166 28.6139 254.214V163.671C28.6139 161.907 28.8932 160.203 29.4244 158.616C31.5439 152.138 37.6343 147.471 44.8208 147.471H144.758C153.703 147.471 160.958 154.719 160.958 163.671Z" fill="white"/>
<path d="M44.817 149.512C37.0092 149.512 30.6582 155.864 30.6582 163.672V254.216C30.6582 262.024 37.0092 268.376 44.817 268.376H144.757C152.565 268.376 158.917 262.024 158.917 254.216V163.672C158.917 155.864 152.565 149.512 144.757 149.512H44.817ZM144.757 272.463H44.817C34.7556 272.463 26.5695 264.278 26.5695 254.216V163.672C26.5695 153.611 34.7556 145.426 44.817 145.426H144.757C154.818 145.426 163.004 153.611 163.004 163.672V254.216C163.004 264.278 154.818 272.463 144.757 272.463Z" fill="black"/>
<path d="M144.757 268.376H144.738C147.638 265.035 154.325 255.803 158.577 237.905C158.685 237.896 158.799 237.887 158.917 237.879V254.216C158.917 262.024 152.565 268.376 144.757 268.376ZM45.7942 268.376H44.8171C37.0093 268.376 30.6583 262.024 30.6583 254.216V237.826C31.1092 237.874 31.5464 237.909 31.9686 237.933C36.2163 255.816 42.8968 265.036 45.7942 268.376Z" fill="#CCCCCC"/>
<path d="M144.758 270.421H143.564L143.812 269.389C144.048 269.147 144.361 268.812 144.738 268.376H144.757C152.565 268.376 158.917 262.024 158.917 254.216V237.879C159.503 237.83 160.192 237.757 160.958 237.647V254.214C160.958 263.166 153.703 270.421 144.758 270.421ZM46.9691 270.421H44.8208C35.8693 270.421 28.6139 263.166 28.6139 254.214V237.54C29.3179 237.663 30.0018 237.757 30.6582 237.826V254.216C30.6582 262.024 37.0092 268.376 44.8171 268.376H45.7941C46.1712 268.812 46.4856 269.147 46.7199 269.389L46.9691 270.421ZM28.6139 177.242V163.671C28.6139 161.907 28.8932 160.204 29.4244 158.616C29.6148 164.288 29.8528 169.959 30.1384 175.628C29.616 176.166 29.1087 176.705 28.6139 177.242Z" fill="black"/>
<path d="M178.514 221.481C175.843 235.058 156.931 235.931 156.931 235.931C151.645 259.582 141.958 268.343 141.958 268.343L134.907 297.684C151.645 305.566 160.018 319.144 149.384 325.71C138.757 332.278 109.362 331.842 104.518 328.775C101.732 327.012 99.0949 323.081 97.3512 320.056C96.0634 317.822 95.2667 316.077 95.2667 316.077C95.2667 316.077 90.8586 325.71 86.0146 328.775C81.1718 331.842 51.7769 332.278 41.1418 325.71C30.5154 319.144 38.8807 305.566 55.6188 297.684L48.5675 268.343C48.5675 268.343 38.8807 259.582 33.6007 235.931C33.6007 235.931 15.3445 236.155 12.0199 221.481C8.96091 208.006 26.4205 158.596 85.8655 151.688C88.8894 151.335 92.0236 151.095 95.2667 150.973C162.279 153.473 181.321 207.236 178.514 221.481Z" fill="white"/>
<path d="M95.2693 314.034C96.0685 314.034 96.795 314.499 97.1282 315.226C98.2869 317.754 102.07 324.806 105.614 327.048C109.491 329.502 138.009 330.338 148.313 323.972C150.944 322.346 152.204 320.229 152.06 317.677C151.724 311.742 144.483 304.45 134.04 299.532C133.164 299.119 132.698 298.148 132.923 297.206L139.974 267.865C140.071 267.464 140.285 267.102 140.591 266.827C140.677 266.746 149.89 258.079 154.941 235.484C155.141 234.583 155.921 233.931 156.841 233.888C157.012 233.879 174.186 232.912 176.512 221.086C177.757 214.764 174.211 199.163 162.426 184.271C151.738 170.766 131.416 154.387 95.2693 153.019C58.4185 154.414 37.9137 171.326 27.1984 185.272C15.8581 200.034 12.6626 215.067 14.0154 221.028C16.9304 233.893 32.9068 233.9 33.582 233.885H33.6008C34.5578 233.885 35.3896 234.549 35.5988 235.484C40.6433 258.079 49.8553 266.748 49.9468 266.832C50.2461 267.107 50.4629 267.469 50.5581 267.865L57.6093 297.206C57.8348 298.148 57.3688 299.119 56.4919 299.532C46.0535 304.448 38.8131 311.741 38.4762 317.676C38.3308 320.229 39.591 322.346 42.2203 323.972C52.5272 330.337 81.0503 329.501 84.9261 327.048C88.4686 324.806 92.2529 317.754 93.4116 315.226C93.7448 314.499 94.4701 314.034 95.2693 314.034ZM121.142 332.992C112.961 332.992 105.858 332.04 103.428 330.502C100.12 328.409 97.1094 323.794 95.2693 320.524C93.4304 323.794 90.4202 328.407 87.112 330.502C81.5451 334.024 51.4412 334.469 40.072 327.449C35.0852 324.368 34.2321 320.308 34.395 317.445C34.8033 310.259 42.1464 302.175 53.2513 296.566L46.7199 269.39C44.6793 267.294 36.77 258.147 31.9686 237.933C24.732 237.517 12.729 233.847 10.0295 221.931C8.24318 214.066 12.5173 197.671 23.9578 182.782C35.2142 168.132 56.7099 150.365 95.1929 148.93C95.2442 148.927 95.2943 148.927 95.3457 148.93C133.095 150.338 154.402 167.547 165.631 181.735C177.488 196.716 182.153 213.597 180.522 221.875C178.024 234.577 163.47 237.284 158.594 237.836C153.79 258.116 145.857 267.29 143.812 269.39L137.281 296.566C148.388 302.177 155.734 310.261 156.141 317.447C156.303 320.309 155.448 324.369 150.46 327.449C144.058 331.405 131.702 332.991 121.142 332.992Z" fill="black"/>
<path d="M95.2692 318.121C94.1406 318.121 93.2261 317.205 93.2261 316.078V274.033C93.2261 272.905 94.1406 271.99 95.2692 271.99C96.3979 271.99 97.3136 272.905 97.3136 274.033V316.078C97.3136 317.205 96.3979 318.121 95.2692 318.121Z" fill="black"/>
<path d="M123.668 266.806C123.716 267.761 123.287 268.619 122.813 269.225C122.322 269.843 121.763 270.304 121.199 270.719C120.061 271.513 118.86 272.088 117.658 272.59C115.238 273.555 112.768 274.213 110.279 274.703C107.792 275.221 105.283 275.517 102.775 275.759C100.263 275.977 97.7481 276.054 95.2341 276.076C92.7212 276.044 90.2059 275.956 87.6968 275.727C85.1902 275.476 82.6824 275.168 80.2021 274.641C77.7168 274.141 75.2516 273.472 72.8427 272.5C71.6452 271.994 70.4539 271.415 69.329 270.623C68.7716 270.21 68.2229 269.753 67.7457 269.146C67.2834 268.55 66.8776 267.72 66.9277 266.806C66.954 266.333 67.3598 265.97 67.8333 265.996C68.2417 266.019 68.5674 266.322 68.6338 266.708L68.6501 266.806C68.7641 267.465 69.6121 268.128 70.5729 268.622C71.5613 269.108 72.6511 269.503 73.7822 269.809C76.0395 270.445 78.4096 270.843 80.7871 271.161C83.1709 271.451 85.571 271.693 87.9849 271.803C90.395 271.946 92.8152 272.009 95.2341 271.989C97.6542 271.999 100.073 271.925 102.482 271.772C104.893 271.652 107.292 271.399 109.672 271.098C112.045 270.77 114.41 270.363 116.656 269.718C117.781 269.41 118.863 269.01 119.836 268.528C120.79 268.039 121.594 267.375 121.691 266.806L121.712 266.689C121.804 266.151 122.314 265.792 122.851 265.883C123.315 265.963 123.647 266.356 123.668 266.806Z" fill="black"/>
<path d="M109.829 293.319C102.347 293.319 97.0493 291.452 95.1327 290.658C73.0057 297.057 51.5802 283.888 50.6695 283.319C49.7124 282.72 49.4218 281.459 50.0206 280.502C50.6194 279.545 51.8808 279.255 52.8366 279.853C53.1209 280.029 74.1331 292.874 94.6667 286.532C95.164 286.379 95.7001 286.42 96.1674 286.648C96.919 287.01 114.952 295.4 137.625 279.899C138.559 279.26 139.829 279.501 140.466 280.433C141.103 281.365 140.864 282.636 139.933 283.273C128.375 291.174 117.847 293.318 109.829 293.319Z" fill="black"/>
<path d="M121.066 328.872C113.612 328.872 107.295 328.113 105.614 327.048C102.242 324.914 98.6501 318.422 97.3135 315.623V291.45C99.1186 292.029 101.694 292.683 104.888 293.042C105.029 299.009 105.341 304.991 105.814 310.962C105.997 313.291 106.092 316.133 107.653 318.278C109.88 321.351 114.193 321.868 117.98 321.882C118.06 321.882 118.139 321.882 118.218 321.882C123.309 321.882 128.393 321.446 133.404 320.587C136.34 320.091 139.616 319.17 140.965 316.521C142.505 313.496 140.693 309.824 138.403 307.318C135.066 303.686 130.611 301.098 125.802 300.001C126.417 296.459 127.025 293.106 127.632 289.85C130.207 288.842 132.878 287.573 135.619 285.991L132.923 297.206C132.697 298.148 133.163 299.119 134.04 299.532C144.482 304.45 151.724 311.742 152.06 317.677C152.204 320.229 150.944 322.346 148.313 323.972C142.477 327.577 130.801 328.872 121.066 328.872ZM69.4756 328.872C59.7387 328.872 48.0577 327.576 42.2203 323.972C39.5909 322.346 38.3307 320.229 38.4761 317.676C38.813 311.741 46.0534 304.448 56.4918 299.532C57.3687 299.119 57.8347 298.148 57.6092 297.206L54.812 285.568C56.8263 286.556 59.4957 287.74 62.6461 288.842C63.3138 292.413 63.9865 296.092 64.6654 300.001C59.8552 301.098 55.4008 303.686 52.0624 307.318C49.7738 309.824 47.9612 313.496 49.5007 316.521C50.8498 319.17 54.1268 320.091 57.063 320.587C62.0737 321.446 67.157 321.882 72.2478 321.882C72.3267 321.882 72.4069 321.882 72.4858 321.882C76.2738 321.868 80.5855 321.351 82.8127 318.278C84.3736 316.133 84.4687 313.291 84.6529 310.962C85.1439 304.746 85.4634 298.516 85.5949 292.307C88.1002 292.144 90.6544 291.781 93.2261 291.163V315.623C91.8883 318.422 88.2981 324.914 84.926 327.048C83.2449 328.112 76.9302 328.872 69.4756 328.872Z" fill="#CDC6D0"/>
<path d="M120.847 330.924C113.142 330.924 106.531 330.092 104.451 328.776C100.941 326.555 97.6605 320.886 96.121 317.935C96.825 317.612 97.3135 316.902 97.3135 316.077V315.623C98.6501 318.422 102.241 324.914 105.614 327.048C107.295 328.113 113.612 328.872 121.066 328.872C130.801 328.872 142.477 327.577 148.313 323.972C150.944 322.346 152.204 320.229 152.06 317.677C151.724 311.742 144.482 304.45 134.04 299.532C133.163 299.119 132.697 298.148 132.923 297.206L135.619 285.991C136.408 285.535 137.204 285.053 138.006 284.543L134.848 297.684C151.586 305.566 159.952 319.144 149.324 325.71C143.256 329.457 131.084 330.924 120.847 330.924ZM69.6184 330.924C59.3817 330.924 47.2083 329.457 41.1417 325.71C30.5154 319.144 38.8806 305.566 55.6187 297.684L52.4069 284.322C53.0507 284.674 53.8574 285.099 54.812 285.567L57.6092 297.206C57.8347 298.148 57.3686 299.119 56.4918 299.532C46.0534 304.448 38.813 311.741 38.476 317.676C38.3307 320.229 39.5909 322.346 42.2202 323.972C48.0576 327.575 59.7387 328.872 69.4756 328.872C76.9302 328.872 83.2449 328.112 84.9259 327.048C88.2981 324.914 91.8882 318.422 93.2261 315.623V316.077C93.2261 316.879 93.687 317.572 94.3597 317.907C92.8265 320.851 89.537 326.547 86.0145 328.776C83.9351 330.093 77.326 330.924 69.6184 330.924Z" fill="#0E0711"/>
<path d="M96.121 317.935C95.6388 317.009 95.3269 316.352 95.2329 316.15C95.1402 316.349 94.8333 316.997 94.3598 317.908C93.6871 317.572 93.2261 316.879 93.2261 316.077V315.623V291.163C93.86 291.01 94.4963 290.843 95.1327 290.658C95.635 290.866 96.3691 291.148 97.3136 291.45V315.623V316.077C97.3136 316.902 96.825 317.612 96.121 317.935Z" fill="#0E0711"/>
<path d="M104.82 288.928C101.3 288.482 98.7078 287.657 97.3136 287.128V276.043C99.135 276.001 100.956 275.917 102.775 275.759C105.283 275.517 107.792 275.22 110.279 274.703C112.768 274.213 115.238 273.554 117.658 272.59C117.84 272.513 118.021 272.436 118.202 272.357C114.391 275.559 109.773 277.758 104.893 278.725C104.81 282.115 104.786 285.517 104.82 288.928ZM85.6538 288.185C85.6764 285.024 85.6513 281.868 85.5724 278.725C80.5768 277.736 75.8543 275.452 71.9923 272.125C72.2742 272.255 72.5585 272.379 72.8429 272.5C75.2517 273.472 77.717 274.141 80.2023 274.64C82.6825 275.168 85.1903 275.476 87.6969 275.726C89.5371 275.896 91.381 275.987 93.2262 276.037V286.945C90.687 287.62 88.1504 288.014 85.6538 288.185Z" fill="#CDC6D0"/>
<path d="M97.3136 287.128C96.6559 286.879 96.2651 286.696 96.1674 286.649C95.8843 286.511 95.5774 286.441 95.2692 286.441C95.0663 286.441 94.8634 286.471 94.6667 286.532C94.1869 286.68 93.7059 286.818 93.2261 286.946V276.037C93.8951 276.055 94.5652 276.067 95.2342 276.076C95.9269 276.07 96.6209 276.06 97.3136 276.044V287.128Z" fill="#0E0711"/>
<path d="M95.2342 276.076C94.5652 276.067 93.8951 276.055 93.2261 276.037C91.381 275.987 89.537 275.896 87.6969 275.727C85.1903 275.476 82.6825 275.168 80.2022 274.641C77.717 274.141 75.2517 273.472 72.8429 272.5C72.5585 272.38 72.2741 272.256 71.9923 272.125C70.4603 270.806 69.0636 269.322 67.8397 267.69C76.0409 272.106 85.3983 274.363 95.2329 275.119C105.068 274.363 114.426 272.106 122.626 267.69C121.33 269.418 119.84 270.98 118.202 272.357C118.021 272.436 117.84 272.514 117.658 272.59C115.238 273.555 112.768 274.213 110.279 274.703C107.792 275.221 105.283 275.517 102.775 275.759C100.956 275.917 99.1349 276.001 97.3136 276.044C96.6209 276.06 95.9269 276.07 95.2342 276.076Z" fill="#0E0711"/>
<path d="M128.537 285.035C128.874 283.256 129.211 281.495 129.548 279.734C130.454 274.993 131.393 270.162 133.771 265.966C136.285 261.538 140.216 258.132 143.54 254.276C144.155 253.56 144.754 252.812 145.319 252.036C142.645 252.302 139.699 252.49 136.731 252.49C133.056 252.49 129.347 252.2 126.086 251.405C126.72 250.038 127.073 248.516 127.073 246.913V245.792C130.112 246.388 133.434 246.617 136.742 246.617C140.846 246.617 144.93 246.265 148.425 245.826C149.933 245.636 151.346 245.099 152.581 244.264C147.463 260.364 140.666 266.758 140.59 266.826C140.285 267.102 140.071 267.464 139.974 267.865L136.978 280.336C134.075 282.269 131.254 283.813 128.537 285.035ZM61.7517 284.099C57.7344 282.544 54.8082 280.983 53.5367 280.263L50.5579 267.865C50.4627 267.469 50.246 267.107 49.9466 266.831C49.8677 266.759 42.9643 260.264 37.8371 243.89C39.1875 244.94 40.7872 245.609 42.5096 245.826C46.0045 246.265 50.0869 246.617 54.1919 246.617C56.3201 246.617 58.4547 246.522 60.5153 246.295V246.913C60.5153 248.749 60.98 250.481 61.7968 251.994C59.3578 252.351 56.7724 252.492 54.2019 252.492C51.0477 252.492 47.9173 252.279 45.1113 251.987C45.6863 252.78 46.2976 253.545 46.9264 254.276C50.2498 258.132 54.1806 261.538 56.6947 265.966C59.0723 270.162 60.013 274.993 60.9187 279.734C61.1955 281.186 61.4736 282.638 61.7517 284.099ZM116.909 263.514H70.6819C66.027 263.514 62.2214 259.556 62.2214 254.721V252.711C64.133 255.673 67.4613 257.638 71.2418 257.638H89.4844H116.348C120.128 257.638 123.459 255.672 125.369 252.708V254.721C125.369 259.556 121.557 263.514 116.909 263.514ZM15.0337 209.22C16.8526 202.331 20.6794 193.756 27.1983 185.272C32.7651 178.028 40.9725 169.983 52.7413 163.729C63.6983 171.168 76.3352 175.989 89.6434 177.668C93.1634 178.113 96.6884 178.332 100.206 178.332C115.176 178.332 129.944 174.35 142.922 166.753C151.512 172.184 157.851 178.491 162.426 184.271C169.31 192.971 173.384 201.914 175.333 209.106C174.059 207.65 172.617 206.428 171.073 205.396C170.934 204.795 170.777 204.201 170.605 203.62C166.688 190.24 156.524 178.836 143.683 173.407C143.37 173.502 143.071 173.605 142.764 173.706C131.338 179.389 118.626 182.386 105.87 182.565C104.166 181.692 102.104 181.183 99.7437 181.067C99.6472 181.062 99.5507 181.059 99.4555 181.059C98.2004 181.059 96.9652 181.436 95.9305 182.13C95.6975 182.107 95.4658 182.083 95.2328 182.056C95.0011 182.083 94.7681 182.108 94.5351 182.13C93.5016 181.436 92.2703 181.059 91.0114 181.059C90.9149 181.059 90.8184 181.062 90.722 181.067C88.3607 181.183 86.2988 181.692 84.594 182.565C71.8394 182.385 59.1261 179.389 47.7018 173.706C47.3962 173.605 47.0956 173.502 46.7824 173.407C33.9414 178.836 23.7773 190.24 19.8602 203.62C19.6898 204.201 19.532 204.793 19.393 205.395C17.8071 206.454 16.3302 207.713 15.0337 209.22Z" fill="#CDC6D0"/>
<path d="M136.978 280.336L139.974 267.865C140.07 267.464 140.285 267.102 140.59 266.826C140.665 266.758 147.462 260.364 152.581 244.264C153.451 243.675 154.233 242.938 154.894 242.071C155.158 241.728 155.397 241.367 155.611 240.994C150.189 260.844 141.898 268.343 141.898 268.343L139.197 279.585C139.06 279.556 138.918 279.541 138.777 279.541C138.379 279.541 137.979 279.657 137.625 279.899C137.409 280.047 137.192 280.192 136.978 280.336ZM53.5367 280.263C53.1058 280.018 52.8653 279.87 52.8364 279.853C52.4995 279.642 52.1249 279.542 51.7554 279.542C51.5926 279.542 51.4297 279.562 51.2719 279.6L48.5674 268.343C48.5674 268.343 39.443 260.093 34.0791 237.985C34.1104 237.985 34.1417 237.986 34.1731 237.988C34.4862 239.465 35.1188 240.868 36.0395 242.071C36.5681 242.764 37.1719 243.373 37.8371 243.89C42.9642 260.264 49.8676 266.759 49.9466 266.831C50.2459 267.107 50.4627 267.469 50.5579 267.865L53.5367 280.263ZM178.475 213.985C177.619 212.115 176.553 210.502 175.333 209.106C173.384 201.914 169.31 192.971 162.425 184.271C157.851 178.491 151.512 172.184 142.922 166.753C143.57 166.373 144.214 165.984 144.854 165.586C166.905 179.855 176.688 201.178 178.475 213.985ZM11.9922 213.98C13.9188 200.192 25.1126 176.536 50.8961 162.438C51.5049 162.877 52.1212 163.307 52.7412 163.729C40.9725 169.983 32.7651 178.028 27.1982 185.272C20.6794 193.756 16.8525 202.331 15.0336 209.22C13.8549 210.59 12.824 212.163 11.9922 213.98Z" fill="#0E0711"/>
<path d="M104.888 293.042C101.694 292.682 99.1187 292.029 97.3136 291.45C96.3691 291.148 95.635 290.866 95.1327 290.658C94.4964 290.842 93.86 291.01 93.2261 291.163C90.6544 291.781 88.1003 292.144 85.5949 292.307C85.6238 290.931 85.6425 289.558 85.6538 288.185C88.1504 288.014 90.687 287.62 93.2261 286.945C93.7059 286.818 94.1869 286.68 94.6667 286.532C94.8634 286.471 95.0663 286.44 95.2692 286.44C95.5774 286.44 95.8843 286.511 96.1674 286.648C96.2651 286.696 96.6559 286.879 97.3136 287.128C98.7078 287.657 101.3 288.482 104.82 288.928C104.833 290.299 104.856 291.67 104.888 293.042ZM127.632 289.85C127.934 288.224 128.236 286.623 128.537 285.035C131.254 283.812 134.075 282.269 136.978 280.336C137.192 280.192 137.409 280.047 137.625 279.899C137.979 279.657 138.38 279.541 138.777 279.541C138.918 279.541 139.06 279.556 139.198 279.585L138.006 284.543C137.205 285.053 136.408 285.535 135.619 285.991C132.878 287.573 130.207 288.842 127.632 289.85ZM62.6462 288.842C59.4958 287.739 56.8263 286.556 54.812 285.567C53.8575 285.099 53.0508 284.674 52.4069 284.322L51.272 279.6C51.4299 279.562 51.5927 279.542 51.7556 279.542C52.1251 279.542 52.4996 279.642 52.8366 279.853C52.8654 279.87 53.1059 280.018 53.5368 280.262C54.8083 280.983 57.7345 282.543 61.7518 284.099C62.0499 285.666 62.3481 287.243 62.6462 288.842Z" fill="#0E0711"/>
<path d="M68.3068 242.716C61.2042 245.703 50.2146 245.078 42.7212 244.136C38.2267 243.571 35.0725 239.264 35.7351 234.613C36.3389 230.369 39.9353 227.284 44.0616 227.484C51.0702 227.825 61.5825 227.985 68.2404 226.45L68.3068 242.716Z" fill="white"/>
<path d="M54.2634 243.22C50.3112 243.22 46.3353 242.873 42.9343 242.446C41.277 242.238 39.7901 241.37 38.7454 240.005C38.2907 239.408 37.9424 238.752 37.7082 238.058C40.801 238.111 45.2141 238.166 50.1634 238.166C53.4541 238.166 56.9816 238.141 60.5154 238.076V242.879C58.4999 243.12 56.3854 243.22 54.2634 243.22Z" fill="#CDC6D0"/>
<path d="M68.3069 242.716H68.3132H68.3069ZM43.6796 229.178C40.5517 229.178 37.8886 231.568 37.4213 234.853C37.157 236.71 37.6268 238.539 38.7454 240.004C39.7901 241.37 41.277 242.238 42.9343 242.446C50.5279 243.4 60.9789 243.949 67.6468 241.147C68.8618 240.636 69.6861 238.872 69.9091 236.308C70.2335 232.586 69.1349 228.952 68.3608 228.171C61.6202 229.66 51.4073 229.547 43.979 229.185C43.88 229.18 43.7786 229.178 43.6796 229.178ZM54.1919 246.617C50.087 246.617 46.0046 246.265 42.5096 245.826C39.9392 245.502 37.6405 244.169 36.0396 242.071C34.3861 239.907 33.6608 237.101 34.0492 234.374C34.7807 229.232 39.1224 225.53 44.1444 225.783C51.4549 226.139 61.5025 226.255 67.8585 224.792C68.7767 224.578 71.0678 224.562 72.4858 228.956C74.1368 234.069 73.8312 242.242 68.9671 244.286C64.8195 246.031 59.4869 246.617 54.1919 246.617Z" fill="black"/>
<path d="M122.627 242.716C129.729 245.703 140.719 245.078 148.212 244.136C152.706 243.571 155.86 239.264 155.199 234.613C154.595 230.369 150.998 227.284 146.871 227.484C139.863 227.825 129.35 227.985 122.694 226.45L122.627 242.716Z" fill="white"/>
<path d="M136.67 243.219C133.334 243.219 130.015 242.973 127.073 242.319V238.011C131.55 238.125 136.117 238.166 140.301 238.166C145.507 238.166 150.121 238.104 153.229 238.049C152.994 238.745 152.645 239.406 152.188 240.004C151.144 241.37 149.657 242.238 148 242.446C144.598 242.873 140.622 243.219 136.67 243.219Z" fill="#CDC6D0"/>
<path d="M123.287 241.147C129.955 243.949 140.406 243.399 148 242.446C149.657 242.238 151.144 241.37 152.188 240.004C153.306 238.539 153.777 236.71 153.513 234.853C153.031 231.464 150.23 229.034 146.954 229.185C139.527 229.547 129.314 229.66 122.573 228.171C121.799 228.952 120.699 232.586 121.024 236.309C121.247 238.872 122.072 240.636 123.287 241.147ZM136.742 246.617C131.446 246.617 126.116 246.031 121.967 244.286C117.102 242.242 116.797 234.069 118.448 228.956C119.866 224.56 122.158 224.578 123.076 224.792C129.432 226.255 139.479 226.139 146.789 225.783C151.824 225.529 156.154 229.232 156.885 234.374C157.273 237.101 156.548 239.907 154.895 242.071C153.292 244.169 150.995 245.502 148.425 245.826C144.93 246.265 140.846 246.617 136.742 246.617Z" fill="black"/>
<path d="M125.371 221.076V247.143C125.371 251.98 121.56 255.938 116.908 255.938H70.6845C66.0271 255.938 62.2216 251.98 62.2216 247.143V221.076C62.2216 216.244 66.0271 212.286 70.6845 212.286H116.908C120.624 212.286 123.806 214.813 124.934 218.295C125.215 219.169 125.371 220.104 125.371 221.076Z" fill="white"/>
<path d="M116.348 254.232H91.1881V246.255C94.6792 246.084 98.2643 245.443 101.852 244.157C103.163 243.686 104.508 243.024 105.835 242.246C107.122 242.977 108.599 243.394 110.17 243.394C113.908 243.394 117.121 241.033 118.48 237.681C118.629 237.689 118.778 237.696 118.928 237.705C119.195 239.817 119.603 241.693 120.213 241.693C120.225 241.693 120.236 241.692 120.247 241.691C121.298 241.576 122.069 240.071 122.647 237.873C122.986 237.885 123.325 237.898 123.667 237.91V246.913C123.667 250.948 120.384 254.232 116.348 254.232ZM87.7808 254.232H71.2419C67.2059 254.232 63.9214 250.948 63.9214 246.913V239.314C69.606 242.366 78.2155 245.941 87.7808 246.277V254.232Z" fill="#CDC6D0"/>
<path d="M71.242 213.989C67.2059 213.989 63.9214 217.274 63.9214 221.309V246.913C63.9214 250.948 67.2059 254.232 71.242 254.232H116.348C120.384 254.232 123.667 250.948 123.667 246.913V221.309C123.667 217.274 120.384 213.989 116.348 213.989H71.242ZM116.348 257.638H71.242C65.3269 257.638 60.5154 252.827 60.5154 246.913V221.309C60.5154 215.395 65.3269 210.583 71.242 210.583H116.348C122.262 210.583 127.073 215.395 127.073 221.309V246.913C127.073 252.827 122.262 257.638 116.348 257.638Z" fill="black"/>
<path d="M117.469 234.111C117.469 238.297 114.201 241.69 110.17 241.69C106.139 241.69 102.87 238.297 102.87 234.111C102.87 229.924 106.139 226.529 110.17 226.529C114.201 226.529 117.469 229.924 117.469 234.111Z" fill="#22A7F0"/>
<path d="M117.47 234.113C117.47 234.629 117.423 235.13 117.327 235.618C116.653 232.147 113.702 229.533 110.168 229.533C106.635 229.533 103.683 232.147 103.014 235.618C102.919 235.13 102.87 234.629 102.87 234.113C102.87 229.926 106.137 226.53 110.168 226.53C114.199 226.53 117.47 229.926 117.47 234.113Z" fill="white"/>
<path d="M110.17 239.988C107.753 239.988 105.69 238.371 104.908 236.115C105.307 236.217 105.739 236.314 106.205 236.407C107.347 237.177 108.709 237.625 110.17 237.625C110.964 237.625 111.729 237.492 112.446 237.247C113.196 237.318 113.975 237.383 114.777 237.443C113.767 238.979 112.079 239.988 110.17 239.988Z" fill="#2976B4"/>
<path d="M110.17 228.234C107.084 228.234 104.574 230.87 104.574 234.111C104.574 237.352 107.084 239.989 110.17 239.989C113.255 239.989 115.765 237.352 115.765 234.111C115.765 230.87 113.255 228.234 110.17 228.234ZM110.17 243.395C105.205 243.395 101.167 239.229 101.167 234.111C101.167 228.993 105.205 224.828 110.17 224.828C115.134 224.828 119.171 228.993 119.171 234.111C119.171 239.229 115.134 243.395 110.17 243.395Z" fill="black"/>
<path d="M89.4844 257.638C88.5436 257.638 87.7807 256.875 87.7807 255.935V242.592C87.7807 239.828 86.5168 237.19 84.3998 235.535L83.2261 234.617C80.2898 232.321 78.5374 228.679 78.5374 224.875V212.287C78.5374 211.346 79.299 210.583 80.2397 210.583C81.1805 210.583 81.9433 211.346 81.9433 212.287V224.875C81.9433 227.639 83.2073 230.278 85.3243 231.934L86.498 232.851C89.4342 235.147 91.188 238.788 91.188 242.592V255.935C91.188 256.875 90.4251 257.638 89.4844 257.638Z" fill="black"/>
<path d="M39.7425 90.6372C38.6126 105.632 29.378 117.151 19.1137 116.379C12.9431 115.917 7.81472 111.118 4.94237 104.112C3.03582 99.471 2.11761 93.819 2.56481 87.8451C2.99573 82.1542 4.58911 76.977 6.9579 72.7781C10.8424 65.8822 16.8076 61.6231 23.1849 62.1004C33.4592 62.8632 40.8737 75.6429 39.7425 90.6372Z" fill="white"/>
<path d="M17.9162 113.735C13.5081 112.79 9.57478 108.948 7.20976 103.18C5.36584 98.6896 4.60422 93.4498 5.01008 88.0308C5.06144 87.3531 5.13034 86.6816 5.21677 86.0152C5.60008 87.5861 6.08486 89.083 6.66108 90.4872C8.71044 95.4841 11.9072 99.3598 15.8105 101.338C16.2039 105.528 16.9066 109.667 17.9162 113.735Z" fill="#CCCCCC"/>
<path d="M159.628 105.763C156.999 120.568 163.083 134.021 173.217 135.823C179.309 136.908 185.469 133.533 189.992 127.46C192.99 123.438 195.284 118.192 196.335 112.293C197.331 106.675 197.074 101.264 195.823 96.6074C193.772 88.9637 189.052 83.3555 182.756 82.2344C172.615 80.4205 162.258 90.9591 159.628 105.763Z" fill="white"/>
<path d="M175.451 133.567C175.302 133.567 175.153 133.565 175.004 133.559C177.675 128.599 179.845 123.377 181.486 117.942C184.674 116.525 187.65 114.005 190.133 110.67C191.807 108.426 193.26 105.798 194.4 102.89C194.618 105.795 194.459 108.825 193.921 111.864C192.968 117.215 190.93 122.101 188.025 125.995C184.417 130.84 179.833 133.567 175.451 133.567Z" fill="#CCCCCC"/>
<path d="M182.095 103.348C179.661 122.637 170.816 139.535 157.981 152.162C154.087 156.001 149.816 159.437 145.257 162.43C129.476 172.788 110.111 177.779 89.9655 175.237C69.8114 172.694 52.2842 163.039 39.5722 149.077C35.8969 145.053 32.6249 140.666 29.814 135.991C20.518 120.571 16.1474 102.005 18.5814 82.718C19.7639 73.3456 22.4571 64.5307 26.398 56.4948C27.5717 54.0835 28.8669 51.7347 30.2699 49.4699C46.7512 22.7494 77.6819 6.65146 110.711 10.8191C143.731 14.9842 169.702 38.2623 179.031 68.2398C179.826 70.7827 180.498 73.3782 181.036 76.0063C182.858 84.7686 183.277 93.977 182.095 103.348Z" fill="white"/>
<path d="M182.174 102.721C179.85 121.139 171.106 137.236 158.351 149.231C140.647 158.695 117.032 162.965 91.9145 159.796C66.7962 156.626 44.9823 146.624 30.1834 133.06C20.8072 118.272 16.3365 100.507 18.6601 82.0894C19.7888 73.1404 22.4319 64.7312 26.3239 57.075C44.1681 40.7102 74.5363 32.0418 107.509 36.2019C140.48 40.362 167.743 56.3021 180.964 76.5864C182.831 84.9692 183.304 93.7717 182.174 102.721Z" fill="black"/>
<path d="M100.495 12.6275C73.052 12.6275 47.0455 26.9167 32.343 50.7548C30.9827 52.9507 29.72 55.2418 28.5876 57.5667C24.6768 65.5437 22.1238 74.1069 20.999 83.0221C18.7041 101.209 22.4733 119.087 31.8996 134.722C34.6216 139.25 37.8072 143.522 41.3672 147.42C54.1143 161.419 71.4762 170.433 90.2586 172.803C109.031 175.172 128.08 170.758 143.896 160.378C148.346 157.458 152.5 154.104 156.245 150.414C169.261 137.608 177.352 121.227 179.647 103.04C180.772 94.1219 180.428 85.1954 178.62 76.5032C178.1 73.9628 177.446 71.4312 176.676 68.971C167.357 39.0249 141.34 17.1547 110.39 13.2489C107.084 12.833 103.777 12.6275 100.495 12.6275ZM100.206 178.332C96.6885 178.332 93.1635 178.113 89.6435 177.668C69.7049 175.153 51.2733 165.584 37.7433 150.725C33.9665 146.59 30.5856 142.055 27.6969 137.252C17.6982 120.665 13.6997 101.699 16.1336 82.4083C17.3261 72.9545 20.0344 63.8714 24.182 55.4134C25.382 52.9457 26.7261 50.5093 28.1704 48.1768C45.6363 19.8592 78.1504 4.23973 111.004 8.38354C143.856 12.5286 171.471 35.7366 181.357 67.5091C182.176 70.1222 182.872 72.8167 183.424 75.5124C185.339 84.7282 185.706 94.1983 184.513 103.653C182.079 122.946 173.494 140.323 159.687 153.908C155.714 157.823 151.306 161.381 146.588 164.478C132.761 173.553 116.606 178.332 100.206 178.332Z" fill="black"/>
<path d="M40.8874 147.622C53.7534 157.409 70.6456 163.68 91.099 166.26C111.519 168.837 129.422 166.962 144.313 160.691C148.733 157.776 152.863 154.435 156.589 150.763C169.685 137.88 177.824 121.399 180.133 103.101C181.266 94.131 180.919 85.1482 179.101 76.4034C178.596 73.9369 177.965 71.4767 177.223 69.0816C163.309 47.8565 137.59 32.9949 108.363 29.3071C79.1348 25.6192 50.5328 33.6263 31.7818 50.7301C30.469 52.8671 29.2464 55.0931 28.1465 57.3517C24.2119 65.3762 21.644 73.9908 20.5128 82.9611C18.2042 101.259 21.996 119.246 31.4786 134.975C34.1881 139.481 37.3523 143.734 40.8874 147.622ZM108.212 171.304C102.562 171.304 96.6896 170.922 90.608 170.154C69.3829 167.476 51.8068 160.907 38.3657 150.632L38.1089 150.397C34.3497 146.283 30.9888 141.775 28.1177 137C18.1754 120.507 14.1994 101.651 16.6195 82.47C17.8058 73.0688 20.4978 64.0384 24.6216 55.6305C25.8166 53.1765 27.1507 50.7539 28.5875 48.4352L28.729 48.206L28.9269 48.0231C48.5135 30.0224 78.392 21.5719 108.854 25.4138C139.315 29.2582 166.16 44.8664 180.661 67.1688L180.807 67.3942L180.887 67.651C181.703 70.2541 182.394 72.931 182.943 75.6117C184.848 84.7749 185.213 94.1912 184.026 103.592C181.606 122.774 173.071 140.052 159.343 153.559C155.392 157.453 151.01 160.989 146.319 164.068L146.171 164.166L146.008 164.235C134.907 168.941 122.245 171.304 108.212 171.304Z" fill="black"/>
<path d="M162.044 106.193C159.656 119.638 164.861 131.846 173.647 133.409C178.545 134.282 183.919 131.51 188.025 125.995C190.93 122.1 192.968 117.215 193.921 111.864C194.821 106.784 194.659 101.728 193.455 97.2438C191.581 90.264 187.422 85.5565 182.327 84.6496C179.258 84.0996 176.021 84.9377 172.963 87.0697C167.585 90.8202 163.504 97.9691 162.044 106.193ZM175.453 138.473C174.56 138.473 173.671 138.395 172.786 138.237C161.34 136.202 154.353 121.441 157.215 105.335C158.898 95.8584 163.736 87.5257 170.157 83.0474C174.306 80.1538 178.81 79.0376 183.188 79.8205C190.203 81.0694 195.813 87.1073 198.192 95.9724C199.582 101.145 199.775 106.937 198.75 112.72C197.663 118.822 195.314 124.424 191.958 128.926C187.404 135.042 181.39 138.473 175.453 138.473Z" fill="black"/>
<path d="M22.2316 64.518C17.3261 64.518 12.4646 68.0004 9.09366 73.9818C6.81131 78.0279 5.39956 82.8845 5.00998 88.0304C4.60412 93.4494 5.36575 98.6893 7.20966 103.18C9.81895 109.544 14.3373 113.563 19.2966 113.934C28.198 114.604 36.2714 104.069 37.2973 90.4531C37.9249 82.1241 35.7465 74.186 31.4699 69.218C29.0385 66.392 26.1098 64.7773 23.0019 64.5468C22.7452 64.528 22.4884 64.518 22.2316 64.518ZM20.067 118.867C19.6899 118.867 19.3104 118.853 18.9296 118.825C12.0787 118.312 6.00084 113.16 2.67252 105.042C0.540494 99.8505 -0.342629 93.839 0.119602 87.6621C0.563044 81.8034 2.18899 76.2404 4.82208 71.573C9.32665 63.5772 16.2576 59.119 23.3677 59.6552C27.7996 59.9846 31.8883 62.1843 35.1866 66.0174C40.2949 71.9513 42.9117 81.2235 42.1877 90.8214C40.9989 106.597 31.1994 118.867 20.067 118.867Z" fill="black"/>
<path d="M151.464 107.315C149.429 107.315 147.538 106.643 146.132 105.255C142.775 101.939 143.467 95.7947 147.677 91.5319C150.125 89.0529 153.224 87.7564 156.048 87.7564C158.081 87.7564 159.973 88.4278 161.378 89.8158C161.833 90.2642 162.213 90.764 162.52 91.3039C159.984 95.35 158.132 100.173 157.215 105.335C157.196 105.439 157.178 105.543 157.161 105.646C155.321 106.747 153.331 107.315 151.464 107.315Z" fill="#808080"/>
<path d="M157.161 105.646C157.178 105.543 157.196 105.439 157.215 105.335C158.132 100.173 159.984 95.3499 162.52 91.3038C164.485 94.7586 163.475 99.8519 159.835 103.539C159.006 104.378 158.103 105.082 157.161 105.646Z" fill="#808080"/>
<path d="M141.648 124.672C140.649 124.672 139.75 124.361 139.092 123.71C137.353 121.994 137.952 118.568 140.431 116.059C141.971 114.499 143.872 113.661 145.51 113.661C146.508 113.661 147.407 113.973 148.066 114.623C149.804 116.34 149.205 119.766 146.726 122.276C145.188 123.834 143.285 124.672 141.648 124.672Z" fill="#808080"/>
<path d="M34.9486 100.902C32.0863 95.5455 31.2683 89.1181 32.3581 83.1116C32.8655 80.2943 33.7661 77.5698 34.9799 74.9818C36.8752 79.4413 37.7195 84.859 37.2974 90.4534C37.013 94.2314 36.185 97.7715 34.9486 100.902ZM42.3068 87.7251C42.3143 81.1173 40.7484 74.824 37.8949 69.8647C39.2703 67.8266 40.8361 65.9125 42.541 64.1475C51.0027 55.3902 63.1147 50.5349 75.1691 50.5349C81.6015 50.5349 88.0151 51.9165 93.8537 54.8227C80.4716 55.0231 67.2059 60.0138 57.0067 68.6822C50.915 73.8594 45.9445 80.3244 42.3068 87.7251Z" fill="#808080"/>
<path d="M36.8275 103.864C36.1248 102.924 35.4985 101.933 34.9485 100.902C36.1849 97.7713 37.0129 94.2313 37.2973 90.4533C37.7194 84.8589 36.8751 79.4411 34.9799 74.9817C35.8116 73.2066 36.7925 71.4955 37.8948 69.8645C40.7484 74.8238 42.3142 81.1172 42.3067 87.725C39.8527 92.7156 38.005 98.1308 36.8275 103.864Z" fill="#808080"/>
<path d="M90.8222 183.108C93.2211 182.989 95.2379 184.889 95.2304 187.29C95.1477 215.246 94.0366 230.602 86.2914 233.743C78.1904 237.026 33.6045 235.93 33.6045 235.93C33.6045 235.93 16.1536 236.144 12.2679 222.442C12.1025 221.862 12.0462 221.249 12.1414 220.652C14.1569 207.967 24.0617 204.36 32.4257 202.434C39.4531 200.806 61.1793 202.897 68.6376 203.688C70.1984 203.853 71.7167 203.133 72.5722 201.815C75.0049 198.069 80.0331 190.391 82.7889 186.663C84.7468 184.012 88.0927 183.243 90.8222 183.108Z" fill="white"/>
<path d="M95.2329 187.29C95.2191 191.562 95.184 195.54 95.1026 199.226C94.6529 219.655 92.8553 231.081 86.2876 233.744C78.1879 237.027 33.6007 235.931 33.6007 235.931C33.6007 235.931 33.3965 235.931 33.0282 235.917C32.9405 235.917 32.8516 235.91 32.7426 235.904C32.4019 235.89 31.966 235.862 31.4612 235.815C31.366 235.808 31.2707 235.801 31.1693 235.787C30.91 235.761 30.6369 235.733 30.345 235.692C30.236 235.678 30.1271 235.666 30.0106 235.644C28.9884 235.508 27.8172 235.29 26.557 234.97C26.3252 234.909 26.0872 234.848 25.848 234.78C25.521 234.684 25.1803 234.588 24.8396 234.473C24.5815 234.392 24.3222 234.303 24.0642 234.214C23.7097 234.085 23.3477 233.948 22.9944 233.798C22.8717 233.75 22.7414 233.696 22.6199 233.641C22.4219 233.56 22.224 233.471 22.0261 233.383C21.9246 233.336 21.8294 233.288 21.7267 233.241C21.5764 233.172 21.4336 233.096 21.2845 233.023C20.9839 232.872 20.6908 232.716 20.3989 232.552C20.2548 232.47 20.1058 232.381 19.963 232.3C19.2264 231.864 18.5049 231.367 17.8172 230.814C17.2848 230.386 16.7674 229.922 16.2776 229.419C16.1474 229.296 16.0246 229.166 15.9094 229.03C15.7866 228.894 15.6638 228.757 15.5486 228.621C15.4258 228.485 15.3093 228.341 15.2004 228.199C15.0851 228.056 14.9686 227.913 14.8596 227.763C14.7444 227.612 14.6354 227.463 14.5327 227.307C14.4513 227.19 14.3699 227.067 14.2872 226.938C14.1657 226.748 14.0429 226.556 13.9264 226.352C13.8249 226.182 13.7297 226.019 13.6408 225.849C13.5519 225.684 13.4629 225.522 13.3815 225.351C13.0069 224.602 12.6863 223.798 12.4144 222.94C12.3731 222.817 12.3393 222.694 12.3055 222.572C12.2641 222.435 12.224 222.292 12.189 222.149C12.0875 221.658 12.0599 221.149 12.1426 220.651C13.0546 214.888 15.6025 210.997 18.8932 208.293C22.8378 205.037 27.8648 203.484 32.4219 202.434C39.4531 200.807 61.1768 202.897 68.6364 203.688C70.1972 203.852 71.7167 203.129 72.5747 201.815C75.0061 198.068 80.0343 190.391 82.7864 186.664C84.7481 184.013 88.0927 183.244 90.8248 183.108C93.2224 182.993 95.2391 184.885 95.2329 187.29Z" fill="white"/>
<path d="M99.6421 183.108C97.2433 182.989 95.2278 184.889 95.234 187.29C95.3167 215.246 96.4278 230.602 104.174 233.743C112.274 237.026 156.861 235.93 156.861 235.93C156.861 235.93 174.311 236.144 178.198 222.442C178.362 221.862 178.418 221.249 178.323 220.652C176.307 207.967 166.403 204.36 158.039 202.434C151.011 200.806 129.285 202.897 121.828 203.688C120.266 203.853 118.748 203.133 117.892 201.815C115.461 198.069 110.431 190.391 107.675 186.663C105.718 184.012 102.372 183.243 99.6421 183.108Z" fill="white"/>
<path d="M49.4556 234.063C43.1397 234.063 37.4138 233.978 33.6545 233.886C33.6382 233.885 33.6195 233.885 33.6032 233.885H33.5819C32.923 233.879 17.6393 233.891 14.2333 221.883C14.1706 221.662 14.1381 221.444 14.1393 221.239C14.1393 221.148 14.1456 221.058 14.1594 220.973C14.8458 216.651 16.5081 213.496 18.7905 211.133C18.8907 213.266 19.4293 215.314 20.6369 217.081C23.3075 220.99 28.3695 222.312 32.9881 223.348C38.5048 224.587 44.103 225.837 49.7437 225.837C50.4615 225.837 51.1805 225.817 51.8983 225.773C55.4821 225.555 59.1199 224.697 62.2402 222.959C66.6684 220.487 71.5726 219.076 76.607 218.477C80.613 218 84.5364 216.12 87.4864 213.334C89.77 211.177 91.5375 208.573 92.8666 205.729C92.264 219.87 90.5341 229.816 85.5222 231.848C81.1366 233.627 63.7773 234.063 49.4556 234.063Z" fill="#CCCCCC"/>
<path d="M141.01 234.063C126.69 234.063 109.328 233.626 104.942 231.848C99.9353 229.819 98.2041 219.889 97.6003 205.768C98.9269 208.596 100.688 211.187 102.962 213.334C105.912 216.12 109.835 218 113.841 218.477C118.876 219.076 123.78 220.487 128.208 222.959C131.328 224.697 134.966 225.555 138.55 225.773C139.268 225.817 139.987 225.837 140.704 225.837C146.345 225.837 151.943 224.587 157.46 223.348C162.08 222.312 167.141 220.99 169.811 217.081C171.021 215.311 171.56 213.256 171.659 211.118C173.949 213.481 175.617 216.642 176.305 220.974C176.319 221.059 176.325 221.148 176.326 221.241C176.326 221.444 176.294 221.662 176.231 221.885C172.917 233.572 158.358 233.886 156.97 233.886C156.931 233.886 156.904 233.886 156.886 233.885C156.872 233.885 156.86 233.885 156.846 233.885C156.835 233.885 156.822 233.885 156.811 233.886C153.051 233.978 147.327 234.063 141.01 234.063Z" fill="#CCCCCC"/>
<path d="M90.8221 183.108H90.8284H90.8221ZM33.6031 233.886C33.6194 233.886 33.6381 233.886 33.6544 233.887C45.938 234.188 79.2024 234.412 85.5221 231.849C92.5094 229.017 93.117 210.802 93.1859 187.284C93.1884 186.697 92.9554 186.151 92.5295 185.745C92.0973 185.331 91.5286 185.12 90.9236 185.15H90.9223C88.8041 185.254 85.9593 185.811 84.4335 187.878C81.6551 191.635 76.4115 199.655 74.2857 202.929C73.008 204.898 70.7607 205.961 68.422 205.72C61.8005 205.019 39.6685 202.856 32.8866 204.424C24.2069 206.425 15.933 209.813 14.1593 220.973C14.1154 221.246 14.1417 221.561 14.2332 221.884C17.6392 233.892 32.9229 233.879 33.5818 233.886H33.6031ZM50.1633 238.166C42.036 238.166 35.3555 238.017 33.5868 237.973C32.3679 238.002 14.5088 237.832 10.3011 223C10.0443 222.098 9.98416 221.199 10.1232 220.332C12.2953 206.664 22.9379 202.523 31.9671 200.442C39.1649 198.776 60.1595 200.735 68.8517 201.655C69.6559 201.746 70.4213 201.375 70.8572 200.703C73.5229 196.598 78.4032 189.157 81.1453 185.448C83.107 182.795 86.4177 181.279 90.7219 181.067C92.4318 180.988 94.1179 181.61 95.3517 182.787C96.5969 183.976 97.2783 185.577 97.2733 187.295C97.1844 217.897 95.6874 232.138 87.0579 235.637C81.8781 237.736 63.9438 238.166 50.1633 238.166Z" fill="black"/>
<path d="M74.3672 202.792L69.0121 209.972C68.7553 210.318 68.2668 210.389 67.9211 210.131C67.638 209.919 67.539 209.551 67.6568 209.235L70.7771 200.839C71.1742 199.769 72.363 199.225 73.4315 199.622C74.5 200.02 75.0449 201.207 74.6478 202.277C74.579 202.462 74.4787 202.64 74.3672 202.792Z" fill="black"/>
<path d="M90.8221 183.108H90.8284H90.8221ZM33.6031 233.886C33.6194 233.886 33.6381 233.886 33.6544 233.887C45.938 234.188 79.2024 234.412 85.5221 231.849C92.5094 229.017 93.117 210.802 93.1859 187.284C93.1884 186.697 92.9554 186.151 92.5295 185.745C92.0973 185.331 91.5286 185.12 90.9236 185.15H90.9223C88.8041 185.254 85.9593 185.811 84.4335 187.878C81.6551 191.635 76.4115 199.655 74.2857 202.929C73.008 204.898 70.7607 205.961 68.422 205.72C61.8005 205.019 39.6685 202.856 32.8866 204.424C24.2069 206.425 15.933 209.813 14.1593 220.973C14.1154 221.246 14.1417 221.561 14.2332 221.884C17.6392 233.892 32.9229 233.879 33.5818 233.886H33.6031ZM50.1633 238.166C42.036 238.166 35.3555 238.017 33.5868 237.973C32.3679 238.002 14.5088 237.832 10.3011 223C10.0443 222.098 9.98416 221.199 10.1232 220.332C12.2953 206.664 22.9379 202.523 31.9671 200.442C39.1649 198.776 60.1595 200.735 68.8517 201.655C69.6559 201.746 70.4213 201.375 70.8572 200.703C73.5229 196.598 78.4032 189.157 81.1453 185.448C83.107 182.795 86.4177 181.279 90.7219 181.067C92.4318 180.988 94.1179 181.61 95.3517 182.787C96.5969 183.976 97.2783 185.577 97.2733 187.295C97.1844 217.897 95.6874 232.138 87.0579 235.637C81.8781 237.736 63.9438 238.166 50.1633 238.166Z" fill="black"/>
<path d="M74.3672 202.792L69.0121 209.972C68.7553 210.318 68.2668 210.389 67.9211 210.131C67.638 209.919 67.539 209.551 67.6568 209.235L70.7771 200.839C71.1742 199.769 72.363 199.225 73.4315 199.622C74.5 200.02 75.0449 201.207 74.6478 202.277C74.579 202.462 74.4787 202.64 74.3672 202.792Z" fill="black"/>
<path d="M37.7958 200.965L48.8205 180C49.0773 179.512 49.6798 179.324 50.1671 179.581C50.6281 179.823 50.8185 180.377 50.6231 180.848L41.495 202.705C41.059 203.749 39.8615 204.24 38.818 203.805C37.7758 203.369 37.2835 202.172 37.7194 201.129C37.742 201.074 37.7695 201.017 37.7958 200.965Z" fill="black"/>
<path d="M99.4293 185.147C98.8681 185.147 98.3407 185.356 97.9349 185.745C97.509 186.151 97.276 186.697 97.2785 187.284C97.3474 210.802 97.9562 229.017 104.942 231.849C111.262 234.412 144.526 234.188 156.811 233.887C156.836 233.886 156.861 233.886 156.886 233.886C157.552 233.896 172.825 233.893 176.231 221.885C176.323 221.561 176.349 221.246 176.305 220.974C174.531 209.813 166.258 206.425 157.58 204.426C150.798 202.854 128.664 205.018 122.042 205.72C119.704 205.968 117.458 204.898 116.179 202.927C114.053 199.655 108.809 191.635 106.032 187.878C104.505 185.811 101.66 185.254 99.5421 185.15H99.5408C99.5045 185.147 99.4669 185.147 99.4293 185.147ZM140.301 238.166C126.521 238.166 108.586 237.736 103.407 235.637C94.7769 232.138 93.2813 217.897 93.1911 187.295C93.1861 185.577 93.8687 183.976 95.1126 182.787C96.3465 181.61 98.0376 180.988 99.7437 181.067C104.047 181.279 107.359 182.795 109.319 185.448C112.061 189.157 116.942 196.598 119.607 200.703C120.043 201.374 120.811 201.742 121.611 201.655C130.305 200.734 151.301 198.777 158.5 200.443C167.526 202.523 178.169 206.664 180.342 220.332C180.48 221.199 180.42 222.098 180.163 223.001C175.957 237.83 158.088 237.972 156.878 237.973C155.109 238.017 148.427 238.166 140.301 238.166Z" fill="black"/>
<path d="M119.689 200.839L122.808 209.235C122.958 209.639 122.753 210.087 122.349 210.238C122.017 210.36 121.654 210.243 121.452 209.972L116.097 202.792C115.416 201.877 115.604 200.585 116.518 199.902C117.433 199.22 118.727 199.41 119.408 200.323C119.526 200.482 119.621 200.662 119.689 200.839Z" fill="black"/>
<path d="M99.4293 185.147C98.8681 185.147 98.3407 185.356 97.9349 185.745C97.509 186.151 97.276 186.697 97.2785 187.284C97.3474 210.802 97.9562 229.017 104.942 231.849C111.262 234.412 144.526 234.188 156.811 233.887C156.836 233.886 156.861 233.886 156.886 233.886C157.552 233.896 172.825 233.893 176.231 221.885C176.323 221.561 176.349 221.246 176.305 220.974C174.531 209.813 166.258 206.425 157.58 204.426C150.798 202.854 128.664 205.018 122.042 205.72C119.704 205.968 117.458 204.898 116.179 202.927C114.053 199.655 108.809 191.635 106.032 187.878C104.505 185.811 101.66 185.254 99.5421 185.15H99.5408C99.5045 185.147 99.4669 185.147 99.4293 185.147ZM140.301 238.166C126.521 238.166 108.586 237.736 103.407 235.637C94.7769 232.138 93.2813 217.897 93.1911 187.295C93.1861 185.577 93.8687 183.976 95.1126 182.787C96.3465 181.61 98.0376 180.988 99.7437 181.067C104.047 181.279 107.359 182.795 109.319 185.448C112.061 189.157 116.942 196.598 119.607 200.703C120.043 201.374 120.811 201.742 121.611 201.655C130.305 200.734 151.301 198.777 158.5 200.443C167.526 202.523 178.169 206.664 180.342 220.332C180.48 221.199 180.42 222.098 180.163 223.001C175.957 237.83 158.088 237.972 156.878 237.973C155.109 238.017 148.427 238.166 140.301 238.166Z" fill="black"/>
<path d="M119.689 200.839L122.808 209.235C122.958 209.639 122.753 210.087 122.349 210.238C122.017 210.36 121.654 210.243 121.452 209.972L116.097 202.792C115.416 201.877 115.604 200.585 116.518 199.902C117.433 199.22 118.727 199.41 119.408 200.323C119.526 200.482 119.621 200.662 119.689 200.839Z" fill="black"/>
<path d="M148.969 202.705L139.841 180.847C139.628 180.339 139.869 179.755 140.377 179.543C140.856 179.343 141.406 179.548 141.644 179.999L152.669 200.965C153.195 201.965 152.81 203.202 151.809 203.727C150.81 204.253 149.573 203.869 149.047 202.869C149.02 202.817 148.993 202.76 148.969 202.705Z" fill="black"/>
<path d="M137.662 200.256C139.215 199.016 140.532 197.478 141.497 195.741C142.59 193.775 143.227 191.563 143.379 189.319L147.761 199.81C144.569 199.863 141.087 200.032 137.662 200.256Z" fill="#CCCCCC"/>
<path d="M133.265 202.715C134.855 202.149 136.344 201.31 137.662 200.256C141.087 200.032 144.569 199.863 147.761 199.81L148.398 201.336C143.331 201.463 138.272 201.925 133.265 202.715Z" fill="black"/>
<path d="M148.398 201.336L147.761 199.81L143.379 189.319C143.475 187.896 143.376 186.461 143.073 185.066C145.847 190.41 148.007 195.858 150.167 201.305C149.577 201.311 148.987 201.321 148.398 201.336Z" fill="black"/>
<path d="M53.0746 200.274C49.5634 200.041 45.9808 199.863 42.7038 199.809L47.3474 188.693C47.4088 191.161 48.0602 193.616 49.2602 195.774C50.221 197.504 51.53 199.036 53.0746 200.274Z" fill="#CCCCCC"/>
<path d="M57.4928 202.749C52.3857 201.942 47.2247 201.479 42.0562 201.362L42.7038 199.809C45.9808 199.863 49.5634 200.041 53.0746 200.274C54.3987 201.335 55.8944 202.18 57.4928 202.749Z" fill="black"/>
<path d="M42.0561 201.362C41.5676 201.351 41.0778 201.344 40.5892 201.338C42.7501 195.892 44.9109 190.444 47.6843 185.1C47.4275 186.279 47.3173 187.487 47.3473 188.693L42.7037 199.809L42.0561 201.362Z" fill="black"/>
<path d="M206.913 43.2165C203.378 39.5625 200.964 34.7673 200.32 29.3283C198.757 16.1277 208.19 4.15979 221.391 2.59647C234.591 1.03315 246.559 10.467 248.123 23.6675C249.686 36.868 240.252 48.836 227.052 50.3993C223.38 50.834 219.805 50.4156 216.52 49.3044L206.197 54.1748L206.913 43.2165Z" fill="#F01A29"/>
<path d="M202.675 21.5366C203.396 18.3949 204.811 15.4249 206.866 12.8181C210.52 8.18075 215.76 5.24704 221.623 4.55306C222.507 4.44784 223.389 4.39648 224.266 4.39648C229.202 4.39648 233.965 6.03995 237.901 9.14279C240.509 11.1972 242.577 13.7538 244.013 16.64C239.573 10.7387 232.522 7.0233 224.796 7.0233C223.851 7.0233 222.897 7.07966 221.936 7.19366C213.112 8.23837 205.972 13.933 202.675 21.5366Z" fill="#F88D94"/>
<path d="M224.266 4.39665C223.389 4.39665 222.507 4.44801 221.623 4.55323C215.76 5.24721 210.52 8.18092 206.866 12.8183C203.212 17.4531 201.581 23.2354 202.276 29.0966C202.849 33.9381 204.942 38.3475 208.328 41.8474C208.714 42.247 208.913 42.7907 208.878 43.3456L208.381 50.9668L215.681 47.5232C216.142 47.3053 216.668 47.2752 217.153 47.4393C220.275 48.4953 223.527 48.8323 226.82 48.4427C232.682 47.7487 237.922 44.8137 241.577 40.1776C245.231 35.5415 246.861 29.7605 246.167 23.8993C245.472 18.0369 242.537 12.797 237.901 9.14296C233.965 6.04012 229.202 4.39665 224.266 4.39665ZM206.197 56.144C205.809 56.144 205.422 56.0288 205.089 55.8033C204.512 55.4112 204.187 54.7423 204.232 54.0458L204.891 43.9394C201.256 39.9234 199.005 34.9716 198.363 29.5601C197.546 22.6529 199.467 15.8409 203.772 10.3793C208.078 4.91647 214.253 1.4579 221.159 0.641163C228.064 -0.178078 234.878 1.7435 240.34 6.04889C245.803 10.3543 249.26 16.5286 250.079 23.4358C250.897 30.3417 248.976 37.1537 244.67 42.6166C240.365 48.0794 234.191 51.5368 227.283 52.3547C223.674 52.7819 220.104 52.4675 216.658 51.4178L207.038 55.9561C206.771 56.0827 206.483 56.144 206.197 56.144Z" fill="black"/>
<path d="M208.381 50.9668L208.834 44.012C212.246 45.4501 215.933 46.2067 219.671 46.2067C223.851 46.2067 228.095 45.2609 232.087 43.2617C239.279 39.6615 244.224 33.3656 246.321 26.2129C246.395 31.2662 244.749 36.1541 241.577 40.1776C237.922 44.8137 232.682 47.7487 226.82 48.4427C225.936 48.5479 225.055 48.5993 224.179 48.5993C221.79 48.5993 219.437 48.2122 217.153 47.4393C216.946 47.3691 216.733 47.3341 216.521 47.3341C216.232 47.3341 215.946 47.398 215.681 47.5232L208.381 50.9668Z" fill="#A8121D"/>
<path d="M206.197 54.1748L206.913 43.2165C206.85 43.1526 206.791 43.0862 206.73 43.0211C207.417 43.3806 208.12 43.7113 208.834 44.012L208.381 50.9667L215.681 47.5232C215.946 47.3979 216.232 47.334 216.521 47.334C216.733 47.334 216.946 47.3691 217.153 47.4392C219.437 48.2121 221.79 48.5992 224.179 48.5992C225.055 48.5992 225.936 48.5479 226.82 48.4426C232.682 47.7487 237.922 44.8137 241.577 40.1776C244.749 36.154 246.395 31.2661 246.321 26.2129C246.911 24.1974 247.276 22.1154 247.4 20.006C247.729 21.1885 247.974 22.4098 248.123 23.6675C249.686 36.868 240.252 48.836 227.052 50.3993C226.092 50.5133 225.14 50.5684 224.197 50.5684C221.531 50.5684 218.947 50.1249 216.521 49.3044L206.197 54.1748Z" fill="black"/>
<path d="M216.61 19.7381C218.693 17.6561 222.07 18.0294 224.153 20.1113L224.476 20.4358L224.801 20.1113C226.884 18.0294 230.261 17.6561 232.344 19.7381C234.427 21.8212 234.427 25.1984 232.344 27.2816L232.02 27.606L225.471 34.1549C224.922 34.7036 224.032 34.7036 223.483 34.1549L216.934 27.606L216.61 27.2816C214.526 25.1984 214.526 21.8212 216.61 19.7381Z" fill="white"/>
</svg>
