<svg width="272" height="306" viewBox="0 0 272 306" fill="none" xmlns="http://www.w3.org/2000/svg">
<path d="M135.617 306C61.9609 306 2.24971 304.504 2.24971 302.66C2.24971 302.159 6.6494 301.685 14.5355 301.258C14.8861 301.482 15.3023 301.611 15.7466 301.611H255.543C255.985 301.611 256.4 301.483 256.75 301.26C264.602 301.686 268.985 302.16 268.985 302.66C268.985 304.504 209.274 306 135.617 306Z" fill="#8981C8"/>
<path d="M268.499 142.278C244.269 159.95 181.281 182.988 144.099 182.988C103.558 182.988 32.6012 167.97 2.25229 141.519C2.25229 141.519 2.25229 141.468 2.30303 141.468C2.73031 141.277 3.16346 141.092 3.60226 140.905C33.9572 128.161 95.6393 127.413 140.196 126.344C180.967 125.354 222.638 128.425 263.623 140.766C265.249 141.255 266.873 141.76 268.499 142.278Z" fill="white"/>
<path d="M268.932 141.952C268.769 142.064 268.662 142.171 268.499 142.278C268.308 142.419 268.116 142.56 267.92 142.7C243.279 160.31 180.989 182.988 144.099 182.988C103.913 182.988 33.8336 168.229 3.05664 142.21C2.7866 141.98 2.51668 141.75 2.25229 141.519C2.25229 141.519 2.25229 141.468 2.30303 141.468C2.7978 140.54 3.29853 139.617 3.81025 138.695C34.1257 83.5825 82.9903 38.4129 139.982 11.809C164.099 22.8674 189.308 35.5505 208.819 54.8475C233.133 78.7905 250.54 108.819 267.622 139.595C268.06 140.377 268.494 141.164 268.932 141.952Z" fill="#FFF0DE"/>
<path d="M264.94 139.4C247.207 133.996 228.79 130.107 209.078 127.657C212.566 123.747 215.691 119.453 218.382 114.812C218.428 114.823 218.475 114.834 218.52 114.842C219.597 115.054 220.671 115.157 221.732 115.157C221.735 115.157 221.736 115.157 221.738 115.157C223.403 115.157 225.037 114.905 226.598 114.433C242.557 122.507 254.891 130.456 263.284 136.43C263.835 137.415 264.388 138.408 264.94 139.4ZM6.86137 137.829C7.20188 137.221 7.54611 136.611 7.89099 136.006C14.2377 131.971 21.4395 128.027 29.113 124.236C30.5074 126.618 32.0842 128.964 33.8379 131.271C23.7002 132.935 14.5229 135.069 6.86137 137.829ZM96.7139 125.594C88.1703 120.138 80.7963 112.964 75.1621 104.73C78.1535 103.616 81.1172 102.537 84.0255 101.497C85.6363 106.597 87.7908 111.552 90.4795 116.29C92.3451 119.578 94.4293 122.683 96.7139 125.594Z" fill="#CDBAB8"/>
<path d="M205.642 155.199C205.09 152.4 204.387 149.622 203.531 146.847C202.929 144.895 202.002 143.138 200.826 141.618C219.691 141.916 239.267 142.24 259.28 142.562C257.663 143.205 255.896 143.883 253.976 144.585C251.497 145.346 249.005 146.081 246.522 146.783C242.03 148.058 237.488 149.238 233.016 150.292C228.083 151.465 223.187 152.485 218.457 153.323C214.498 154.03 210.583 154.614 206.817 155.061C206.425 155.108 206.033 155.154 205.642 155.199ZM60.6614 154.368C47.6808 152.023 34.1534 149.074 20.068 145.425C20.0506 145.419 20.033 145.414 20.0157 145.409C15.4047 144.033 11.4989 142.765 8.52316 141.757C17.1814 141.141 28.5149 140.744 42.0903 140.516C42.5519 140.962 43.02 141.403 43.4933 141.84C48.377 146.344 54.2415 150.601 60.6614 154.368Z" fill="#CDBAB8"/>
<path d="M260.286 142.578C259.946 142.573 259.619 142.568 259.28 142.562C259.936 142.3 260.567 142.044 261.174 141.796C261.431 141.87 261.693 141.948 261.949 142.025C261.422 142.202 260.867 142.386 260.286 142.578Z" fill="#CDC1C3"/>
<path d="M61.1113 154.63C55.4078 153.85 49.3301 152.757 42.9987 151.373C35.6374 149.763 27.9222 147.761 20.068 145.425C34.1534 149.074 47.6809 152.022 60.6614 154.368C60.8117 154.455 60.9609 154.543 61.1113 154.63ZM253.976 144.584C255.896 143.883 257.663 143.205 259.28 142.562C259.619 142.567 259.946 142.573 260.286 142.578C260.201 142.606 260.115 142.635 260.029 142.662C258.027 143.319 256.006 143.961 253.976 144.584Z" fill="#A596A4"/>
<path d="M2.31167 143.716H2.31039H2.31167ZM5.11279 140.998C18.7237 152.227 41.633 162.487 69.9309 169.998C95.2651 176.721 122.992 180.736 144.1 180.736C179.44 180.736 240.863 158.916 265.996 141.301C247.828 108.568 230.732 79.5861 207.24 56.4522C187.804 37.2309 162.42 24.599 139.991 14.2911C82.7056 41.2756 34.8975 86.1957 5.11279 140.998ZM144.1 185.235C104.226 185.235 32.2334 170.633 0.771728 143.217C0.281227 142.789 0 142.171 0 141.521C0 140.999 0.174088 140.518 0.466939 140.132C15.534 112.071 35.292 86.459 59.1944 64.0033C83.0073 41.6306 109.868 23.3847 139.03 9.77307C139.627 9.49376 140.317 9.49059 140.919 9.76671C163.928 20.3144 190.17 33.2438 210.401 53.2497C234.733 77.2119 252.196 107.106 270.899 140.864C271.465 141.885 271.154 143.171 270.184 143.821L270.119 143.872C270.016 143.956 269.911 144.038 269.791 144.12C257.586 153.012 235.942 163.204 211.881 171.389C185.632 180.318 161.56 185.235 144.1 185.235Z" fill="#371A45"/>
<path d="M2.31965 143.154H2.31943H2.31965ZM2.31453 143.154H2.31272H2.31453ZM2.3093 143.154H2.30387H2.3093ZM5.42949 141.981C19.1783 153.046 41.875 163.133 69.7869 170.541C95.1648 177.277 122.946 181.298 144.1 181.298C178.802 181.298 238.585 160.316 264.712 142.861C228.03 131.578 188.359 126.86 140.238 128.03C137.874 128.087 135.464 128.142 133.01 128.199C91.1681 129.167 34.2973 130.483 5.42949 141.981ZM144.1 184.673C104.315 184.673 32.4999 170.119 1.14121 142.792C0.773519 142.471 0.562332 142.008 0.562332 141.521C0.562332 140.766 1.04494 140.122 1.71753 139.881C30.3635 127.198 87.23 125.882 132.933 124.826C135.385 124.768 137.794 124.713 140.157 124.656C190.1 123.443 231.044 128.531 269.011 140.672C269.616 140.865 270.061 141.382 270.163 142.01C270.264 142.637 270.004 143.268 269.491 143.642C257.335 152.507 235.731 162.681 211.7 170.856C185.888 179.637 161.249 184.673 144.1 184.673Z" fill="#371A45"/>
<path d="M99.7821 181.02C99.6573 181.02 99.5305 181.009 99.4047 180.988C97.5177 180.669 95.9442 180.39 94.4528 180.108C93.2332 179.878 92.4293 178.704 92.6575 177.485C92.8856 176.265 94.0594 175.459 95.2779 175.685C97.0433 176.011 98.6382 176.295 100.154 176.551C101.252 176.736 102.029 177.689 102.029 178.767C102.029 178.892 102.019 179.018 101.997 179.145C101.812 180.243 100.859 181.02 99.7821 181.02Z" fill="#060456"/>
<path d="M268.983 141.952L268.111 152.182L267.981 153.707L266.717 168.528L265.372 184.315L263.971 200.659L262.622 216.441L261.226 232.792L259.877 248.574L258.488 264.918L257.138 280.705L255.737 297.044L255.541 299.362H15.7452L14.2604 281.948L13.8048 276.622L12.6575 263.208L11.0039 243.815L9.58093 227.1L9.40653 225.081L7.82052 206.56L7.7474 205.682L6.14434 186.947L4.49086 167.549L2.8879 148.82L2.30305 141.952C2.30305 141.952 2.57864 142.059 3.10165 142.245C5.17144 142.993 11.1388 145.107 19.3728 147.565C25.9255 149.517 33.9178 151.688 42.5168 153.573C49.4068 155.079 56.6849 156.396 63.9459 157.261C64.0302 157.273 64.1208 157.284 64.205 157.295C70.8019 158.077 77.1354 158.741 83.1193 159.297C90.0882 159.955 96.5732 160.473 102.445 160.889C109.469 161.378 115.611 161.716 120.64 161.952C130.117 162.386 135.646 162.441 135.646 162.441C135.646 162.441 136.748 162.431 138.817 162.386C142.086 162.295 147.761 162.122 155.286 161.722C160.135 161.469 165.741 161.126 171.973 160.664C176.877 160.305 182.17 159.866 187.778 159.337C192.896 158.859 198.273 158.308 203.847 157.666C204.922 157.549 206 157.424 207.087 157.295C211.017 156.828 214.966 156.233 218.853 155.541C223.898 154.646 228.841 153.6 233.538 152.481C238.386 151.339 242.975 150.13 247.137 148.949C252.47 147.442 257.109 145.985 260.732 144.798C264.455 143.577 267.093 142.638 268.279 142.21C268.566 142.104 268.774 142.031 268.882 141.985H268.887C268.954 141.963 268.983 141.952 268.983 141.952Z" fill="#FFF0DE"/>
<path d="M100.972 299.362H82.8837L66.7188 278.174L86.0051 278.18L100.972 299.362Z" fill="#FF3333"/>
<path d="M27.7644 226.099V245.255L9.58092 227.1L9.40652 225.081L7.82051 206.56L27.7644 226.099Z" fill="#FF3333"/>
<path d="M31.8454 299.362H15.9146L14.4294 281.946L31.8454 299.362Z" fill="#FF3333"/>
<path d="M25.8079 258.448L27.7655 278.144L12.8268 263.206L11.1732 243.813L25.8079 258.448Z" fill="#5257FF"/>
<path d="M66.7199 301.631H48.9804L35.1044 287.756H52.8439L66.7199 301.631Z" fill="#5257FF"/>
<path d="M18.1305 181.028L20.0822 200.719L6.31381 186.95L4.65457 167.552L18.1305 181.028Z" fill="#5257FF"/>
<path d="M136.461 301.631H118.728L104.852 287.756H122.586L136.461 301.631Z" fill="#5257FF"/>
<path d="M23.3894 163.688C18.6592 162.327 16.1846 161.41 16.1846 161.41L16.2407 162.001L3.05729 148.817L2.47234 141.956C2.47234 141.956 2.74803 142.057 3.27104 142.248C5.34072 142.996 11.3083 145.11 19.5423 147.563L39.7279 167.748C32.8102 166.27 27.3209 164.824 23.3894 163.688Z" fill="#FF3333"/>
<path d="M171.338 299.359H153.605L139.73 285.483H157.463L171.338 299.359Z" fill="#FF3333"/>
<path d="M64.1101 157.259L80.679 173.829C73.435 173.182 66.7251 172.372 60.5888 171.477L57.9844 168.874L42.6862 153.569C49.5763 155.077 56.8543 156.393 64.1101 157.259Z" fill="#5257FF"/>
<path d="M206.209 301.631H188.476L174.6 287.756H192.334L206.209 301.631Z" fill="#5257FF"/>
<path d="M102.615 160.887L117.665 175.938C112.322 175.792 106.028 175.555 99.1552 175.167L83.2888 159.301C90.2524 159.953 96.7426 160.476 102.615 160.887Z" fill="#060456"/>
<path d="M241.086 299.359H223.353L209.477 285.483H227.211L241.086 299.359Z" fill="#FF3333"/>
<path d="M138.982 162.383L152.542 175.943C141.957 176.225 135.163 176.151 135.163 176.151C135.163 176.151 135.112 176.151 135.016 176.151L120.809 161.95C130.287 162.383 135.815 162.444 135.815 162.444C135.815 162.444 136.918 162.434 138.982 162.383Z" fill="#060456"/>
<path d="M257.301 282.975L255.907 299.32L242.059 285.473L243.663 269.337L257.301 282.975Z" fill="#5257FF"/>
<path d="M172.138 160.667L185.647 174.171C179.848 174.645 174.246 175.009 169.015 175.28L155.456 161.725C160.303 161.466 165.911 161.129 172.138 160.667Z" fill="#060456"/>
<path d="M260.046 248.571L258.652 264.921L245.21 251.479L246.812 235.336L260.046 248.571Z" fill="#FF3333"/>
<path d="M204.016 157.67L216.739 170.392C211.975 171.185 206.795 171.939 201.221 172.614L187.948 159.34C193.059 158.862 198.437 158.305 204.016 157.67Z" fill="#5257FF"/>
<path d="M262.791 216.439L261.396 232.79L248.353 219.746L249.956 203.605L262.791 216.439Z" fill="#5257FF"/>
<path d="M239.494 158.272L245.373 164.149C244.928 164.267 244.472 164.397 243.994 164.525C240.535 165.465 236.232 166.539 231.131 167.647L219.021 155.538C224.067 154.644 229.011 153.598 233.701 152.479L239.494 158.272Z" fill="#FF3333"/>
<path d="M265.535 184.313L264.141 200.657L251.503 188.019L253.072 172.209L253.106 171.883L265.535 184.313Z" fill="#FF3333"/>
<path d="M268.28 152.182L266.882 168.525L247.303 148.947C252.637 147.441 257.277 145.988 260.898 144.8L268.28 152.182Z" fill="#5257FF"/>
<path d="M17.8127 297.112H253.475L266.447 145.243C265.108 145.708 263.414 146.286 261.433 146.937C256.925 148.416 252.32 149.82 247.747 151.112C243.195 152.404 238.586 153.601 234.052 154.671C229.04 155.862 224.056 156.901 219.245 157.753C215.203 158.474 211.2 159.072 207.349 159.529C206.263 159.659 205.177 159.785 204.097 159.904C198.781 160.514 193.358 161.077 187.986 161.578C182.679 162.076 177.346 162.523 172.138 162.909C166.547 163.323 160.918 163.68 155.406 163.969C149.669 164.271 144.107 164.494 138.875 164.633C136.783 164.682 135.666 164.693 135.666 164.693C135.565 164.693 129.943 164.628 120.538 164.198C114.538 163.92 108.397 163.562 102.287 163.132C95.8802 162.682 89.3611 162.147 82.9103 161.539C76.7143 160.961 70.3306 160.285 63.9395 159.529L63.6623 159.493C56.9514 158.692 49.6712 157.438 42.037 155.769C34.5521 154.131 26.71 152.097 18.7307 149.721C12.8014 147.952 8.01632 146.356 4.84326 145.252L17.8127 297.112ZM255.543 301.611H15.7466C14.5782 301.611 13.6044 300.716 13.505 299.552L0.062341 142.146C-0.00290279 141.378 0.329392 140.629 0.943451 140.162C1.55772 139.696 2.36687 139.577 3.0901 139.847C3.09479 139.848 3.36557 139.949 3.87142 140.134C6.59556 141.118 12.3241 143.115 20.0156 145.409C27.8881 147.753 35.6203 149.759 42.9986 151.373C50.492 153.012 57.6283 154.241 64.2113 155.028L64.4864 155.062C70.8231 155.812 77.1684 156.485 83.3303 157.06C89.747 157.664 96.2298 158.196 102.602 158.644C108.677 159.07 114.781 159.426 120.745 159.702C130.062 160.129 135.614 160.193 135.669 160.194C135.633 160.194 136.727 160.183 138.762 160.134C143.948 159.997 149.472 159.776 155.17 159.476C160.65 159.188 166.247 158.834 171.806 158.422C176.984 158.038 182.288 157.593 187.567 157.098C192.908 156.6 198.299 156.039 203.592 155.433C204.668 155.313 205.739 155.19 206.817 155.061C210.583 154.614 214.498 154.03 218.457 153.323C223.187 152.485 228.083 151.465 233.016 150.292C237.488 149.238 242.03 148.058 246.522 146.783C251.038 145.507 255.581 144.121 260.029 142.662C263.633 141.477 266.268 140.544 267.517 140.093C267.771 140.001 267.951 139.936 268.046 139.899C268.114 139.871 268.182 139.848 268.253 139.827L268.269 139.822C268.987 139.58 269.778 139.717 270.375 140.186C270.971 140.654 271.291 141.39 271.227 142.146L257.784 299.55C257.686 300.715 256.712 301.611 255.543 301.611Z" fill="#371A45"/>
<path d="M254.569 161.213L253.499 172.012L242.262 285.287H28.9179L17.9733 174.926L16.6122 161.213C16.6122 161.213 19.0869 162.13 23.8171 163.491C33.857 166.388 54.0591 171.303 82.2547 173.733C110.877 176.231 135.59 175.955 135.59 175.955C135.59 175.955 160.309 176.231 188.926 173.733C214.596 171.523 233.641 167.26 244.422 164.329C251.059 162.524 254.569 161.225 254.569 161.213Z" fill="#FFF0DE"/>
<path d="M138.192 253.349C138 253.349 137.807 253.316 137.622 253.249C113.97 244.772 87.4411 229.465 62.9214 210.147C36.2568 189.139 14.7943 165.687 0.854994 142.331C0.377392 141.53 0.638903 140.495 1.43921 140.017C2.23961 139.54 3.2752 139.801 3.7528 140.602C33.7291 190.832 95.2032 234.257 138.146 249.851C183.551 230.67 241.269 178.34 266.892 141.25C267.421 140.483 268.472 140.291 269.24 140.821C270.006 141.351 270.198 142.401 269.668 143.169C256.343 162.458 235.1 185.191 211.388 205.539C185.91 227.403 160.145 244.335 138.841 253.219C138.634 253.305 138.413 253.349 138.192 253.349Z" fill="#371A45"/>
<path d="M237.558 281.946H32.7451C64.7306 257.814 104.336 232.09 137.639 218.49C168.519 232.621 207.15 258.09 237.558 281.946Z" fill="white"/>
<path d="M137.478 228.986C137.478 228.986 174.78 242.876 237.391 285.485H36.6459C78.5426 254.898 137.478 228.986 137.478 228.986Z" fill="#FFF0DE"/>
<path d="M205.495 171.131C196.124 172.922 183.017 174.991 167.208 176.076C159.107 176.633 151.932 176.818 142.649 176.827C127.618 176.841 105.736 176.391 77.6578 174.264C77.8849 172.592 78.2207 170.745 78.7185 168.765C79.2505 166.646 79.8752 164.745 80.5117 163.079C72.0897 159.656 65.3702 155.86 60.4194 152.693C56.8214 150.39 51.1829 146.647 44.6372 140.603C41.9155 138.088 39.3335 135.383 36.971 132.514C30.8582 125.079 26.1672 116.497 24.0918 107.154C22.5114 100.141 22.8881 92.0131 26.7357 86.2872C27.7644 84.7574 29.0416 83.3971 30.5991 82.2777C35.099 79.0262 41.4933 78.5369 46.4261 81.0848C51.3588 83.6327 54.7169 89.0548 54.6658 94.6346C54.7724 91.6528 54.7169 87.8565 57.3768 86.2872C59.3789 85.1519 62.0334 86.0175 63.6645 87.6433C65.2903 89.2691 66.157 91.4897 67.0791 93.6048C72.2368 105.484 80.6332 115.894 91.005 123.684C92.8334 125.063 94.7225 126.356 96.6691 127.559C102.445 131.148 108.71 133.955 115.263 135.827C141.225 143.257 171.366 144.123 196.079 133.009C198.329 137.464 200.14 141.834 201.541 146.159C204.268 154.545 205.478 162.767 205.495 171.131Z" fill="white"/>
<path d="M79.8411 172.073C100.609 174.542 121.72 175.575 142.614 175.139C163.033 174.716 183.609 172.884 203.795 169.696C203.655 162.148 202.51 154.984 200.306 147.841C198.196 141.001 191.052 137.181 184.041 139.143C163.407 144.921 138.816 144.321 114.8 137.451C108.154 135.551 101.754 132.704 95.7768 128.991C82.389 120.692 71.6462 108.362 65.5301 94.2775L65.2796 93.6986C64.4779 91.8415 63.721 90.0867 62.4694 88.8362C61.3873 87.7541 59.526 87.0068 58.2083 87.7552C56.5442 88.7403 56.4514 91.5931 56.3704 94.1112L56.3512 94.6964C56.3171 95.6186 55.5335 96.3318 54.6263 96.3222C53.7031 96.3009 52.9686 95.5418 52.9771 94.6186C53.0251 89.7072 50.0806 84.8715 45.651 82.5837C41.2567 80.3129 35.6043 80.7394 31.5863 83.6444C24.5597 88.7083 24.0455 99.2742 25.7398 106.785C27.6375 115.342 31.8539 123.636 38.2759 131.44C40.5307 134.182 43.0562 136.846 45.7811 139.359C55.4099 148.239 69.013 156.143 83.1022 161.045C83.6129 161.223 84.0084 161.635 84.164 162.152C84.3197 162.67 84.2173 163.232 83.889 163.662C82.9519 164.891 82.1353 166.217 81.4637 167.604C80.7707 169.033 80.2281 170.53 79.8411 172.073ZM133.308 178.61C114.715 178.61 96.022 177.469 77.6045 175.202C77.1471 175.146 76.7324 174.904 76.4563 174.534C76.1813 174.164 76.0704 173.697 76.1482 173.242C76.5714 170.769 77.339 168.377 78.4264 166.132C78.8667 165.224 79.3614 164.338 79.9051 163.483C66.1431 158.397 52.9707 150.58 43.4933 141.84C40.6543 139.222 38.0222 136.445 35.6694 133.585C28.9072 125.365 24.4587 116.597 22.4465 107.521C20.4349 98.6047 21.26 86.9258 29.6119 80.9078C34.6331 77.2778 41.7023 76.7448 47.2 79.5848C50.314 81.1935 52.8406 83.8139 54.444 86.8949C54.9365 86.0847 55.605 85.3747 56.5154 84.8352C59.3405 83.2319 62.8436 84.4365 64.8553 86.4493C66.5631 88.1571 67.4853 90.2946 68.3776 92.3617L68.6239 92.931C74.4713 106.394 84.745 118.182 97.5561 126.124C103.269 129.672 109.383 132.392 115.728 134.207C139.152 140.906 163.09 141.507 183.131 135.894C191.916 133.434 200.877 138.245 203.531 146.847C205.975 154.768 207.17 162.71 207.184 171.13C207.185 171.959 206.584 172.666 205.765 172.798C184.966 176.153 163.742 178.076 142.684 178.513C139.564 178.578 136.436 178.61 133.308 178.61Z" fill="#371A45"/>
<path d="M154.392 163.488C126.661 163.488 102.822 148.383 92.3824 126.762C93.4933 127.534 94.6254 128.278 95.7768 128.991C98.3375 130.582 100.976 132.013 103.679 133.28C112.23 141.46 122.662 147.418 134.277 150.606C140.584 152.336 146.939 153.162 153.212 153.162C167.979 153.162 182.288 148.58 194.433 140.427C196.342 141.54 197.964 143.134 199.11 145.106C199.111 145.11 199.111 145.114 199.112 145.119L168.689 156.093C168.484 155.885 168.202 155.76 167.898 155.76C167.845 155.76 167.79 155.764 167.736 155.772C167.129 155.862 166.71 156.426 166.799 157.032L166.804 157.065C167.064 158.826 167.235 160.598 167.313 162.372C163.13 163.105 158.811 163.488 154.392 163.488ZM199.204 139.816C198.64 139.276 198.039 138.779 197.407 138.327C197.701 138.108 197.994 137.888 198.285 137.665C198.603 138.384 198.909 139.101 199.204 139.816Z" fill="#CDC6D0"/>
<path d="M199.11 145.106C197.964 143.134 196.342 141.54 194.433 140.427C195.44 139.751 196.43 139.052 197.407 138.327C198.039 138.779 198.64 139.276 199.204 139.816C199.682 140.973 200.13 142.125 200.548 143.274C200.41 143.288 200.271 143.32 200.136 143.371C199.416 143.644 199.006 144.375 199.11 145.106ZM103.679 133.28C100.976 132.013 98.3375 130.582 95.7768 128.991C94.6254 128.278 93.4933 127.534 92.3824 126.762C91.8941 125.75 91.4336 124.723 91.005 123.684C92.8334 125.063 94.7224 126.356 96.6691 127.559C97.7714 128.245 98.8929 128.902 100.03 129.528C101.204 130.826 102.422 132.077 103.679 133.28Z" fill="#371A45"/>
<path d="M30.5021 285.613H240.786L252.686 163.872C252.127 164.055 251.463 164.268 250.7 164.507C248.026 165.341 243.609 166.633 237.751 168.053C227.459 170.547 210.67 173.914 189.128 175.798C160.754 178.305 135.874 178.06 135.626 178.059C135.416 178.061 110.534 178.307 82.1598 175.798C48.4718 172.849 25.8695 166.228 18.6024 163.857L30.5021 285.613ZM242.317 288.989H28.9723C28.1034 288.989 27.3774 288.329 27.2932 287.465L14.9887 161.577C14.9321 160.997 15.1786 160.43 15.6408 160.075C16.1025 159.719 16.7145 159.628 17.2606 159.833C17.5006 159.923 41.7396 168.872 82.4551 172.437C110.657 174.929 135.379 174.686 135.626 174.685C135.908 174.686 160.631 174.929 188.832 172.437H188.833C229.253 168.903 253.154 160.163 253.962 159.859C254.178 159.767 254.414 159.72 254.667 159.726C255.552 159.75 256.268 160.454 256.306 161.339C256.315 161.518 256.304 161.678 256.276 161.821L243.996 287.465C243.912 288.329 243.185 288.989 242.317 288.989Z" fill="#371A45"/>
<path d="M81.2121 161.607C83.8389 158.398 86.6011 155.279 89.552 152.349C92.4997 149.414 95.6318 146.681 98.8663 144.112C99.3012 143.766 99.9334 143.837 100.28 144.272C100.614 144.691 100.555 145.298 100.16 145.65C97.1147 148.357 94.2086 151.195 91.5018 154.206C88.7908 157.214 86.2759 160.391 83.8826 163.671C83.3336 164.423 82.2771 164.588 81.5244 164.039C80.7707 163.49 80.6055 162.434 81.1556 161.681C81.1726 161.658 81.1939 161.629 81.2121 161.607Z" fill="#371A45"/>
<path d="M59.0026 152.693C58.9599 152.693 58.9173 152.692 58.8746 152.689C57.945 152.618 57.2489 151.809 57.3182 150.88C58.445 135.83 68.4523 121.603 82.2185 115.479C83.0703 115.099 84.0681 115.483 84.4466 116.335C84.825 117.185 84.4412 118.183 83.5905 118.562C70.9266 124.196 61.7211 137.285 60.6838 151.131C60.6166 152.018 59.8768 152.693 59.0026 152.693Z" fill="#371A45"/>
<path d="M55.3843 96.7008C52.7287 98.0387 50.5721 100.606 49.6168 103.571C48.6595 106.508 49.0113 109.945 50.5358 112.783L50.539 112.788C50.7661 113.211 50.6072 113.74 50.1829 113.968C49.78 114.184 49.281 114.048 49.0369 113.671C47.0476 110.565 46.2662 106.633 47.15 102.89C48.0369 99.2018 50.3578 95.8341 53.7276 93.7606L53.7394 93.7531C54.5336 93.2649 55.5741 93.5122 56.0634 94.3064C56.5517 95.1017 56.3043 96.1422 55.509 96.6305C55.4696 96.655 55.4259 96.6795 55.3843 96.7008Z" fill="#371A45"/>
<path d="M25.7417 287.301L26.0507 287.903H24.9666C25.2214 287.702 25.4815 287.501 25.7417 287.301Z" fill="white"/>
<path d="M15.7456 301.049C15.3661 301.049 14.9845 300.921 14.6696 300.66C13.9524 300.065 13.8529 299.002 14.448 298.285C37.5936 270.372 96.3557 234.326 137.524 216.936C137.965 216.751 138.462 216.759 138.894 216.962C181.198 236.703 236.3 274.691 256.815 298.254C257.427 298.957 257.353 300.023 256.651 300.635C255.948 301.245 254.882 301.173 254.27 300.469C234.115 277.32 180.013 240.005 138.147 220.337C97.2064 237.76 39.0222 273.936 17.0455 300.438C16.7117 300.841 16.2305 301.049 15.7456 301.049Z" fill="#371A45"/>
<path d="M55.5325 262.865C72.1515 249.31 86.7365 239.378 86.7365 239.378C61.9023 223.925 36.8037 198.729 20.0217 178.378L18.9868 167.79C31.1343 182.461 45.9773 196.798 62.9215 210.147C72.7954 217.926 82.9946 225.055 93.2012 231.349C93.6404 231.966 94.0242 232.603 94.3248 233.272C94.327 233.268 94.3291 233.264 94.3302 233.26C94.8035 234.307 95.0732 235.434 95.0359 236.686C95.0199 237.213 94.9485 237.718 94.8312 238.206C81.3763 245.802 67.8606 254.23 55.5325 262.865ZM86.0979 222.64C62.6059 207.016 39.0531 186.904 20.6979 164.521C22.1881 164.982 24.027 165.526 26.2016 166.127C46.6713 182.743 69.0738 198.67 86.2589 210.379C84.5393 214.229 84.2717 218.904 86.0979 222.64Z" fill="#CDBAB8"/>
<path d="M93.2011 231.349C82.9945 225.055 72.7954 217.926 62.9214 210.147C45.9772 196.798 31.1343 182.461 18.9868 167.79L18.6024 163.857C19.1985 164.051 19.8976 164.274 20.6978 164.521C39.0531 186.905 62.6059 207.016 86.0979 222.641C86.277 223.007 86.4763 223.364 86.697 223.712C86.697 223.712 86.6981 223.713 86.6981 223.714C86.7013 223.718 86.7045 223.723 86.7066 223.727C86.7077 223.729 86.7098 223.732 86.7109 223.734C86.713 223.738 86.7162 223.742 86.7183 223.746C86.7205 223.748 86.7215 223.751 86.7237 223.754C86.7258 223.757 86.7279 223.761 86.7301 223.764C86.7322 223.767 86.7343 223.771 86.7365 223.774C86.7397 223.778 86.7429 223.783 86.7461 223.788C86.7482 223.793 86.7514 223.797 86.7546 223.802C86.7567 223.805 86.7578 223.808 86.7599 223.81C86.7621 223.813 86.7653 223.818 86.7674 223.821C86.7695 223.824 86.7706 223.827 86.7727 223.83C86.7748 223.834 86.778 223.837 86.7802 223.841C86.7823 223.844 86.7834 223.846 86.7855 223.85C86.7887 223.854 86.7908 223.857 86.794 223.861C86.7951 223.863 86.7962 223.867 86.7983 223.869C86.8026 223.875 86.8068 223.882 86.8111 223.888C86.8154 223.893 86.8186 223.9 86.8228 223.906C86.8239 223.907 86.8239 223.907 86.825 223.908C86.8281 223.915 86.8324 223.92 86.8367 223.926C86.8367 223.927 86.8367 223.927 86.8377 223.927C86.841 223.933 86.8441 223.938 86.8484 223.943C86.8495 223.945 86.8505 223.947 86.8505 223.948C86.8548 223.954 86.858 223.958 86.8623 223.965C86.8633 223.966 86.8644 223.968 86.8655 223.969C86.8676 223.973 86.8708 223.977 86.8729 223.981C86.8751 223.984 86.8761 223.986 86.8783 223.988C86.8815 223.992 86.8847 223.998 86.8868 224.002C86.89 224.005 86.8921 224.008 86.8942 224.013C86.8953 224.014 86.8964 224.015 86.8964 224.016C88.6789 226.647 91.4037 228.826 93.2011 231.349Z" fill="#371A45"/>
<path d="M20.0216 178.378C19.1147 177.278 18.2333 176.194 17.3763 175.124L16.0151 161.412C16.0151 161.412 18.4899 162.329 23.22 163.691C24.2078 164.503 25.2037 165.316 26.2016 166.127C24.027 165.526 22.1881 164.982 20.6978 164.521C19.8976 164.274 19.1985 164.051 18.6024 163.857L18.9868 167.79L20.0216 178.378Z" fill="#371A45"/>
<path d="M81.3496 250.137C84.7237 248.071 88.1234 246.042 91.5327 244.06C91.4997 244.106 91.4656 244.152 91.4325 244.197C88.1405 246.11 84.7706 248.094 81.3496 250.137Z" fill="#CDC6D0"/>
<path d="M37.8825 278.152C43.6564 272.794 49.7191 267.608 55.5324 262.866C67.8605 254.23 81.3762 245.802 94.8312 238.206C94.3152 240.367 92.9133 242.193 91.5327 244.06C88.1234 246.042 84.7237 248.071 81.3496 250.137C66.9032 258.764 51.5933 268.427 37.8825 278.152Z" fill="#371A45"/>
<path d="M147.551 207.52C144.023 207.455 144.253 197.769 138.367 194.354C132.564 190.987 124.47 195.72 123.425 196.619C120.714 198.949 118.707 202.319 115.607 203.959C111.954 205.89 107.92 204.96 103.828 204.029C100.643 203.305 97.4228 202.58 94.3215 203.205C86.407 204.8 82.0734 216.731 86.811 223.888C89.6863 228.232 95.1978 231.314 95.0358 236.686C94.9015 241.131 90.8088 244.049 89.0306 248.043C85.7109 255.499 91.9314 264.755 99.3278 266.396C106.724 268.038 114.211 264.333 120.63 259.968C123.896 257.747 127.236 255.257 131.062 254.905C139.701 254.111 146.256 264.231 154.865 265.355C158.566 265.839 162.334 264.56 165.501 262.397C176.354 254.986 179.412 238.873 177.986 224.906C177.344 218.627 176.612 211.246 171.051 206.253C165.88 201.61 157.16 199.586 152.122 203.341C149.621 205.205 149.289 207.552 147.551 207.52Z" fill="#371A45"/>
<path d="M94.3248 233.272C94.0242 232.603 93.6404 231.967 93.2011 231.349C93.2075 231.354 93.2139 231.358 93.2203 231.361C93.6532 231.97 94.0327 232.6 94.3301 233.26C94.3291 233.264 94.3269 233.268 94.3248 233.272Z" fill="#4A4A53"/>
<path d="M93.2203 231.361C93.2139 231.358 93.2075 231.353 93.2011 231.349C91.4037 228.826 88.6789 226.647 86.8964 224.016C88.6831 226.652 91.4208 228.831 93.2203 231.361ZM86.8942 224.012C86.8921 224.008 86.89 224.005 86.8868 224.002C86.89 224.005 86.8921 224.008 86.8942 224.012ZM86.8783 223.988C86.8761 223.986 86.8751 223.984 86.8729 223.98C86.8751 223.983 86.8761 223.986 86.8783 223.988ZM86.8655 223.969C86.8644 223.968 86.8633 223.965 86.8623 223.964C86.8633 223.965 86.8644 223.968 86.8655 223.969ZM86.8505 223.947C86.8505 223.946 86.8495 223.945 86.8484 223.943C86.8484 223.944 86.8505 223.946 86.8505 223.947ZM86.8377 223.927C86.8367 223.927 86.8367 223.927 86.8367 223.926C86.8367 223.927 86.8367 223.927 86.8377 223.927ZM86.825 223.908C86.8239 223.907 86.8239 223.907 86.8228 223.906C86.8239 223.907 86.8239 223.907 86.825 223.908ZM86.8111 223.888C86.8068 223.881 86.8026 223.875 86.7983 223.868C86.8026 223.875 86.8068 223.881 86.8111 223.888ZM86.794 223.861C86.7908 223.857 86.7887 223.854 86.7855 223.849C86.7876 223.852 86.7908 223.858 86.794 223.861ZM86.7802 223.841C86.778 223.836 86.7748 223.833 86.7727 223.83C86.7748 223.833 86.778 223.838 86.7802 223.841ZM86.7674 223.82C86.7652 223.817 86.7621 223.813 86.7599 223.81C86.7621 223.813 86.7652 223.817 86.7674 223.82ZM86.7546 223.801C86.7514 223.797 86.7482 223.793 86.7461 223.787C86.7482 223.793 86.7514 223.797 86.7546 223.801ZM86.7365 223.774C86.7343 223.77 86.7322 223.767 86.7301 223.764C86.7333 223.768 86.7343 223.77 86.7365 223.774ZM86.7237 223.753C86.7215 223.751 86.7205 223.748 86.7183 223.746C86.7205 223.748 86.7215 223.751 86.7237 223.753ZM86.7109 223.734C86.7098 223.732 86.7077 223.729 86.7066 223.727C86.7077 223.73 86.7098 223.732 86.7109 223.734ZM86.6981 223.714C86.6981 223.713 86.697 223.712 86.697 223.712C86.697 223.712 86.6981 223.713 86.6981 223.714Z" fill="#1C1A31"/>
<path d="M94.3301 233.26C94.0327 232.6 93.6532 231.97 93.2204 231.361C91.4208 228.831 88.6832 226.652 86.8964 224.016C86.8964 224.015 86.8953 224.014 86.8943 224.013C86.8921 224.008 86.89 224.005 86.8868 224.002C86.8836 223.998 86.8815 223.992 86.8783 223.988C86.8762 223.986 86.8751 223.983 86.873 223.981C86.8708 223.977 86.8676 223.973 86.8655 223.969C86.8644 223.968 86.8634 223.966 86.8623 223.965C86.858 223.959 86.8548 223.954 86.8506 223.948C86.8506 223.947 86.8484 223.944 86.8484 223.943C86.8442 223.938 86.841 223.933 86.8378 223.927C86.8367 223.927 86.8367 223.927 86.8367 223.926C86.8324 223.921 86.8282 223.915 86.825 223.908C86.8239 223.907 86.8239 223.907 86.8228 223.906C86.8186 223.9 86.8154 223.893 86.8111 223.888C86.8069 223.882 86.8026 223.875 86.7983 223.869C86.7962 223.867 86.7951 223.863 86.7941 223.861C86.7909 223.858 86.7877 223.853 86.7855 223.85C86.7834 223.846 86.7823 223.843 86.7802 223.841C86.7781 223.838 86.7749 223.834 86.7727 223.83C86.7706 223.827 86.7695 223.824 86.7674 223.821C86.7653 223.818 86.7621 223.813 86.76 223.81C86.7578 223.807 86.7568 223.805 86.7546 223.802C86.7514 223.797 86.7482 223.793 86.7461 223.788C86.7429 223.783 86.7397 223.778 86.7365 223.774C86.7344 223.771 86.7333 223.769 86.7301 223.764C86.728 223.761 86.7258 223.757 86.7237 223.754C86.7216 223.751 86.7205 223.748 86.7184 223.746C86.7162 223.742 86.713 223.738 86.7109 223.734C86.7098 223.732 86.7077 223.73 86.7067 223.727C86.7045 223.723 86.7013 223.718 86.6981 223.714C86.6981 223.713 86.6971 223.712 86.6971 223.712C84.841 220.786 84.4636 217.1 85.1971 213.654C85.5116 215.009 86.0382 216.304 86.8111 217.471C89.6863 221.815 95.1979 224.899 95.0359 230.27C95.0028 231.344 94.7363 232.328 94.3301 233.26Z" fill="#1C1A31"/>
<path d="M103.003 266.793C109.173 266.793 115.273 263.61 120.63 259.968C123.896 257.748 127.236 255.257 131.062 254.905C131.387 254.876 131.71 254.861 132.03 254.861C140.199 254.861 146.581 264.273 154.865 265.355C146.581 264.273 140.199 254.861 132.03 254.861C131.71 254.861 131.387 254.876 131.062 254.905C127.236 255.257 123.896 257.748 120.63 259.968C115.273 263.61 109.173 266.793 103.003 266.793ZM99.5571 266.446C99.4804 266.43 99.4047 266.414 99.3279 266.397C99.3204 266.394 99.3141 266.393 99.3066 266.391C99.3141 266.393 99.3204 266.394 99.3279 266.397C99.4047 266.414 99.4804 266.43 99.5571 266.446ZM99.3002 266.39C99.2948 266.389 99.2906 266.388 99.2853 266.387C99.2895 266.388 99.2948 266.389 99.3002 266.39ZM99.2778 266.385C99.2735 266.384 99.2693 266.383 99.2639 266.382C99.2682 266.383 99.2735 266.384 99.2778 266.385ZM99.2565 266.381C99.2522 266.38 99.248 266.379 99.2437 266.377C99.248 266.379 99.2522 266.38 99.2565 266.381ZM99.2341 266.375C99.2298 266.374 99.2266 266.373 99.2224 266.372C99.2266 266.373 99.2309 266.374 99.2341 266.375ZM99.2138 266.37C99.2096 266.369 99.2053 266.369 99.201 266.368C99.2053 266.369 99.2085 266.369 99.2138 266.37ZM99.1925 266.366C99.1882 266.365 99.184 266.364 99.1797 266.363C99.184 266.364 99.1882 266.365 99.1925 266.366ZM99.1712 266.36C99.1669 266.359 99.1627 266.358 99.1584 266.357C99.1627 266.358 99.1669 266.359 99.1712 266.36ZM99.1499 266.355C99.1456 266.354 99.1413 266.353 99.1371 266.353C99.1413 266.353 99.1456 266.354 99.1499 266.355ZM99.1285 266.351C99.1253 266.35 99.1211 266.349 99.1168 266.348C99.12 266.349 99.1253 266.35 99.1285 266.351ZM99.1072 266.345C99.103 266.344 99.0998 266.343 99.0955 266.342C99.0998 266.343 99.104 266.344 99.1072 266.345ZM99.087 266.34C99.0827 266.339 99.0784 266.338 99.0742 266.337C99.0784 266.338 99.0827 266.339 99.087 266.34ZM99.0656 266.335C99.0614 266.334 99.0571 266.333 99.0529 266.332C99.0571 266.333 99.0614 266.334 99.0656 266.335ZM99.0443 266.329C99.0401 266.328 99.0347 266.327 99.0305 266.326C99.0358 266.327 99.0401 266.328 99.0443 266.329ZM99.023 266.324C99.0177 266.323 99.0134 266.322 99.0081 266.321C99.0134 266.322 99.0177 266.323 99.023 266.324ZM99.0028 266.319C98.9964 266.318 98.991 266.317 98.9846 266.315C98.991 266.316 98.9964 266.318 99.0028 266.319ZM98.9814 266.313C98.9676 266.31 98.9537 266.307 98.9388 266.303C98.9537 266.307 98.9676 266.31 98.9814 266.313ZM98.9388 266.303C98.9324 266.301 98.9239 266.299 98.9175 266.297C98.9249 266.3 98.9313 266.301 98.9388 266.303ZM98.9153 266.296C98.9089 266.295 98.9036 266.293 98.8972 266.292C98.9036 266.293 98.9089 266.295 98.9153 266.296ZM98.8908 266.29C98.8855 266.289 98.8812 266.288 98.8759 266.286C98.8802 266.288 98.8866 266.289 98.8908 266.29ZM98.8695 266.285C98.8642 266.284 98.8599 266.283 98.8546 266.28C98.8599 266.283 98.8642 266.284 98.8695 266.285ZM98.8471 266.278C98.8428 266.277 98.8386 266.276 98.8343 266.275C98.8386 266.276 98.8428 266.277 98.8471 266.278ZM98.8258 266.273C98.8215 266.272 98.8183 266.271 98.813 266.27C98.8173 266.271 98.8215 266.272 98.8258 266.273ZM98.8045 266.268C98.8002 266.267 98.7959 266.264 98.7927 266.263C98.7959 266.264 98.8002 266.265 98.8045 266.268ZM98.7831 266.261C98.7789 266.26 98.7746 266.259 98.7703 266.258C98.7757 266.259 98.7789 266.26 98.7831 266.261ZM98.7629 266.256C98.7586 266.255 98.7544 266.254 98.7501 266.252C98.7544 266.254 98.7586 266.255 98.7629 266.256ZM98.7416 266.25C98.7373 266.248 98.733 266.247 98.7288 266.246C98.733 266.247 98.7373 266.248 98.7416 266.25ZM98.7202 266.244C98.716 266.243 98.7117 266.242 98.7074 266.24C98.7117 266.242 98.716 266.243 98.7202 266.244ZM98.7 266.238C98.6947 266.237 98.6904 266.236 98.6861 266.235C98.6904 266.236 98.6957 266.237 98.7 266.238ZM98.6787 266.232C98.6744 266.231 98.6701 266.229 98.6648 266.228C98.6701 266.229 98.6744 266.23 98.6787 266.232ZM98.6573 266.226C98.6531 266.225 98.6499 266.224 98.6456 266.223C98.6499 266.224 98.6541 266.225 98.6573 266.226ZM98.6371 266.22C98.6328 266.219 98.6275 266.218 98.6232 266.216C98.6275 266.218 98.6318 266.219 98.6371 266.22ZM98.6158 266.214C98.6104 266.212 98.604 266.211 98.5987 266.209C98.604 266.211 98.6104 266.212 98.6158 266.214ZM98.5955 266.208C98.588 266.206 98.5806 266.204 98.5742 266.202C98.5816 266.204 98.588 266.206 98.5955 266.208ZM98.5699 266.2C98.5646 266.199 98.5582 266.197 98.5529 266.196C98.5582 266.197 98.5646 266.199 98.5699 266.2ZM98.5465 266.194C98.5411 266.192 98.5369 266.191 98.5326 266.19C98.5369 266.191 98.5422 266.192 98.5465 266.194ZM98.5251 266.188C98.5209 266.186 98.5155 266.184 98.5113 266.183C98.5166 266.184 98.5209 266.186 98.5251 266.188ZM98.5028 266.18C98.4985 266.179 98.4953 266.178 98.491 266.177C98.4942 266.178 98.4996 266.179 98.5028 266.18ZM98.4814 266.174C98.4772 266.173 98.474 266.172 98.4708 266.171C98.474 266.172 98.4772 266.173 98.4814 266.174ZM98.4591 266.167C98.4559 266.166 98.4527 266.165 98.4495 266.164C98.4527 266.165 98.4559 266.166 98.4591 266.167ZM98.4388 266.161C98.4356 266.16 98.4324 266.159 98.4292 266.158C98.4324 266.159 98.4356 266.16 98.4388 266.161ZM98.4185 266.155C98.4143 266.154 98.4121 266.153 98.4079 266.151C98.4111 266.153 98.4153 266.154 98.4185 266.155ZM98.3972 266.148C98.394 266.147 98.3908 266.146 98.3876 266.145C98.3908 266.146 98.394 266.147 98.3972 266.148ZM98.3759 266.142C98.3727 266.141 98.3706 266.14 98.3674 266.139C98.3706 266.14 98.3738 266.141 98.3759 266.142ZM98.3556 266.135C98.3535 266.134 98.3493 266.133 98.3471 266.132C98.3503 266.133 98.3524 266.134 98.3556 266.135ZM98.3343 266.128C98.3322 266.128 98.3301 266.127 98.3269 266.126C98.3301 266.127 98.3322 266.128 98.3343 266.128ZM98.3141 266.122C98.3119 266.122 98.3098 266.121 98.3077 266.119C98.3098 266.121 98.3119 266.122 98.3141 266.122ZM98.2927 266.115C98.2906 266.115 98.2896 266.114 98.2885 266.114C98.2896 266.114 98.2917 266.115 98.2927 266.115ZM98.2725 266.109C98.2714 266.109 98.2693 266.108 98.2682 266.108C98.2693 266.108 98.2714 266.108 98.2725 266.109ZM98.0721 266.042H98.071C98.071 266.042 98.071 266.042 98.0721 266.042ZM98.0518 266.035L98.0507 266.034C98.0518 266.035 98.0507 266.034 98.0518 266.035ZM98.0315 266.028H98.0305C98.0316 266.028 98.0305 266.028 98.0315 266.028ZM158.026 265.36C158.947 265.248 159.86 265.042 160.755 264.754C159.86 265.042 158.947 265.248 158.026 265.36Z" fill="#595B5F"/>
<path d="M103.003 266.793C101.856 266.793 100.705 266.683 99.5571 266.446C99.4803 266.43 99.4046 266.414 99.3279 266.397C99.3204 266.394 99.314 266.393 99.3065 266.391C99.3044 266.391 99.3023 266.39 99.3001 266.39C99.2948 266.389 99.2895 266.388 99.2852 266.387C99.2831 266.386 99.2809 266.386 99.2777 266.385C99.2735 266.384 99.2682 266.383 99.2639 266.382C99.2618 266.382 99.2596 266.381 99.2564 266.381C99.2522 266.38 99.2479 266.379 99.2436 266.377C99.2404 266.376 99.2372 266.376 99.234 266.375C99.2308 266.374 99.2266 266.373 99.2223 266.372C99.2191 266.372 99.2159 266.371 99.2138 266.37C99.2085 266.369 99.2053 266.369 99.201 266.368C99.1978 266.367 99.1957 266.366 99.1925 266.366C99.1882 266.365 99.1839 266.364 99.1797 266.363C99.1775 266.361 99.1733 266.361 99.1711 266.36C99.1669 266.359 99.1626 266.358 99.1584 266.357C99.1562 266.357 99.153 266.356 99.1498 266.355C99.1456 266.354 99.1413 266.353 99.137 266.353C99.1349 266.352 99.1317 266.351 99.1285 266.351C99.1253 266.35 99.12 266.349 99.1168 266.348C99.1136 266.347 99.1104 266.345 99.1072 266.345C99.104 266.344 99.0997 266.343 99.0955 266.342C99.0923 266.341 99.0901 266.341 99.0869 266.34C99.0827 266.339 99.0784 266.338 99.0741 266.337C99.0709 266.336 99.0688 266.336 99.0656 266.335C99.0613 266.334 99.0571 266.333 99.0528 266.332C99.0496 266.331 99.0475 266.331 99.0443 266.329C99.04 266.328 99.0358 266.327 99.0304 266.326C99.0283 266.325 99.0262 266.325 99.023 266.324C99.0176 266.323 99.0134 266.322 99.008 266.321C99.007 266.32 99.0038 266.32 99.0027 266.319C98.9963 266.318 98.991 266.316 98.9846 266.315C98.9835 266.315 98.9825 266.315 98.9814 266.313C98.9675 266.31 98.9537 266.307 98.9387 266.303C98.9313 266.301 98.9249 266.3 98.9174 266.297C98.9164 266.297 98.9163 266.297 98.9153 266.296C98.9089 266.295 98.9036 266.293 98.8972 266.292C98.895 266.291 98.8929 266.291 98.8908 266.29C98.8865 266.289 98.8801 266.288 98.8758 266.286C98.8737 266.286 98.8716 266.285 98.8695 266.285C98.8641 266.284 98.8599 266.283 98.8545 266.28C98.8524 266.28 98.8502 266.279 98.8471 266.278C98.8428 266.277 98.8385 266.276 98.8343 266.275C98.8311 266.274 98.8289 266.274 98.8257 266.273C98.8215 266.272 98.8172 266.271 98.8129 266.27C98.8097 266.269 98.8076 266.268 98.8044 266.268C98.8001 266.265 98.7959 266.264 98.7927 266.263C98.7895 266.263 98.7863 266.262 98.7831 266.261C98.7788 266.26 98.7756 266.259 98.7703 266.258C98.7682 266.257 98.765 266.256 98.7628 266.256C98.7586 266.255 98.7543 266.254 98.75 266.252C98.7468 266.252 98.7447 266.251 98.7415 266.25C98.7373 266.248 98.733 266.247 98.7287 266.246C98.7255 266.245 98.7234 266.245 98.7202 266.244C98.7159 266.243 98.7117 266.242 98.7074 266.24C98.7053 266.24 98.7021 266.239 98.6999 266.238C98.6957 266.237 98.6903 266.236 98.6861 266.235C98.6839 266.234 98.6808 266.232 98.6786 266.232C98.6744 266.23 98.6701 266.229 98.6648 266.228C98.6626 266.227 98.6605 266.227 98.6573 266.226C98.6541 266.225 98.6498 266.224 98.6456 266.223C98.6424 266.222 98.6392 266.221 98.637 266.22C98.6317 266.219 98.6274 266.218 98.6232 266.216C98.621 266.215 98.6179 266.214 98.6157 266.214C98.6104 266.212 98.604 266.211 98.5987 266.209C98.5976 266.209 98.5965 266.208 98.5955 266.208C98.588 266.206 98.5816 266.204 98.5741 266.202C98.572 266.202 98.572 266.202 98.5699 266.2C98.5645 266.199 98.5581 266.197 98.5528 266.196C98.5507 266.195 98.5486 266.194 98.5464 266.194C98.5422 266.192 98.5368 266.191 98.5326 266.19C98.5304 266.189 98.5272 266.188 98.5251 266.188C98.5208 266.186 98.5166 266.184 98.5112 266.183C98.5091 266.182 98.5059 266.181 98.5027 266.18C98.4995 266.179 98.4942 266.178 98.491 266.177C98.4878 266.176 98.4846 266.175 98.4814 266.174C98.4771 266.173 98.4739 266.172 98.4707 266.171C98.4665 266.17 98.4633 266.168 98.459 266.167C98.4558 266.166 98.4526 266.165 98.4494 266.164C98.4462 266.163 98.443 266.162 98.4388 266.161C98.4356 266.16 98.4324 266.159 98.4292 266.158C98.4249 266.157 98.4217 266.156 98.4185 266.155C98.4153 266.154 98.411 266.153 98.4078 266.151C98.4046 266.15 98.4004 266.149 98.3972 266.148C98.394 266.147 98.3908 266.146 98.3876 266.145C98.3844 266.144 98.3801 266.143 98.3759 266.142C98.3737 266.141 98.3705 266.14 98.3673 266.139C98.3631 266.138 98.3599 266.137 98.3556 266.135C98.3524 266.134 98.3503 266.133 98.3471 266.132C98.3428 266.131 98.3385 266.13 98.3343 266.128C98.3321 266.128 98.33 266.127 98.3268 266.126C98.3226 266.125 98.3183 266.124 98.314 266.122C98.3119 266.122 98.3098 266.121 98.3076 266.119C98.3023 266.118 98.297 266.116 98.2927 266.115C98.2916 266.115 98.2895 266.114 98.2884 266.114C98.2831 266.112 98.2778 266.111 98.2725 266.109C98.2714 266.108 98.2693 266.108 98.2682 266.108C98.2159 266.091 98.1637 266.073 98.1115 266.055C98.0976 266.05 98.0848 266.046 98.072 266.042C98.071 266.042 98.071 266.042 98.071 266.042C98.0646 266.039 98.0582 266.037 98.0518 266.035C98.0507 266.034 98.0518 266.035 98.0507 266.034C98.0443 266.032 98.0379 266.03 98.0315 266.028C98.0304 266.028 98.0315 266.028 98.0304 266.028C91.6265 263.805 86.5382 256.044 88.5733 249.287C89.9667 254.38 94.3823 258.883 99.3279 259.98C100.552 260.252 101.779 260.378 103.003 260.378C109.173 260.378 115.273 257.194 120.63 253.553C123.896 251.332 127.236 248.842 131.062 248.49C131.388 248.46 131.71 248.445 132.03 248.445C140.198 248.445 146.581 257.857 154.865 258.939C155.392 259.008 155.919 259.041 156.446 259.041C159.626 259.041 162.785 257.836 165.501 255.981C170.965 252.25 174.452 246.314 176.387 239.555C176.797 239.83 177.205 240.104 177.616 240.381C176.181 249.385 172.431 257.665 165.501 262.397C164.027 263.404 162.422 264.22 160.755 264.754C159.86 265.042 158.947 265.248 158.026 265.36C157.501 265.424 156.974 265.457 156.446 265.457C155.919 265.457 155.392 265.424 154.865 265.355C146.581 264.273 140.199 254.861 132.03 254.861C131.71 254.861 131.387 254.876 131.062 254.905C127.236 255.257 123.896 257.748 120.63 259.968C115.273 263.61 109.173 266.793 103.003 266.793Z" fill="#1C1A31"/>
<path d="M107.671 218.513L108.141 219.955L109.596 220.385C109.99 220.5 110.079 221.017 109.748 221.259L108.522 222.152L108.563 223.668C108.574 224.078 108.11 224.323 107.779 224.082L106.549 223.193L105.121 223.7C104.734 223.838 104.359 223.472 104.484 223.082L104.95 221.638L104.026 220.436C103.777 220.111 104.008 219.641 104.417 219.639L105.934 219.637L106.793 218.387C107.025 218.049 107.543 218.124 107.671 218.513Z" fill="#FFD243"/>
<path d="M108.563 223.668C108.574 224.079 108.11 224.323 107.779 224.082L106.551 223.193L105.121 223.7C104.734 223.838 104.359 223.472 104.484 223.082L104.628 222.634C104.734 222.843 104.983 222.971 105.238 222.88L106.668 222.373L107.896 223.263C108.114 223.421 108.391 223.37 108.55 223.198L108.563 223.668Z" fill="#FFA92C"/>
<path d="M105.935 219.998L104.465 219.991L104.391 219.894C104.334 219.82 104.304 219.736 104.3 219.654C104.337 219.645 104.377 219.64 104.417 219.64L106.176 219.646L105.935 219.998Z" fill="#FFEDB4"/>
<path d="M109.043 220.221L108.141 219.955L107.671 218.513C107.65 218.449 107.619 218.393 107.579 218.348C107.619 218.393 107.65 218.449 107.671 218.513L108.142 219.955L109.043 220.221ZM106.682 218.548L106.793 218.387C106.817 218.351 106.846 218.319 106.876 218.292C106.846 218.319 106.817 218.351 106.793 218.387L106.682 218.548Z" fill="#AFA3B5"/>
<path d="M109.346 220.786C109.312 220.765 109.274 220.748 109.233 220.737L107.779 220.307L107.307 218.865C107.235 218.644 107.037 218.525 106.835 218.525C106.784 218.525 106.732 218.532 106.682 218.548L106.793 218.387C106.817 218.351 106.846 218.319 106.876 218.292C106.968 218.211 107.085 218.172 107.199 218.172C107.342 218.172 107.483 218.232 107.579 218.348C107.619 218.393 107.65 218.449 107.671 218.513L108.141 219.955L109.043 220.221L109.596 220.385C109.636 220.397 109.672 220.411 109.705 220.432C109.677 220.51 109.626 220.58 109.55 220.636L109.346 220.786Z" fill="#FFEDB4"/>
<path d="M105.112 221.819L104.026 220.436C103.826 220.175 103.935 219.819 104.201 219.691L105.333 221.134L105.112 221.819Z" fill="#FFA92C"/>
<path d="M109.748 221.258L108.324 222.253L108.304 221.535L109.79 220.493C110.009 220.691 110.014 221.064 109.748 221.258Z" fill="#FFA92C"/>
<path d="M106.57 223.051L107.853 223.98C107.968 224.064 108.113 224.075 108.24 224.007C108.367 223.941 108.441 223.815 108.436 223.671L108.394 222.089L109.673 221.156C109.789 221.072 109.844 220.938 109.819 220.796C109.795 220.654 109.699 220.547 109.561 220.506L108.042 220.056L107.55 218.552C107.506 218.416 107.395 218.322 107.253 218.301C107.112 218.282 106.978 218.34 106.897 218.458L106.001 219.763L104.417 219.766C104.274 219.766 104.151 219.844 104.088 219.972C104.024 220.101 104.039 220.246 104.126 220.359L105.091 221.614L104.605 223.121C104.56 223.257 104.595 223.398 104.698 223.498C104.801 223.599 104.942 223.63 105.078 223.581L106.57 223.051ZM108.068 224.303C107.941 224.303 107.813 224.264 107.704 224.184L106.529 223.333L105.162 223.819C104.939 223.897 104.692 223.846 104.522 223.679C104.351 223.514 104.29 223.269 104.364 223.043L104.811 221.663L103.926 220.514C103.781 220.324 103.756 220.074 103.861 219.861C103.966 219.647 104.18 219.515 104.417 219.514L105.868 219.511L106.688 218.315C106.823 218.119 107.054 218.021 107.289 218.052C107.525 218.086 107.717 218.247 107.79 218.473L108.241 219.853L109.633 220.263C109.861 220.331 110.028 220.518 110.069 220.753C110.109 220.987 110.014 221.22 109.822 221.36L108.65 222.215L108.689 223.665C108.695 223.903 108.569 224.12 108.359 224.231C108.267 224.279 108.167 224.303 108.068 224.303Z" fill="#371A45"/>
<path d="M117.92 225.683L118.771 226.939L120.288 226.95C120.698 226.954 120.927 227.425 120.675 227.748L119.743 228.946L120.202 230.392C120.325 230.783 119.948 231.145 119.562 231.006L118.136 230.49L116.902 231.373C116.568 231.611 116.106 231.364 116.12 230.955L116.17 229.439L114.949 228.538C114.619 228.295 114.711 227.779 115.106 227.665L116.562 227.244L117.042 225.804C117.172 225.415 117.691 225.344 117.92 225.683Z" fill="#FFD243"/>
<path d="M120.202 230.392C120.326 230.783 119.947 231.145 119.562 231.006L118.136 230.491L116.902 231.373C116.568 231.611 116.107 231.364 116.12 230.955L116.135 230.485C116.294 230.656 116.57 230.709 116.789 230.553L118.023 229.67L119.449 230.186C119.703 230.278 119.953 230.152 120.06 229.944L120.202 230.392Z" fill="#FFA92C"/>
<path d="M115.249 227.989L115.149 227.916C115.074 227.861 115.024 227.789 114.996 227.712C115.03 227.691 115.066 227.676 115.106 227.665L116.798 227.185L116.663 227.59L115.249 227.989Z" fill="#FFEDB4"/>
<path d="M119.906 226.948L118.771 226.939L117.92 225.683C117.884 225.63 117.84 225.586 117.791 225.552C117.84 225.586 117.884 225.63 117.921 225.683L118.772 226.939L119.906 226.948ZM116.98 225.99L117.042 225.805C117.05 225.777 117.062 225.751 117.075 225.728C117.062 225.751 117.051 225.777 117.042 225.805L116.98 225.99Z" fill="#AFA3B5"/>
<path d="M120.158 227.405C120.12 227.394 120.079 227.39 120.036 227.389L118.519 227.378L117.669 226.122C117.568 225.974 117.415 225.905 117.261 225.905C117.162 225.905 117.063 225.933 116.98 225.99L117.042 225.804C117.051 225.777 117.062 225.751 117.075 225.728C117.164 225.557 117.338 225.466 117.513 225.466C117.61 225.466 117.708 225.494 117.791 225.552C117.84 225.586 117.884 225.63 117.92 225.683L118.771 226.939L119.906 226.947L120.288 226.95C120.33 226.95 120.369 226.956 120.406 226.965C120.401 227.047 120.371 227.131 120.314 227.205L120.158 227.405Z" fill="#FFEDB4"/>
<path d="M116.374 229.568L114.949 228.538C114.684 228.342 114.691 227.97 114.911 227.773L116.398 228.848L116.374 229.568Z" fill="#FFA92C"/>
<path d="M120.675 227.748L119.582 229.099L119.364 228.412L120.504 227.002C120.769 227.132 120.877 227.488 120.675 227.748Z" fill="#FFA92C"/>
<path d="M117.514 225.592C117.497 225.592 117.479 225.593 117.461 225.596C117.319 225.616 117.207 225.709 117.161 225.845L116.661 227.347L115.14 227.786C115.002 227.826 114.905 227.934 114.88 228.075C114.854 228.216 114.909 228.351 115.024 228.437L116.298 229.377L116.246 230.959C116.241 231.102 116.314 231.228 116.44 231.296C116.567 231.364 116.712 231.353 116.829 231.27L118.116 230.349L119.605 230.888C119.74 230.936 119.883 230.907 119.985 230.807C120.089 230.709 120.125 230.567 120.082 230.43L119.604 228.921L120.576 227.671C120.663 227.558 120.679 227.413 120.616 227.284C120.553 227.155 120.431 227.077 120.287 227.076L118.704 227.066L117.816 225.754C117.746 225.65 117.636 225.592 117.514 225.592ZM116.614 231.592C116.514 231.592 116.414 231.568 116.321 231.519C116.111 231.406 115.985 231.188 115.994 230.951L116.041 229.501L114.873 228.639C114.683 228.499 114.59 228.265 114.631 228.031C114.674 227.796 114.841 227.609 115.071 227.543L116.464 227.14L116.922 225.764C116.997 225.539 117.191 225.378 117.427 225.346C117.663 225.311 117.891 225.415 118.026 225.613L118.839 226.813L120.289 226.824C120.527 226.826 120.74 226.96 120.843 227.174C120.947 227.389 120.921 227.638 120.775 227.826L119.884 228.971L120.322 230.355C120.393 230.581 120.332 230.825 120.16 230.989C119.988 231.154 119.742 231.206 119.519 231.125L118.155 230.632L116.976 231.476C116.867 231.554 116.741 231.592 116.614 231.592Z" fill="#371A45"/>
<path d="M151.455 244.398L152.222 245.707L153.735 245.817C154.144 245.846 154.342 246.332 154.07 246.638L153.062 247.772L153.426 249.245C153.524 249.643 153.123 249.981 152.748 249.817L151.358 249.209L150.069 250.011C149.721 250.226 149.276 249.95 149.316 249.542L149.464 248.032L148.304 247.055C147.991 246.79 148.117 246.282 148.517 246.193L149.998 245.867L150.57 244.462C150.724 244.082 151.248 244.045 151.455 244.398Z" fill="#FFD243"/>
<path d="M153.426 249.245C153.524 249.643 153.123 249.981 152.747 249.817L151.358 249.21L150.069 250.01C149.721 250.226 149.276 249.95 149.316 249.542L149.362 249.074C149.509 249.255 149.78 249.326 150.009 249.185L151.298 248.384L152.688 248.991C152.934 249.099 153.193 248.99 153.313 248.789L153.426 249.245Z" fill="#FFA92C"/>
<path d="M148.638 246.526L148.545 246.447C148.473 246.386 148.427 246.312 148.405 246.233C148.44 246.216 148.477 246.202 148.518 246.193L150.237 245.824L150.076 246.22L148.638 246.526Z" fill="#FFEDB4"/>
<path d="M153.637 245.81L152.222 245.707L151.455 244.398C151.406 244.315 151.339 244.253 151.264 244.213C151.339 244.253 151.406 244.315 151.455 244.399L152.222 245.707L153.637 245.81ZM150.496 244.644L150.57 244.463C150.58 244.436 150.592 244.413 150.606 244.391C150.592 244.413 150.58 244.436 150.57 244.462L150.496 244.644Z" fill="#AFA3B5"/>
<path d="M153.576 246.261C153.539 246.248 153.498 246.241 153.456 246.238L151.943 246.128L151.175 244.82C151.078 244.655 150.914 244.576 150.75 244.576C150.661 244.576 150.573 244.598 150.496 244.644L150.57 244.462C150.58 244.436 150.592 244.413 150.606 244.39C150.7 244.235 150.865 244.154 151.029 244.154C151.11 244.154 151.191 244.173 151.264 244.212C151.339 244.253 151.406 244.315 151.455 244.398L152.222 245.707L153.637 245.809L153.735 245.817C153.777 245.819 153.815 245.827 153.852 245.839C153.842 245.921 153.806 246.001 153.745 246.071L153.576 246.261Z" fill="#FFEDB4"/>
<path d="M149.659 248.174L148.304 247.054C148.052 246.841 148.084 246.47 148.316 246.288L149.731 247.457L149.659 248.174Z" fill="#FFA92C"/>
<path d="M154.07 246.638L152.891 247.914L152.718 247.216L153.948 245.882C154.203 246.028 154.288 246.391 154.07 246.638Z" fill="#FFA92C"/>
<path d="M151.03 244.281C151.021 244.281 151.011 244.281 151.002 244.281C150.859 244.291 150.741 244.377 150.687 244.51L150.09 245.976L148.544 246.317C148.404 246.347 148.3 246.449 148.266 246.588C148.231 246.727 148.276 246.865 148.385 246.958L149.596 247.979L149.442 249.554C149.427 249.697 149.492 249.827 149.614 249.903C149.735 249.979 149.881 249.979 150.003 249.903L151.347 249.067L152.798 249.702C152.929 249.759 153.074 249.738 153.183 249.645C153.293 249.553 153.337 249.415 153.303 249.275L152.924 247.738L153.975 246.555C154.071 246.447 154.095 246.304 154.041 246.171C153.987 246.037 153.869 245.952 153.726 245.943L152.148 245.829L151.346 244.462C151.279 244.347 151.161 244.281 151.03 244.281ZM149.808 250.211C149.695 250.211 149.582 250.18 149.48 250.117C149.278 249.992 149.167 249.767 149.19 249.529L149.332 248.085L148.222 247.15C148.041 246.997 147.963 246.758 148.021 246.527C148.077 246.297 148.258 246.121 148.49 246.069L149.907 245.758L150.454 244.415C150.543 244.194 150.746 244.047 150.983 244.03C151.217 244.006 151.443 244.129 151.563 244.334L152.298 245.585L153.745 245.69C153.982 245.707 154.185 245.855 154.274 246.076C154.364 246.297 154.322 246.544 154.164 246.722L153.201 247.807L153.548 249.214C153.605 249.446 153.527 249.685 153.346 249.838C153.164 249.992 152.915 250.029 152.697 249.933L151.367 249.352L150.136 250.117C150.035 250.18 149.922 250.211 149.808 250.211Z" fill="#371A45"/>
<path d="M153.334 223.573L153.509 225.081L154.849 225.791C155.21 225.984 155.196 226.507 154.822 226.678L153.443 227.309L153.182 228.803C153.11 229.207 152.607 229.355 152.33 229.053L151.303 227.936L149.801 228.149C149.396 228.206 149.1 227.772 149.301 227.415L150.046 226.094L149.38 224.731C149.2 224.363 149.52 223.948 149.922 224.029L151.409 224.329L152.499 223.275C152.794 222.99 153.287 223.166 153.334 223.573Z" fill="#FFD243"/>
<path d="M153.182 228.803C153.111 229.207 152.607 229.355 152.33 229.053L151.303 227.936L149.801 228.149C149.396 228.205 149.101 227.774 149.301 227.415L149.533 227.006C149.594 227.232 149.813 227.406 150.081 227.368L151.583 227.156L152.609 228.272C152.792 228.471 153.072 228.476 153.263 228.34L153.182 228.803Z" fill="#FFA92C"/>
<path d="M151.338 224.683L149.899 224.384L149.845 224.274C149.825 224.231 149.812 224.188 149.804 224.146C149.81 224.146 149.815 224.146 149.82 224.146C149.846 224.146 149.872 224.148 149.897 224.153L151.449 224.467L151.553 224.366L151.644 224.386L151.338 224.683Z" fill="#FFEDB4"/>
<path d="M154.523 226.134C154.494 226.107 154.46 226.084 154.423 226.064L153.083 225.353L152.909 223.846C152.882 223.62 152.719 223.466 152.529 223.421L152.587 223.365C152.658 223.297 152.748 223.261 152.841 223.261C152.882 223.261 152.925 223.268 152.967 223.283C153.102 223.332 153.192 223.445 153.209 223.588L153.391 225.161L154.789 225.903C154.817 225.918 154.843 225.936 154.866 225.956C154.833 225.985 154.796 226.009 154.753 226.028L154.523 226.134Z" fill="#FFEDB4"/>
<path d="M150.168 226.303L149.38 224.731C149.235 224.435 149.414 224.108 149.7 224.036L150.522 225.677L150.168 226.303Z" fill="#FFA92C"/>
<path d="M154.822 226.678L153.23 227.37L153.353 226.661L155.016 225.937C155.191 226.175 155.123 226.54 154.822 226.678Z" fill="#FFA92C"/>
<path d="M151.351 227.801L152.423 228.968C152.521 229.073 152.661 229.111 152.798 229.071C152.935 229.032 153.032 228.923 153.057 228.781L153.33 227.222L154.77 226.562C154.9 226.504 154.981 226.382 154.986 226.239C154.99 226.096 154.916 225.97 154.789 225.903L153.391 225.161L153.209 223.588C153.192 223.445 153.102 223.332 152.967 223.283C152.832 223.235 152.689 223.266 152.587 223.365L151.449 224.467L149.897 224.153C149.755 224.124 149.621 224.177 149.533 224.29C149.445 224.403 149.43 224.548 149.493 224.677L150.189 226.099L149.411 227.478C149.341 227.603 149.347 227.748 149.428 227.866C149.508 227.985 149.642 228.044 149.784 228.023L151.351 227.801ZM152.692 229.34C152.522 229.34 152.358 229.268 152.237 229.138L151.255 228.07L149.819 228.274C149.583 228.308 149.353 228.204 149.219 228.008C149.085 227.812 149.074 227.561 149.191 227.355L149.904 226.09L149.266 224.787C149.162 224.573 149.187 224.323 149.333 224.135C149.478 223.946 149.715 223.859 149.947 223.906L151.369 224.193L152.412 223.184C152.583 223.019 152.828 222.967 153.053 223.045C153.277 223.125 153.432 223.323 153.46 223.558L153.626 225.001L154.908 225.68C155.118 225.792 155.245 226.008 155.237 226.247C155.231 226.485 155.092 226.694 154.876 226.793L153.556 227.396L153.305 228.825C153.265 229.059 153.097 229.247 152.868 229.314C152.811 229.331 152.751 229.34 152.692 229.34Z" fill="#371A45"/>
<path d="M133.407 229.919L133.593 231.425L134.939 232.126C135.303 232.315 135.291 232.839 134.92 233.012L133.545 233.655L133.294 235.151C133.227 235.555 132.725 235.706 132.445 235.407L131.41 234.298L129.909 234.522C129.504 234.582 129.206 234.152 129.404 233.792L130.138 232.465L129.462 231.108C129.279 230.741 129.596 230.323 129.999 230.401L131.488 230.69L132.57 229.627C132.862 229.341 133.357 229.513 133.407 229.919Z" fill="#FFD243"/>
<path d="M133.294 235.151C133.227 235.555 132.725 235.706 132.444 235.407L131.41 234.298L129.909 234.522C129.504 234.582 129.206 234.152 129.404 233.792L129.632 233.381C129.695 233.606 129.916 233.78 130.182 233.739L131.683 233.516L132.717 234.624C132.902 234.821 133.182 234.823 133.372 234.687L133.294 235.151Z" fill="#FFA92C"/>
<path d="M131.42 231.044L129.979 230.757L129.923 230.647C129.882 230.563 129.869 230.475 129.88 230.394C129.889 230.393 129.896 230.393 129.905 230.393C129.936 230.393 129.967 230.396 129.999 230.403L131.724 230.746L131.42 231.044Z" fill="#FFEDB4"/>
<path d="M134.529 231.912L133.593 231.425L133.407 229.92C133.398 229.841 133.371 229.769 133.331 229.71C133.371 229.769 133.398 229.841 133.407 229.92L133.594 231.425L134.529 231.912ZM132.431 229.765L132.569 229.628C132.595 229.603 132.621 229.582 132.648 229.565C132.621 229.582 132.595 229.603 132.57 229.628L132.431 229.765Z" fill="#AFA3B5"/>
<path d="M134.616 232.472C134.586 232.445 134.552 232.422 134.515 232.402L133.169 231.701L132.983 230.196C132.951 229.928 132.724 229.761 132.49 229.761C132.47 229.761 132.45 229.762 132.431 229.765L132.57 229.628C132.595 229.603 132.621 229.582 132.648 229.565C132.731 229.51 132.823 229.486 132.914 229.486C133.079 229.486 133.24 229.568 133.331 229.71C133.371 229.769 133.398 229.841 133.407 229.92L133.593 231.425L134.529 231.912L134.938 232.127C134.974 232.145 135.007 232.168 135.036 232.194C134.995 232.264 134.931 232.324 134.845 232.364L134.616 232.472Z" fill="#FFEDB4"/>
<path d="M130.262 232.674L129.462 231.108C129.314 230.813 129.491 230.485 129.776 230.41L130.611 232.044L130.262 232.674Z" fill="#FFA92C"/>
<path d="M134.92 233.012L133.331 233.717L133.45 233.007L135.107 232.27C135.284 232.506 135.218 232.872 134.92 233.012Z" fill="#FFA92C"/>
<path d="M131.457 234.162L132.537 235.32C132.635 235.425 132.775 235.463 132.912 235.422C133.05 235.38 133.146 235.271 133.17 235.129L133.432 233.569L134.866 232.898C134.996 232.838 135.076 232.716 135.079 232.573C135.082 232.429 135.007 232.304 134.88 232.238L133.476 231.507L133.282 229.936C133.264 229.793 133.174 229.68 133.038 229.633C132.904 229.585 132.761 229.617 132.659 229.717L131.529 230.827L129.974 230.526C129.835 230.501 129.698 230.551 129.611 230.665C129.524 230.779 129.511 230.924 129.575 231.052L130.281 232.469L129.514 233.854C129.445 233.979 129.452 234.125 129.534 234.242C129.616 234.361 129.748 234.418 129.891 234.397L131.457 234.162ZM132.805 235.69C132.636 235.69 132.472 235.621 132.353 235.492L131.363 234.432L129.928 234.646C129.693 234.682 129.463 234.583 129.326 234.386C129.191 234.191 129.178 233.941 129.293 233.732L129.996 232.463L129.349 231.165C129.243 230.951 129.266 230.701 129.41 230.511C129.554 230.321 129.79 230.232 130.022 230.278L131.447 230.555L132.482 229.537C132.651 229.37 132.895 229.316 133.121 229.394C133.346 229.473 133.503 229.668 133.533 229.905L133.71 231.344L134.997 232.014C135.208 232.124 135.336 232.341 135.33 232.578C135.326 232.816 135.189 233.027 134.973 233.127L133.659 233.741L133.419 235.172C133.379 235.407 133.214 235.595 132.986 235.664C132.926 235.682 132.864 235.69 132.805 235.69Z" fill="#371A45"/>
<path d="M107.231 245.452L107.998 246.76L109.511 246.87C109.919 246.9 110.118 247.385 109.845 247.692L108.837 248.826L109.201 250.299C109.299 250.697 108.899 251.035 108.523 250.871L107.133 250.263L105.845 251.064C105.496 251.281 105.052 251.003 105.091 250.596L105.239 249.085L104.079 248.108C103.766 247.843 103.892 247.335 104.293 247.246L105.774 246.921L106.346 245.516C106.5 245.137 107.023 245.098 107.231 245.452Z" fill="#FFD243"/>
<path d="M109.201 250.3C109.3 250.697 108.898 251.035 108.523 250.871L107.134 250.263L105.845 251.064C105.496 251.281 105.052 251.003 105.091 250.596L105.137 250.127C105.285 250.309 105.556 250.381 105.785 250.238L107.074 249.437L108.463 250.045C108.71 250.153 108.968 250.044 109.089 249.842L109.201 250.3Z" fill="#FFA92C"/>
<path d="M104.414 247.58L104.32 247.501C104.249 247.441 104.202 247.366 104.181 247.286C104.215 247.269 104.252 247.256 104.293 247.248L106.012 246.878L105.851 247.273L104.414 247.58Z" fill="#FFEDB4"/>
<path d="M108.984 246.832L107.998 246.76L107.231 245.452C107.192 245.387 107.142 245.335 107.087 245.296C107.143 245.335 107.192 245.387 107.231 245.452L107.998 246.76L108.984 246.832ZM106.271 245.697L106.345 245.516C106.365 245.469 106.39 245.427 106.419 245.39C106.39 245.427 106.365 245.468 106.346 245.516L106.272 245.697H106.271Z" fill="#AFA3B5"/>
<path d="M109.351 247.316C109.314 247.303 109.273 247.295 109.231 247.291L107.718 247.183L106.95 245.874C106.854 245.709 106.689 245.629 106.525 245.629C106.436 245.629 106.349 245.653 106.272 245.698L106.346 245.516C106.365 245.468 106.39 245.427 106.419 245.391C106.516 245.27 106.66 245.208 106.805 245.208C106.903 245.208 107.003 245.237 107.087 245.296C107.142 245.335 107.192 245.387 107.231 245.452L107.998 246.76L108.984 246.832L109.511 246.87C109.552 246.873 109.59 246.881 109.627 246.894C109.617 246.975 109.581 247.056 109.52 247.126L109.351 247.316Z" fill="#FFEDB4"/>
<path d="M105.435 249.229L104.079 248.108C103.828 247.896 103.86 247.524 104.091 247.343L105.506 248.512L105.435 249.229Z" fill="#FFA92C"/>
<path d="M109.845 247.692L108.667 248.968L108.494 248.27L109.723 246.936C109.979 247.082 110.064 247.445 109.845 247.692Z" fill="#FFA92C"/>
<path d="M106.805 245.334L106.778 245.335C106.634 245.346 106.516 245.431 106.462 245.564L105.866 247.031L104.319 247.37C104.18 247.401 104.075 247.502 104.041 247.642C104.007 247.781 104.052 247.919 104.161 248.012L105.371 249.032L105.217 250.609C105.203 250.751 105.267 250.881 105.388 250.956C105.511 251.032 105.656 251.032 105.778 250.958L107.123 250.122L108.574 250.755C108.705 250.813 108.849 250.792 108.959 250.7C109.067 250.607 109.113 250.468 109.078 250.33L108.7 248.792L109.751 247.609C109.846 247.501 109.87 247.358 109.816 247.225C109.763 247.092 109.644 247.007 109.501 246.996L107.923 246.882L107.122 245.516C107.054 245.401 106.937 245.334 106.805 245.334ZM105.584 251.266C105.471 251.266 105.357 251.234 105.255 251.171C105.054 251.045 104.943 250.82 104.965 250.583L105.107 249.14L103.998 248.205C103.816 248.051 103.738 247.813 103.796 247.581C103.852 247.35 104.032 247.175 104.265 247.123L105.682 246.813L106.229 245.469C106.318 245.249 106.522 245.101 106.759 245.083C106.998 245.066 107.219 245.184 107.339 245.388L108.073 246.64L109.52 246.744C109.757 246.761 109.961 246.91 110.05 247.13C110.14 247.35 110.097 247.598 109.94 247.776L108.976 248.861L109.323 250.269C109.381 250.5 109.303 250.739 109.122 250.892C108.94 251.046 108.69 251.082 108.473 250.986L107.143 250.405L105.911 251.172C105.811 251.234 105.697 251.266 105.584 251.266Z" fill="#371A45"/>
<path d="M132.273 221.174C132.273 221.557 131.963 221.868 131.579 221.868C131.196 221.868 130.885 221.557 130.885 221.174C130.885 220.791 131.196 220.48 131.579 220.48C131.963 220.48 132.273 220.791 132.273 221.174Z" fill="#FCFCFC"/>
<path d="M148.49 239.117C148.49 239.5 148.179 239.811 147.796 239.811C147.412 239.811 147.102 239.5 147.102 239.117C147.102 238.733 147.412 238.423 147.796 238.423C148.179 238.423 148.49 238.733 148.49 239.117Z" fill="#FCFCFC"/>
<path d="M162.064 221.374C162.064 221.757 161.754 222.068 161.37 222.068C160.987 222.068 160.676 221.757 160.676 221.374C160.676 220.99 160.987 220.68 161.37 220.68C161.754 220.68 162.064 220.99 162.064 221.374Z" fill="#FCFCFC"/>
<path d="M118.382 245.208C118.382 245.591 118.071 245.902 117.688 245.902C117.304 245.902 116.994 245.591 116.994 245.208C116.994 244.826 117.304 244.514 117.688 244.514C118.071 244.514 118.382 244.826 118.382 245.208Z" fill="#FCFCFC"/>
<path d="M130.035 243.874C130.035 244.258 129.724 244.568 129.341 244.568C128.957 244.568 128.647 244.258 128.647 243.874C128.647 243.492 128.957 243.18 129.341 243.18C129.724 243.18 130.035 243.492 130.035 243.874Z" fill="#FCFCFC"/>
<path d="M107.585 233.577C107.585 233.961 107.273 234.271 106.891 234.271C106.507 234.271 106.197 233.961 106.197 233.577C106.197 233.195 106.507 232.883 106.891 232.883C107.273 232.883 107.585 233.195 107.585 233.577Z" fill="#FCFCFC"/>
<path d="M145.397 214.439C145.739 214.265 146.156 214.403 146.329 214.745C146.503 215.087 146.365 215.504 146.023 215.677C145.681 215.851 145.264 215.713 145.091 215.371C144.917 215.029 145.055 214.612 145.397 214.439Z" fill="#FCFCFC"/>
<path d="M121.844 213.103C122.187 212.93 122.605 213.067 122.777 213.409C122.95 213.75 122.814 214.168 122.471 214.341C122.129 214.515 121.712 214.377 121.538 214.035C121.366 213.693 121.503 213.276 121.844 213.103Z" fill="#FCFCFC"/>
<path d="M238.879 285.487H237.947C237.866 285.42 237.785 285.354 237.701 285.287H238.65C238.726 285.352 238.805 285.42 238.879 285.487Z" fill="#CDBAB8"/>
<path d="M238.65 285.287H237.701C236.576 284.378 235.177 283.251 233.542 281.946H234.714C236.066 283.072 237.375 284.184 238.65 285.287ZM182.166 240.621C180.757 239.753 179.351 238.896 177.938 238.043C178.204 235.728 178.324 233.383 178.313 231.052C189.131 223.656 200.286 215.066 211.388 205.539C226.62 192.467 240.833 178.413 252.584 164.919L251.723 173.715C225.777 206.529 189.819 234.764 182.166 240.621ZM198.084 212.126C199.286 209.933 200.304 207.654 201.192 205.358C202.303 202.413 203.265 199.415 204.074 196.379C216.98 186.934 229.494 176.781 240.522 167.364C243.279 166.663 245.643 166.008 247.575 165.446C233.587 181.113 216.279 197.556 198.084 212.126Z" fill="#CDBAB8"/>
<path d="M178.313 231.052C178.309 230.002 178.277 228.957 178.221 227.917C178.715 227.83 179.205 227.726 179.689 227.6C185.02 226.259 189.758 223.089 193.284 219.048C195.167 216.915 196.742 214.573 198.084 212.126C216.279 197.556 233.587 181.114 247.575 165.447C248.792 165.094 249.836 164.776 250.7 164.507C251.463 164.269 252.127 164.055 252.686 163.872L252.584 164.919C240.833 178.413 226.62 192.467 211.388 205.54C200.286 215.066 189.131 223.656 178.313 231.052Z" fill="#371A45"/>
<path d="M234.714 281.946H233.542C225.883 275.826 213.038 265.743 198.828 255.338C212.046 264.217 224.448 273.39 234.714 281.946Z" fill="#CDC6D0"/>
<path d="M251.723 173.715L252.584 164.919L252.686 163.872C252.127 164.055 251.463 164.269 250.7 164.507C249.836 164.776 248.792 165.094 247.575 165.447C245.643 166.008 243.279 166.663 240.522 167.364C241.639 166.41 242.739 165.466 243.825 164.529C250.462 162.723 253.972 161.424 253.972 161.413L252.902 172.211C252.512 172.713 252.119 173.215 251.723 173.715Z" fill="#371A45"/>
<path d="M240.051 285.487H238.879C238.805 285.42 238.726 285.352 238.65 285.287C237.375 284.184 236.066 283.072 234.714 281.946C224.448 273.39 212.046 264.217 198.828 255.338C191.933 250.29 184.72 245.168 177.618 240.382C177.742 239.608 177.848 238.827 177.938 238.043C179.351 238.896 180.757 239.753 182.166 240.621C181.212 241.351 180.697 241.734 180.697 241.734C192.395 246.97 222.205 268.911 240.051 285.487Z" fill="#371A45"/>
<path d="M177.618 240.382L177.616 240.381C178.258 236.352 178.436 232.179 178.228 228.113C178.022 232.021 177.431 235.908 176.387 239.555C169.017 234.622 161.793 230.08 155.215 226.398C155.227 226.35 155.236 226.299 155.237 226.247C155.24 226.157 155.224 226.072 155.192 225.994C157.332 225.059 159.501 224.046 161.697 222.959C161.832 223.101 161.967 223.242 162.106 223.379C162.636 223.841 163.14 224.333 163.718 224.736C164.827 225.602 166.069 226.294 167.365 226.861L168.353 227.257C168.688 227.371 169.032 227.464 169.372 227.568L169.884 227.717L170.399 227.825C170.742 227.892 171.083 227.973 171.429 228.027C172.464 228.184 173.505 228.259 174.545 228.259C174.897 228.259 175.249 228.25 175.6 228.233C176.48 228.169 177.357 228.07 178.221 227.918C178.277 228.957 178.309 230.002 178.313 231.052C178.324 233.383 178.204 235.729 177.938 238.043C177.849 238.827 177.742 239.608 177.618 240.382Z" fill="#371A45"/>
<path d="M177.616 240.381C177.205 240.104 176.797 239.83 176.387 239.555C177.431 235.908 178.022 232.021 178.228 228.112C178.436 232.178 178.258 236.352 177.616 240.381Z" fill="#231A36"/>
<path d="M154.983 226.27C154.921 226.235 154.86 226.201 154.797 226.166C154.851 226.143 154.907 226.118 154.961 226.095C154.978 226.139 154.987 226.189 154.986 226.24C154.984 226.249 154.984 226.26 154.983 226.27Z" fill="#CD8532"/>
<path d="M155.215 226.398C155.137 226.356 155.06 226.313 154.983 226.269C154.984 226.26 154.984 226.249 154.986 226.239C154.987 226.188 154.978 226.139 154.961 226.094C155.039 226.06 155.115 226.027 155.192 225.994C155.224 226.072 155.24 226.157 155.237 226.247C155.236 226.299 155.228 226.35 155.215 226.398Z" fill="#371A45"/>
<path d="M240.906 287.894C239.725 287.084 238.555 286.28 237.391 285.487H237.947C239.736 286.938 240.777 287.786 240.906 287.894Z" fill="#060456"/>
<path d="M200.798 200.985C198.521 207.813 195.32 214.535 190.067 219.467C184.859 224.399 177.272 227.33 170.28 225.592C163.233 223.86 157.597 216.706 158.846 209.602C156.349 211.12 153.475 210.851 152.283 209.276C151.09 207.707 151.253 205.378 152.119 203.59C152.991 201.801 154.454 200.333 155.809 198.871C164.802 189.028 169.453 175.418 168.61 162.127C168.605 161.969 168.593 161.806 168.582 161.649C168.452 159.883 168.222 158.123 167.896 156.379L200.967 144.449L201.113 144.399H201.119C207.784 161.795 207.03 182.392 200.798 200.985Z" fill="white"/>
<path d="M169.804 161.886C169.615 160.129 169.328 158.384 168.987 156.655C168.943 156.435 168.836 156.242 168.689 156.093L199.112 145.119C199.129 145.23 199.157 145.34 199.199 145.45L199.202 145.458C199.461 146.141 199.708 146.828 199.945 147.52C191.556 154.444 181.236 159.477 169.804 161.886Z" fill="#CDC6D0"/>
<path d="M168.987 156.655C169.524 159.368 169.923 162.122 170.024 164.899C170.083 167.671 170.021 170.462 169.627 173.217C169.583 173.563 169.549 173.909 169.499 174.252L169.311 175.279C169.18 175.962 169.075 176.652 168.92 177.33C168.591 178.683 168.292 180.046 167.858 181.371C167.487 182.716 166.978 184.015 166.506 185.328C166.253 185.978 165.963 186.614 165.69 187.255L165.271 188.215L164.801 189.151C163.597 191.674 162.095 194.046 160.489 196.335L159.227 198.015C158.805 198.574 158.329 199.093 157.881 199.634C156.983 200.739 155.988 201.683 155.201 202.634C154.408 203.57 153.734 204.564 153.439 205.494C153.11 206.459 153.108 207.514 153.41 208.234C153.476 208.419 153.585 208.578 153.682 208.721C153.762 208.817 153.858 208.917 153.994 209.007C154.261 209.189 154.669 209.316 155.116 209.362C156.024 209.456 157.071 209.178 157.961 208.649L157.966 208.646L157.991 208.633C158.823 208.182 159.865 208.493 160.316 209.326C160.496 209.661 160.555 210.03 160.506 210.38C160.355 211.456 160.315 212.551 160.483 213.642C160.679 214.725 160.965 215.808 161.465 216.821C161.958 217.829 162.539 218.814 163.285 219.68L163.551 220.014L163.847 220.324L164.439 220.942C164.874 221.312 165.278 221.721 165.752 222.044C166.651 222.749 167.658 223.303 168.692 223.759L169.479 224.075C169.745 224.165 170.018 224.236 170.288 224.32L170.692 224.441L171.114 224.526C171.396 224.581 171.675 224.65 171.958 224.695C173.095 224.864 174.252 224.918 175.412 224.863C176.569 224.775 177.73 224.625 178.869 224.326C180.004 224.028 181.132 223.667 182.211 223.175C182.761 222.956 183.28 222.661 183.813 222.403C184.326 222.102 184.856 221.83 185.347 221.495C187.363 220.228 189.145 218.617 190.754 216.814C193.955 213.193 196.256 208.77 198.043 204.144C201.576 194.805 203.592 184.835 203.886 174.84C204.177 164.851 202.733 154.776 199.202 145.458L199.199 145.45C198.884 144.618 199.303 143.687 200.136 143.371C200.969 143.056 201.897 143.472 202.213 144.304C205.941 154.068 207.463 164.56 207.189 174.933C206.902 185.32 204.865 195.623 201.192 205.358C199.312 210.219 196.852 215.004 193.284 219.048C189.758 223.089 185.02 226.259 179.689 227.6C178.358 227.946 176.983 228.132 175.6 228.233C174.213 228.299 172.815 228.236 171.429 228.027C171.083 227.973 170.742 227.892 170.399 227.825L169.884 227.717L169.372 227.568C169.032 227.465 168.688 227.371 168.353 227.257L167.365 226.861C166.07 226.294 164.828 225.602 163.718 224.736C163.14 224.333 162.636 223.841 162.106 223.379C161.856 223.132 161.616 222.873 161.372 222.619L161.011 222.235L160.679 221.825C159.764 220.754 159.027 219.53 158.408 218.25C157.783 216.97 157.394 215.57 157.146 214.148C156.925 212.713 156.965 211.241 157.182 209.795L159.721 211.529L159.714 211.533C158.298 212.393 156.624 212.921 154.828 212.784C153.934 212.707 152.997 212.477 152.124 211.923C151.689 211.65 151.282 211.289 150.937 210.86C150.634 210.461 150.375 210.045 150.192 209.6C149.807 208.718 149.675 207.794 149.68 206.921C149.692 206.046 149.838 205.203 150.104 204.403C150.652 202.752 151.582 201.497 152.515 200.371C153.459 199.244 154.428 198.319 155.238 197.328C155.658 196.832 156.105 196.361 156.503 195.846L157.693 194.297C159.211 192.183 160.642 189.989 161.793 187.641L162.244 186.772L162.646 185.878C162.912 185.281 163.203 184.695 163.452 184.091C163.925 182.872 164.435 181.665 164.814 180.411C165.254 179.176 165.563 177.902 165.906 176.637C166.067 176.002 166.181 175.356 166.322 174.716L166.524 173.752L166.68 172.782C167.56 167.607 167.575 162.287 166.804 157.065L166.799 157.032C166.71 156.426 167.129 155.862 167.736 155.772C168.323 155.685 168.872 156.079 168.987 156.655Z" fill="#371A45"/>
<path d="M183.143 186.931C177.163 186.931 171.182 185.973 165.509 184.041C164.626 183.74 164.155 182.782 164.455 181.9C164.755 181.018 165.712 180.545 166.596 180.847C178.775 184.993 192.471 184.363 204.172 179.116C205.023 178.733 206.021 179.115 206.401 179.964C206.783 180.815 206.403 181.813 205.553 182.195C198.534 185.342 190.841 186.931 183.143 186.931Z" fill="#371A45"/>
<path d="M174.545 224.884C173.676 224.884 172.811 224.822 171.958 224.695C171.675 224.65 171.396 224.581 171.114 224.526L170.692 224.441L170.288 224.32C170.018 224.236 169.745 224.165 169.479 224.075L168.692 223.759C167.658 223.303 166.65 222.749 165.752 222.044C165.278 221.72 164.874 221.312 164.439 220.942L163.847 220.324L163.551 220.014L163.285 219.68C162.539 218.814 161.958 217.829 161.465 216.821C160.965 215.808 160.679 214.725 160.483 213.642C160.315 212.551 160.355 211.456 160.506 210.38C160.555 210.03 160.496 209.661 160.316 209.326C160.005 208.752 159.415 208.427 158.805 208.427C158.529 208.427 158.25 208.493 157.991 208.633L157.966 208.646L157.961 208.649C157.186 209.109 156.293 209.38 155.476 209.38C155.353 209.38 155.233 209.373 155.116 209.361C154.669 209.316 154.261 209.189 153.994 209.006C153.858 208.917 153.762 208.817 153.682 208.721C153.585 208.578 153.476 208.419 153.41 208.234C153.108 207.514 153.11 206.459 153.439 205.494C153.556 205.124 153.734 204.743 153.955 204.361C154.005 204.361 154.055 204.361 154.106 204.361C155.716 204.361 157.65 204.033 159.967 203.207C160.332 203.077 160.704 203.016 161.067 203.016C162.514 203.016 163.841 203.99 164.181 205.494C165.284 210.366 168.582 218.15 178.424 218.489C178.533 218.492 178.642 218.495 178.749 218.495C187.505 218.496 195.696 206.355 201.137 194.33C200.289 197.659 199.256 200.94 198.043 204.144C196.256 208.77 193.955 213.193 190.754 216.814C189.145 218.617 187.363 220.228 185.347 221.494C184.856 221.83 184.326 222.102 183.813 222.403C183.28 222.661 182.761 222.956 182.211 223.175C181.132 223.667 180.004 224.027 178.869 224.326C177.73 224.624 176.569 224.775 175.411 224.863C175.123 224.877 174.833 224.884 174.545 224.884Z" fill="#CDC6D0"/>
<path d="M174.465 226.58C173.062 226.58 171.66 226.419 170.28 226.076C163.233 224.344 157.597 217.19 158.846 210.086C157.717 210.773 156.511 211.094 155.417 211.094C154.093 211.094 152.935 210.623 152.283 209.76C151.112 208.219 151.248 205.941 152.08 204.169C152.649 204.283 153.272 204.351 153.955 204.361C153.734 204.743 153.556 205.124 153.439 205.494C153.11 206.459 153.108 207.514 153.41 208.234C153.476 208.419 153.585 208.578 153.682 208.721C153.762 208.817 153.858 208.917 153.994 209.007C154.261 209.189 154.669 209.316 155.116 209.362C155.233 209.373 155.353 209.38 155.476 209.38C156.293 209.38 157.186 209.109 157.961 208.65L157.966 208.646L157.991 208.634C158.25 208.493 158.529 208.427 158.805 208.427C159.415 208.427 160.005 208.752 160.316 209.326C160.496 209.661 160.555 210.03 160.506 210.38C160.355 211.457 160.315 212.551 160.483 213.642C160.679 214.725 160.965 215.808 161.465 216.821C161.958 217.83 162.539 218.815 163.285 219.68L163.551 220.014L163.847 220.324L164.439 220.942C164.874 221.312 165.278 221.721 165.752 222.044C166.65 222.749 167.658 223.303 168.692 223.759L169.479 224.076C169.745 224.165 170.018 224.237 170.288 224.32L170.692 224.441L171.114 224.527C171.396 224.581 171.675 224.65 171.958 224.695C172.811 224.822 173.676 224.884 174.545 224.884C174.833 224.884 175.123 224.877 175.411 224.863C176.569 224.775 177.73 224.625 178.869 224.326C180.004 224.028 181.132 223.667 182.211 223.175C182.761 222.956 183.28 222.661 183.813 222.403C184.326 222.102 184.856 221.83 185.347 221.495C187.363 220.228 189.145 218.617 190.754 216.815C193.955 213.193 196.256 208.77 198.043 204.144C199.256 200.94 200.289 197.659 201.137 194.33C202.41 191.516 203.532 188.709 204.477 186.065C203.712 191.278 202.48 196.447 200.798 201.47C198.521 208.298 195.32 215.018 190.067 219.951C185.887 223.91 180.173 226.58 174.465 226.58Z" fill="#371A45"/>
<path d="M133.588 174.692C127.333 174.692 107.466 174.53 84.9423 172.65C83.2387 172.468 81.5394 172.275 79.8411 172.073C80.2281 170.53 80.7707 169.033 81.4637 167.604C82.1257 166.239 82.9274 164.931 83.8474 163.717C83.8581 163.705 83.8677 163.691 83.8783 163.677C83.8815 163.672 83.8858 163.667 83.889 163.662C83.906 163.64 83.9231 163.616 83.9391 163.594C86.3154 160.341 88.8121 157.191 91.5018 154.206C92.3867 153.221 93.2939 152.255 94.2193 151.305C96.9676 155.748 108.897 172.213 135.926 174.687C135.744 174.686 135.643 174.685 135.626 174.685C135.585 174.685 134.874 174.692 133.588 174.692ZM152.292 174.483C156.823 173.997 161.656 173.154 166.824 171.881C166.779 172.182 166.73 172.483 166.68 172.782L166.524 173.752L166.482 173.95C161.267 174.203 156.472 174.372 152.292 174.483ZM81.9978 160.655C74.579 157.986 67.3233 154.498 60.7381 150.485C61.156 146.007 62.4236 141.619 64.382 137.55C72.1195 142.472 81.3048 146.695 92.1948 149.815C91.2993 150.643 90.4176 151.487 89.552 152.349C86.8943 154.99 84.389 157.781 81.9978 160.655ZM57.5729 148.482C53.2351 145.632 49.2501 142.558 45.7811 139.359C43.0562 136.846 40.5307 134.182 38.2759 131.44C31.8539 123.636 27.6376 115.342 25.7398 106.785C24.4807 101.203 24.4415 93.9333 27.3881 88.4899C32.097 103.711 41.7631 122.029 61.5537 135.675C59.5569 139.711 58.1849 144.043 57.5729 148.482Z" fill="#CDC6D0"/>
<path d="M84.9423 172.65C84.1171 172.581 83.2867 172.509 82.4551 172.437C80.952 172.304 79.4723 172.166 78.0139 172.02C78.2026 170.981 78.4339 169.894 78.7185 168.765C79.3209 166.365 80.0447 164.233 80.7803 162.391C74.6099 160.249 67.626 157.167 60.4194 152.693C60.2616 152.595 60.1059 152.498 59.9514 152.4C60.3607 152.121 60.6432 151.664 60.6838 151.131C60.6997 150.916 60.7179 150.7 60.7381 150.485C67.3233 154.498 74.579 157.986 81.9978 160.654C81.7345 160.971 81.4733 161.289 81.2121 161.606C81.194 161.629 81.1726 161.658 81.1556 161.681C80.6055 162.434 80.7707 163.49 81.5244 164.039C81.824 164.258 82.1726 164.363 82.518 164.363C83.0202 164.363 83.5159 164.14 83.8474 163.717C82.9274 164.93 82.1257 166.239 81.4637 167.604C80.7707 169.033 80.2281 170.529 79.8411 172.073C81.5394 172.275 83.2387 172.468 84.9423 172.65ZM83.8783 163.677C83.8794 163.675 83.8815 163.673 83.8826 163.67C83.9018 163.645 83.9199 163.619 83.9391 163.594C83.9231 163.616 83.9061 163.639 83.889 163.662C83.8858 163.667 83.8815 163.671 83.8783 163.677ZM57.332 150.696C51.169 146.547 46.8546 142.649 44.6372 140.603C41.9155 138.088 39.3335 135.383 36.9711 132.514C30.8582 125.078 26.1672 116.497 24.0918 107.153C22.5114 100.141 22.8881 92.0131 26.7357 86.2872C26.9414 87.0143 27.1589 87.7477 27.3881 88.4897C24.4415 93.9331 24.4807 101.203 25.7398 106.785C27.6376 115.342 31.8539 123.636 38.2759 131.44C40.5307 134.182 43.0562 136.846 45.7811 139.359C49.2501 142.558 53.2351 145.631 57.5729 148.482C57.4717 149.218 57.3917 149.956 57.332 150.696Z" fill="#371A45"/>
<path d="M124.729 177.386C107.59 177.386 91.8152 176.145 77.6578 174.264C77.7559 173.547 77.8731 172.797 78.0138 172.02C79.4722 172.166 80.9519 172.305 82.4551 172.437C83.2867 172.51 84.1171 172.581 84.9423 172.65C107.466 174.53 127.333 174.692 133.588 174.692C134.874 174.692 135.585 174.685 135.626 174.685C135.643 174.685 135.744 174.686 135.926 174.687C138.145 174.89 140.465 174.999 142.89 174.999C145.864 174.999 148.995 174.836 152.292 174.483C156.472 174.372 161.267 174.204 166.482 173.95L166.322 174.716C166.305 174.792 166.289 174.869 166.272 174.944C158.256 175.89 149.809 176.609 140.961 177.015C135.427 177.267 130.013 177.386 124.729 177.386Z" fill="#371A45"/>
<path d="M82.518 164.364C82.1726 164.364 81.824 164.258 81.5244 164.039C80.7707 163.49 80.6055 162.434 81.1556 161.681C81.1726 161.658 81.1939 161.629 81.2121 161.607C81.4733 161.289 81.7344 160.971 81.9978 160.655C84.389 157.781 86.8942 154.99 89.552 152.349C90.4176 151.487 91.2993 150.643 92.1948 149.815C92.6542 149.946 93.1148 150.075 93.5807 150.203C93.5807 150.203 93.7864 150.605 94.2192 151.305C93.2939 152.255 92.3867 153.221 91.5018 154.206C88.8121 157.191 86.3154 160.341 83.9391 163.594C83.9199 163.619 83.9018 163.645 83.8826 163.671C83.8815 163.673 83.8794 163.675 83.8783 163.677C83.8677 163.691 83.8581 163.705 83.8474 163.717C83.5159 164.141 83.0201 164.364 82.518 164.364Z" fill="#371A45"/>
<path d="M59.9513 152.4C59.0441 151.831 58.171 151.261 57.332 150.696C57.3917 149.956 57.4716 149.218 57.5729 148.482C58.1848 144.043 59.5569 139.71 61.5536 135.675C62.4747 136.311 63.4161 136.934 64.3819 137.549C62.4235 141.619 61.156 146.007 60.7381 150.485C60.7178 150.701 60.6997 150.916 60.6837 151.131C60.6432 151.664 60.3607 152.121 59.9513 152.4Z" fill="#371A45"/>
<path d="M166.272 174.944C166.289 174.868 166.305 174.792 166.322 174.716L166.482 173.949L166.524 173.752L166.68 172.782C166.73 172.483 166.779 172.182 166.824 171.881C167.335 171.755 167.852 171.625 168.368 171.491C168.169 172.583 167.97 173.673 167.771 174.764C167.273 174.825 166.774 174.885 166.272 174.944Z" fill="#371A45"/>
<path d="M218.847 113.187C218.047 113.03 217.537 112.231 217.707 111.404L226.557 68.2292C226.727 67.4019 227.513 66.8582 228.311 67.015C236.695 68.6631 242.048 77.0392 240.267 85.7235L237.249 100.446C235.469 109.13 227.229 114.835 218.847 113.187Z" fill="white"/>
<path d="M228.035 67.3922C227.528 67.3922 227.064 67.7696 226.953 68.3101L218.102 111.485C218.04 111.789 218.098 112.095 218.265 112.346C218.42 112.58 218.655 112.738 218.924 112.79C227.077 114.394 235.12 108.819 236.854 100.365L239.872 85.6423C240.733 81.4377 239.928 77.2012 237.605 73.7098C235.405 70.4039 232.077 68.1662 228.233 67.4114C228.167 67.3986 228.101 67.3922 228.035 67.3922ZM221.739 113.873C220.757 113.873 219.763 113.779 218.769 113.583C218.286 113.488 217.868 113.208 217.592 112.794C217.305 112.362 217.205 111.84 217.31 111.322L226.162 68.148C226.375 67.1054 227.377 66.421 228.389 66.6182C232.445 67.4157 235.957 69.7749 238.278 73.262C240.721 76.9336 241.569 81.3876 240.663 85.8044L237.645 100.527C236.035 108.384 229.228 113.873 221.739 113.873Z" fill="#371A45"/>
<path d="M221.741 111.781C221.198 111.781 220.651 111.748 220.104 111.68C221.787 108.447 223.264 105.062 224.513 101.538C224.703 101.545 224.893 101.548 225.082 101.548C229.342 101.548 233.37 99.7285 236.297 96.6859L235.597 100.107C234.187 106.979 228.259 111.781 221.741 111.781Z" fill="#CDC6D0"/>
<path d="M219.395 111.572C226.784 112.896 234.02 107.796 235.597 100.107L238.615 85.3842C239.407 81.5186 238.669 77.6243 236.537 74.4207C234.565 71.4581 231.603 69.4358 228.181 68.7098L219.395 111.572ZM221.738 115.156C220.674 115.156 219.599 115.054 218.52 114.842C217.699 114.681 216.991 114.206 216.524 113.505C216.045 112.787 215.879 111.92 216.053 111.064L224.904 67.8899C225.259 66.1597 226.933 65.0233 228.636 65.3591C233.031 66.2226 236.834 68.7769 239.346 72.5508C241.981 76.5092 242.895 81.3076 241.921 86.0623L238.903 100.785C237.167 109.247 229.824 115.155 221.738 115.156Z" fill="#371A45"/>
<path d="M90.7471 39.9717C91.5455 40.1295 92.0562 40.928 91.8867 41.7553L83.0361 84.9302C82.8656 85.7575 82.0809 86.3012 81.2814 86.1445C72.8978 84.4963 67.545 76.1202 69.3253 67.4359L72.3445 52.7124C74.1248 44.0281 82.3634 38.3246 90.7471 39.9717Z" fill="white"/>
<path d="M87.8537 40.0943C80.7398 40.0943 74.273 45.3181 72.74 52.7945L69.7219 67.517C68.8595 71.7205 69.6654 75.9582 71.9884 79.4485C74.1888 82.7555 77.517 84.9921 81.3592 85.7479C81.9391 85.8631 82.5148 85.4579 82.6395 84.8482L91.4901 41.6743C91.553 41.3694 91.4954 41.0634 91.3281 40.8129C91.1735 40.5794 90.9389 40.4216 90.6692 40.3683C89.7257 40.1828 88.7844 40.0943 87.8537 40.0943ZM81.5564 86.5752C81.4402 86.5752 81.3219 86.5645 81.2035 86.5411C77.1482 85.7437 73.6365 83.3844 71.3157 79.8962C68.8712 76.2257 68.0247 71.7706 68.9298 67.3539L71.9479 52.6314C73.7698 43.7446 82.2398 37.8908 90.8249 39.5752C91.3078 39.6701 91.7257 39.9504 92.0007 40.3651C92.2886 40.7969 92.3888 41.3193 92.2822 41.8363L83.4316 85.0113C83.2429 85.9324 82.4402 86.5752 81.5564 86.5752Z" fill="#371A45"/>
<path d="M80.695 84.2756C77.5768 83.4334 74.8892 81.4921 73.0566 78.7374C70.9234 75.5338 70.1867 71.6405 70.9788 67.7739L71.6579 64.4626C73.3828 68.2866 76.581 71.3314 80.6748 72.6981C80.3933 76.5743 80.4019 80.4431 80.695 84.2756Z" fill="#CDC6D0"/>
<path d="M87.8526 41.3767C81.3346 41.3767 75.4062 46.1805 73.9969 53.0513L70.9788 67.7738C70.1867 71.6404 70.9234 75.5338 73.0566 78.7373C75.0288 81.701 77.9904 83.7233 81.4114 84.4483L90.1991 41.5857C89.4134 41.445 88.6277 41.3767 87.8526 41.3767ZM81.5553 87.8586C81.3581 87.8586 81.1577 87.8395 80.9562 87.8C76.5618 86.9354 72.7591 84.3822 70.2464 80.6072C67.6121 76.6489 66.6985 71.8505 67.6729 67.0968L70.691 52.3743C72.6547 42.7989 81.7973 36.493 91.0722 38.316C91.8931 38.4781 92.6031 38.9525 93.0689 39.654C93.5476 40.3725 93.715 41.2392 93.5391 42.0942L84.6885 85.2681C84.3762 86.7947 83.0361 87.8576 81.5553 87.8586Z" fill="#371A45"/>
<path d="M224.577 95.7253C213.486 135.71 173.257 159.551 134.724 148.978C96.1894 138.405 73.9425 97.4204 85.034 57.4362C96.1243 17.453 136.354 -6.38867 174.887 4.18466C213.421 14.7569 235.668 55.7422 224.577 95.7253Z" fill="white"/>
<path d="M156.397 2.09105C124.435 2.09105 94.6745 24.194 85.4231 57.5451C79.9446 77.2962 82.3859 97.7915 92.2982 115.258C101.688 131.802 116.792 143.639 134.83 148.589C173.089 159.087 213.173 135.324 224.188 95.6178L224.577 95.7255L224.188 95.6178C229.666 75.8666 227.225 55.3703 217.313 37.9048C207.923 21.3603 192.817 9.52371 174.78 4.57393C168.658 2.8938 162.486 2.09105 156.397 2.09105ZM153.213 151.88C147.051 151.88 140.812 151.068 134.616 149.368C116.37 144.362 101.091 132.389 91.5957 115.657C81.5756 98.0026 79.1077 77.2887 84.6438 57.3286C95.7768 17.1952 136.307 -6.82025 174.994 3.79465C193.241 8.80093 208.52 20.7729 218.015 37.5061C228.034 55.1603 230.503 75.8741 224.967 95.8342C215.616 129.54 185.526 151.88 153.213 151.88Z" fill="#371A45"/>
<path d="M153.216 149.788C147.239 149.788 141.179 149 135.169 147.351C117.463 142.492 102.634 130.87 93.4143 114.624C92.7918 113.527 92.2001 112.419 91.6372 111.299C95.909 116.656 102.446 122.87 110.595 128.345C118.339 133.554 127.535 138.09 137.633 140.588C145.572 142.554 153.374 143.362 160.68 143.362C162.919 143.362 165.112 143.286 167.247 143.144C173.738 142.714 179.707 141.674 184.86 140.307C184.864 140.306 184.867 140.305 184.87 140.304C184.872 140.304 184.874 140.303 184.876 140.303C187.426 139.626 189.781 138.868 191.897 138.064C180.444 145.578 167.042 149.788 153.216 149.788Z" fill="#B9AFBE"/>
<path d="M156.395 3.37434C124.996 3.37434 95.7533 25.102 86.6597 57.887C81.2728 77.3077 83.6715 97.4576 93.4144 114.624C102.634 130.869 117.463 142.492 135.169 147.351C172.75 157.662 212.125 134.3 222.951 95.2743L224.577 95.7252L222.951 95.2743C228.338 75.8546 225.939 55.7048 216.196 38.5378C206.976 22.2918 192.148 10.6695 174.44 5.8114C168.432 4.16219 162.372 3.37434 156.395 3.37434ZM153.212 153.162C146.939 153.162 140.584 152.336 134.277 150.606C115.7 145.508 100.146 133.32 90.4795 116.29C80.291 98.3371 77.7793 77.2757 83.4071 56.9851C94.7288 16.1715 135.967 -8.24373 175.334 2.55667C193.911 7.65465 209.465 19.8409 219.131 36.8726C229.32 54.8253 231.831 75.8855 226.202 96.1761C216.695 130.452 186.089 153.162 153.212 153.162Z" fill="#371A45"/>
<path d="M223.838 97.5238C220.115 111.746 212.208 123.804 201.736 132.767C193.885 139.487 166.674 147.779 137.635 140.586C110.71 133.917 90.1607 112.769 86.5979 103.108C81.8464 90.2234 80.8517 75.8729 84.5745 61.6504C94.4271 24.0148 129.685 16.4435 168.143 26.3495C206.602 36.2565 233.691 59.8882 223.838 97.5238Z" fill="#371A45"/>
<path d="M160.68 143.362C153.374 143.362 145.572 142.554 137.633 140.588C127.535 138.09 118.339 133.554 110.595 128.345C118.339 133.55 127.538 138.086 137.635 140.586C145.575 142.553 153.378 143.362 160.687 143.362C162.924 143.362 165.113 143.286 167.248 143.144C165.112 143.286 162.919 143.362 160.68 143.362ZM184.86 140.308C184.864 140.306 184.867 140.305 184.87 140.304C184.867 140.305 184.864 140.306 184.86 140.308ZM184.876 140.303C187.427 139.625 189.782 138.867 191.898 138.063L191.897 138.064C189.781 138.868 187.426 139.626 184.876 140.303Z" fill="#444755"/>
<path d="M191.897 138.064L191.898 138.063C196.296 136.395 199.68 134.527 201.736 132.767C203.357 131.38 204.915 129.919 206.407 128.387C204.916 129.919 203.358 131.38 201.738 132.767C199.681 134.528 196.296 136.395 191.897 138.064Z" fill="#1C1A31"/>
<path d="M225.141 74.0798C225.14 74.0756 225.139 74.0702 225.137 74.066C225.139 74.0702 225.14 74.0745 225.141 74.0798ZM225.134 74.0479C224.156 68.5864 222.226 63.5449 219.486 58.9309C219.486 58.9288 219.486 58.9267 219.486 58.9245C222.228 63.5417 224.157 68.5832 225.134 74.0479Z" fill="#595F69"/>
<path d="M160.687 143.362C153.378 143.362 145.575 142.553 137.635 140.586C127.538 138.086 118.339 133.55 110.595 128.345C110.476 128.265 110.355 128.184 110.236 128.103C119.439 130.166 128.466 131.027 136.964 131.028C161.607 131.028 181.809 123.781 189.049 117.584C196.377 111.311 202.716 103.843 207.72 95.381C208.979 94.0431 210.092 92.4024 210.952 90.5207C211.538 89.2404 211.963 87.9419 212.235 86.6637C214.207 82.2693 215.84 77.6596 217.097 72.8548C218.363 68.034 219.14 63.3924 219.486 58.9308C222.226 63.5448 224.156 68.5863 225.134 74.0478C225.135 74.0542 225.136 74.0595 225.138 74.0659C225.139 74.0701 225.14 74.0755 225.141 74.0798C226.405 81.1766 226.07 88.9899 223.838 97.5217C220.69 109.546 214.552 120.019 206.407 128.387C204.915 129.919 203.357 131.38 201.736 132.767C199.68 134.527 196.296 136.395 191.898 138.063C189.782 138.867 187.427 139.625 184.876 140.303C184.874 140.303 184.872 140.304 184.87 140.304C184.867 140.305 184.864 140.306 184.86 140.308C179.707 141.674 173.739 142.714 167.248 143.144C165.113 143.286 162.924 143.362 160.687 143.362Z" fill="#1C1A31"/>
<path d="M199.9 99.2966C198.904 99.2966 197.932 99.0941 197.022 98.6676C192.379 96.4929 191.089 89.3171 194.139 82.6424C196.592 77.2758 201.104 73.8665 205.191 73.8665C206.188 73.8665 207.16 74.069 208.07 74.4955C211.821 76.2534 213.384 81.2778 212.235 86.6636C210.885 89.6732 209.376 92.5814 207.72 95.3809C205.387 97.8596 202.555 99.2977 199.9 99.2966Z" fill="#9B8DA2"/>
<path d="M207.72 95.3809C209.376 92.5813 210.885 89.6731 212.235 86.6636C211.963 87.9418 211.538 89.2403 210.952 90.5206C210.092 92.4022 208.979 94.0429 207.72 95.3809Z" fill="#8E8D98"/>
<path d="M184.014 115.077C183.17 115.077 182.347 114.851 181.622 114.374C179.289 112.839 178.852 109.29 180.645 106.446C181.88 104.485 183.854 103.372 185.726 103.372C186.569 103.372 187.391 103.598 188.116 104.075C190.45 105.609 190.888 109.159 189.095 112.002C187.858 113.964 185.885 115.077 184.014 115.077Z" fill="#9B8DA2"/>
<path d="M94.3514 88.0676C94.3514 88.0676 92.8334 48.0461 115.997 38.219C124.99 34.4046 134.673 33.1573 143.088 33.1573C156.347 33.1573 166.459 36.2543 165.767 37.2809C165.767 37.2809 165.756 37.2809 165.736 37.2809C164.615 37.2809 132.693 37.4717 114.404 59.1802C100.047 76.2214 94.3514 88.0676 94.3514 88.0676Z" fill="#9B8DA2"/>
<path d="M226.491 64.665C225.964 64.665 225.446 64.4177 225.118 63.9604L224.982 63.7781L224.895 63.5403C217.568 43.286 197.309 27.5326 169.311 20.3195C141.153 13.067 115.659 17.3793 99.3662 32.1519L99.2138 32.2745C98.4622 32.8129 97.4121 32.6487 96.8663 31.9024C96.3375 31.1796 96.4622 30.1796 97.1413 29.6136C114.292 14.0947 140.898 9.51591 170.154 17.052C199.205 24.5358 220.294 41.0227 228.034 62.2973C228.359 63.0339 228.118 63.9199 227.425 64.3815C227.137 64.5734 226.812 64.665 226.491 64.665Z" fill="#371A45"/>
</svg>
